<?xml version="1.0" encoding="iso-8859-1"?>
<!-- Generator: Adobe Illustrator 19.0.0, SVG Export Plug-In . SVG Version: 6.00 Build 0)  -->
<svg version="1.1" id="Capa_1" xmlns="http://www.w3.org/2000/svg" xmlns:xlink="http://www.w3.org/1999/xlink" x="0px" y="0px"
	 viewBox="0 0 512 512" style="enable-background:new 0 0 512 512;" xml:space="preserve">
<path style="fill:#FEC9A3;" d="M213.44,426.879c-2.554-40.007-24.685-75.757-58.733-95.335h-0.851L94.271,265.15
	c-8.512-10.214-23.834-10.214-34.048-1.702l0,0V137.47c0-14.47-11.066-25.536-25.536-25.536S9.151,122.999,9.151,137.47v160.878
	c0,11.917,2.554,22.983,8.512,33.197L94.271,469.44V512H213.44V426.879L213.44,426.879z"/>
<polygon style="fill:#F9B44D;" points="119.807,86.397 256,9.789 392.193,86.397 256,163.006 "/>
<polygon style="fill:#FA982F;" points="119.807,237.061 256,316.223 256,163.006 119.807,86.397 "/>
<polygon style="fill:#F77219;" points="256,163.006 256,316.223 392.193,237.061 392.193,86.397 "/>
<g>
	<rect x="349.675" y="214.078" style="fill:#E8594A;" width="17.024" height="17.024"/>
	<rect x="315.627" y="231.102" style="fill:#E8594A;" width="17.024" height="17.024"/>
	<rect x="281.579" y="248.126" style="fill:#E8594A;" width="17.024" height="17.024"/>
</g>
<path style="fill:#FEC9A3;" d="M298.56,426.879c2.554-40.007,24.685-75.757,58.733-95.335h0.851l59.584-66.394
	c8.512-10.214,23.834-10.214,34.048-1.702l0,0V137.47c0-14.47,11.066-25.536,25.536-25.536s25.536,11.066,25.536,25.536v160.878
	c0,11.917-2.554,22.983-8.512,33.197L417.729,469.44V512H298.56V426.879L298.56,426.879z"/>
<polygon style="fill:#F77219;" points="311.328,41.283 174.284,117.041 192.16,127.255 329.204,50.647 "/>
<g>
	<path style="fill:#F7C097;" d="M196.416,372.402C171.731,442.201,138.534,490.72,112.998,512H213.44v-85.121l0,0
		C212.589,407.302,206.63,388.575,196.416,372.402z"/>
	<path style="fill:#F7C097;" d="M298.56,482.208V512h119.169v-42.56l76.608-137.895c2.554-5.107,5.107-10.214,6.81-16.173
		C432.2,412.409,328.353,467.737,298.56,482.208z"/>
</g>
<path d="M85.759,471.993V512h17.024v-42.56c0-1.702,0-2.554-0.851-4.256L25.323,327.288c-5.107-8.512-7.661-18.727-7.661-28.941
	V137.47c0-9.363,7.661-17.024,17.024-17.024s17.024,7.661,17.024,17.024v122.574c-11.066,12.768-10.214,30.643,0.851,42.56
	l69.799,76.608l12.768-11.066L65.33,291.538c-5.958-5.958-5.107-15.322,0.851-21.28c3.405-2.554,6.81-4.256,11.066-4.256
	c4.256,0,8.512,1.702,11.066,5.107l59.584,66.394c0.851,0.851,1.702,1.702,2.554,1.702c34.048,19.578,54.477,55.328,54.477,94.484
	V512h17.024v-85.121l0,0c-2.554-42.56-25.536-80.864-62.138-102.996l-58.733-65.543c-6.81-5.958-15.322-10.214-23.834-10.214
	c-2.554,0-5.958,0-8.512,0.851V137.47c0-18.727-15.322-34.048-34.048-34.048S0.638,118.743,0.638,137.47v160.878
	c0,12.768,3.405,25.536,9.363,37.453L85.759,471.993z"/>
<path d="M477.313,103.421c-18.727,0-34.048,15.322-34.048,34.048v111.508c-11.917-3.405-23.834,0.851-31.495,9.363l-58.733,65.543
	c-37.453,22.131-60.436,60.436-62.989,102.996l0,0V512h17.024v-79.162c0-39.155,21.28-74.906,55.328-94.484
	c0.851-0.851,1.702-0.851,2.554-1.702l59.584-66.394c2.554-3.405,6.81-5.107,11.066-5.107c4.256,0,8.512,1.702,11.066,4.256
	c5.958,5.958,5.958,15.322,0.851,21.28l-69.799,76.608l12.768,11.066l69.799-76.608c11.066-11.917,11.066-30.643,0.851-42.56V137.47
	c0-9.363,7.661-17.024,17.024-17.024s17.024,7.661,17.024,17.024v160.027c0,11.066-2.554,21.28-8.512,30.643l-75.757,137.044
	c-1.702,1.702-1.702,2.554-1.702,4.256V512h17.024v-40.007l74.906-135.342c6.81-11.917,10.214-25.536,10.214-39.155V137.47
	C511.362,118.743,496.04,103.421,477.313,103.421z"/>
<path d="M400.705,237.061V86.397c0-0.851,0-1.702,0-2.554v-0.851c0-0.851,0-0.851-0.851-1.702c0,0,0-0.851-0.851-0.851l-0.851-0.851
	c0,0,0,0-0.851-0.851l-0.851-0.851l0,0l0,0L260.256,1.277c-2.554-1.702-5.958-1.702-8.512,0L115.551,77.885l0,0l0,0l-0.851,0.851
	c0,0-0.851,0-0.851,0.851l-0.851,0.851c0,0,0,0.851-0.851,0.851c0,0.851,0,0.851-0.851,1.702v0.851c0,0.851,0,1.702,0,2.554v150.663
	c0,3.405,1.702,5.958,4.256,7.661l136.193,79.162l0,0c0.851,0,0.851,0.851,1.702,0.851c0,0,0,0,0.851,0c1.702,0,2.554,0,4.256,0
	c0,0,0,0,0.851,0s0.851,0,1.702-0.851l0,0L397.3,244.722C399.003,243.019,400.705,240.465,400.705,237.061z M256,19.152
	l46.816,26.387l-119.169,67.245l-46.816-26.387L256,19.152z M247.488,301.752l-119.169-68.948V100.868l119.169,67.245V301.752z
	 M256,153.643l-54.477-30.643l119.169-67.245l54.477,30.643L256,153.643z M383.681,232.805l-119.169,68.948V168.113l119.169-67.245
	V232.805z"/>
<rect x="349.675" y="214.078" width="17.024" height="17.024"/>
<rect x="315.627" y="231.102" width="17.024" height="17.024"/>
<rect x="281.579" y="248.126" width="17.024" height="17.024"/>
<g>
</g>
<g>
</g>
<g>
</g>
<g>
</g>
<g>
</g>
<g>
</g>
<g>
</g>
<g>
</g>
<g>
</g>
<g>
</g>
<g>
</g>
<g>
</g>
<g>
</g>
<g>
</g>
<g>
</g>
</svg>
