<svg id="Capa_1" enable-background="new 0 0 512 512" height="512" viewBox="0 0 512 512" width="512" xmlns="http://www.w3.org/2000/svg"><g><g><g><g><g><path d="m127.232 94.425 19.399-19.931c3.997-4.107 10.95-2.244 12.358 3.311l6.834 26.96c.712 2.811 3.603 4.48 6.393 3.691l26.765-7.562c5.516-1.558 10.605 3.532 9.047 9.047l-9.001 31.858 32.09 8.134c5.556 1.408 7.419 8.361 3.311 12.358l-23.724 23.09 23.724 23.09c4.107 3.997 2.244 10.95-3.311 12.358l-26.96 6.834c-2.811.712-4.48 3.603-3.691 6.393l7.562 26.765c1.558 5.516-3.532 10.605-9.047 9.047l-26.765-7.562c-2.79-.788-5.681.881-6.393 3.691l-6.834 26.96c-1.408 5.556-8.361 7.419-12.358 3.311l-19.399-19.931c-2.022-2.078-5.36-2.078-7.382 0l-19.399 19.931c-3.997 4.107-10.95 2.244-12.358-3.311l-6.834-26.957c-.712-2.811-3.603-4.479-6.393-3.691l-26.766 7.562c-5.516 1.558-10.605-3.532-9.047-9.047l7.562-26.765c.788-2.79-.881-5.681-3.691-6.393l-26.96-6.834c-5.556-1.408-7.419-8.361-3.311-12.358l19.931-19.399c2.078-2.022 2.078-5.36 0-7.382l-19.931-19.399c-4.107-3.997-2.244-10.95 3.311-12.358l26.96-6.834c2.811-.712 4.48-3.603 3.691-6.393l-7.562-26.765c-1.558-5.516 3.532-10.605 9.047-9.047l26.765 7.562c2.79.788 5.681-.881 6.393-3.691l6.834-26.96c1.408-5.556 8.361-7.419 12.358-3.311l19.399 19.931c2.023 2.074 5.361 2.074 7.383-.003z" fill="#fb4a59"/><path d="m234.43 208.472c4.105 3.995 2.243 10.951-3.313 12.359l-26.956 6.836c-2.81.713-4.479 3.603-3.691 6.392l7.557 26.765c1.561 5.512-3.526 10.607-9.046 9.046l-26.764-7.562c-2.79-.788-5.681.88-6.394 3.691l-6.836 26.962c-1.407 5.556-8.356 7.418-12.359 3.313l-4.765-4.897 11.267-49.501c.469-2.045 2.551-3.284 4.567-2.712l21.045 5.945c2.763.784 5.307-1.767 4.53-4.523l-5.974-21.133c-.564-1.987.623-4.046 2.624-4.552l21.294-5.395c2.778-.704 3.709-4.178 1.657-6.179l-15.745-15.32c-1.473-1.437-1.473-3.812 0-5.248l15.745-15.32c2.052-2.001 1.122-5.476-1.657-6.179l-21.294-5.395c-1.994-.506-3.189-2.566-2.624-4.552l5.974-21.133c.777-2.756-1.767-5.3-4.53-4.523l-21.126 5.967c-1.987.564-4.046-.63-4.552-2.632l-12.227-48.555 5.791-5.945c4.002-4.105 10.951-2.243 12.359 3.313l6.836 26.962c.713 2.81 3.603 4.479 6.394 3.691l26.764-7.562c5.52-1.554 10.607 3.533 9.046 9.045l-8.994 31.857 32.084 8.137c5.556 1.407 7.418 8.364 3.313 12.359l-23.721 23.09z" fill="#f82f40"/></g><g><g><g><path d="m88.168 218.967c-13.907 0-25.222-11.315-25.222-25.222v-16.724c0-13.907 11.314-25.222 25.222-25.222 9.381 0 17.931 5.156 22.313 13.456 1.992 3.773.549 8.448-3.225 10.44-3.774 1.991-8.448.548-10.44-3.225-1.7-3.219-5.014-5.218-8.648-5.218-5.387 0-9.769 4.383-9.769 9.77v16.724c0 5.387 4.382 9.77 9.769 9.77 4.722 0 8.673-3.367 9.575-7.827h-8.109c-4.267 0-7.726-3.459-7.726-7.726s3.459-7.726 7.726-7.726h16.03c4.267 0 7.726 3.459 7.726 7.726v5.784c.001 13.905-11.314 25.22-25.222 25.22z" fill="#f8f3f1"/></g><g><path d="m144.299 218.967c-13.907 0-25.222-11.315-25.222-25.222v-16.724c0-13.907 11.314-25.222 25.222-25.222 13.907 0 25.222 11.315 25.222 25.222v16.724c0 13.907-11.315 25.222-25.222 25.222zm0-51.716c-5.387 0-9.769 4.383-9.769 9.77v16.724c0 5.387 4.382 9.77 9.769 9.77s9.77-4.383 9.77-9.77v-16.724c0-5.387-4.383-9.77-9.77-9.77z" fill="#f8f3f1"/></g></g></g></g><g><g><g><path d="m232.658 335.056h60.43v176.944h-125.095v-145.441c14.33-15.844 33.903-26.774 55.949-30.164z" fill="#64b9fc"/><path d="m491.264 512h-158.668v-176.944h60.492l8.715 1.339c38.168 5.872 68.971 34.295 77.882 71.865l21.603 91.059c1.535 6.473-3.373 12.681-10.024 12.681z" fill="#64b9fc"/><path d="m282.788 335.056v46.245c0 3.358-3.16 5.819-6.413 4.986-14.289-3.656-32.563 3.772-43.18 9.147-3.781 1.916-8.097-1.288-7.397-5.47 4.759-28.701 16.854-45.895 25.497-54.909h31.493z" fill="#31a7fb"/><path d="m392.495 395.435c-10.617-5.375-28.891-12.803-43.18-9.147-3.253.832-6.413-1.629-6.413-4.986v-46.245h31.503c8.633 9.014 20.727 26.208 25.497 54.909.69 4.181-3.626 7.385-7.407 5.469z" fill="#31a7fb"/><g><path d="m282.79 335.056h60.112v176.944h-60.112z" fill="#f8f3f1"/></g><path d="m491.261 512h-20.142l-24.601-103.739c-8.921-37.571-39.724-65.993-77.892-71.865l-8.705-1.339h33.172l8.705 1.339c38.168 5.872 68.971 34.295 77.892 71.865l21.594 91.06c1.535 6.471-3.373 12.679-10.023 12.679z" fill="#31a7fb"/><g><g><path d="m356.917 321.546c-11.314-6.252-18.243-18.255-18.243-31.181v-22.398h-51.598v22.394c0 13.114-7.19 25.14-18.695 31.434v2.133c0 24.449 19.819 44.268 44.268 44.268 24.449 0 44.268-19.819 44.268-44.268z" fill="#fc9085"/><g><path d="m345.993 312.114c-10.292 2.998-21.366 4.543-33.12 4.543-11.775 0-22.87-1.545-33.172-4.564 4.698-6.14 7.376-13.732 7.376-21.737v-22.386h51.592v22.396c0 7.985 2.647 15.608 7.324 21.748z" fill="#fc7c6a"/></g></g></g><g><g><path d="m433.131 430.121v81.879h-15.453v-81.879c0-4.275 3.461-7.726 7.726-7.726 4.266 0 7.727 3.451 7.727 7.726z" fill="#31a7fb"/></g></g></g><g><g><path d="m202.327 79.055c-8.095 20.766 10.696 108.278 8.455 100.172h204.182c-1.988 7.733 20.234-89.593 3.094-128.421-15.542-35.209-89.639-36.599-113.376-30.34-33.72 8.892-89.689 26.098-102.355 58.589z" fill="#6c3328"/><g fill="#873f30"><path d="m210.786 179.223h.122c.111.689.08.729-.122 0z"/><path d="m414.962 179.223c-.142.537-.162.516-.091 0z"/><path d="m184.12 179.223h.122c.111.689.081.729-.122 0z"/><path d="m388.206 179.223h.091c-.142.537-.162.516-.091 0z"/></g></g><g><g><g fill="#fc9085"><ellipse cx="413.575" cy="165.676" rx="33.275" ry="28.356" transform="matrix(.338 -.941 .941 .338 118.048 499.078)"/><ellipse cx="212.171" cy="165.676" rx="28.356" ry="33.275" transform="matrix(.941 -.338 .338 .941 -43.464 81.322)"/></g></g><path d="m260.616 91.54c-20.194 0-36.564 16.37-36.564 36.564v56.693s0 106.107 88.821 106.107 88.821-106.107 88.821-106.107v-56.693c0-20.194-16.37-36.564-36.564-36.564z" fill="#fda79b"/><path d="m383.624 96.559c-5.439 21.448-22.17 40.146-63.336 40.146-39.27 0-63.49-14.196-93.849-21.613 5.244-13.774 18.564-23.55 34.181-23.55h104.512c6.748 0 13.073 1.823 18.492 5.017z" fill="#fc9085"/></g><path d="m319.235 0c68.019 0 66.62 33.005 66.62 56.557 0 28.035-12.378 59.244-65.566 59.244-46.539 0-71.947-19.934-111.491-24.917-9.503-1.198-14.939-11.457-10.789-20.089 12.665-26.342 45.288-70.795 121.226-70.795z" fill="#ba5d4f"/><path d="m385.857 56.561c0 28.032-12.376 59.245-65.564 59.245-4.81 0-9.398-.213-13.794-.597 43.689-4.476 54.313-33.369 54.313-59.538 0-20.649 1.063-48.479-43.203-55.649.536-.022 1.083-.022 1.63-.022 68.015 0 66.618 33.005 66.618 56.561z" fill="#a34f41"/><g><path d="m312.873 247.739c-13.916 0-25.198-11.281-25.198-25.198v-3.031c0-2.845 2.306-5.151 5.151-5.151h40.094c2.845 0 5.151 2.306 5.151 5.151v3.031c0 13.917-11.281 25.198-25.198 25.198z" fill="#f8f3f1"/></g><g><g><path d="m369.457 170.369c-1.574 0-3.163-.479-4.535-1.476-2.188-1.59-5.115-2.465-8.242-2.465s-6.054.875-8.242 2.465c-3.451 2.508-8.283 1.743-10.792-1.71-2.508-3.452-1.742-8.284 1.71-10.792 4.807-3.492 10.96-5.416 17.325-5.416s12.518 1.924 17.325 5.416c3.452 2.509 4.218 7.34 1.71 10.792-1.514 2.081-3.87 3.186-6.259 3.186z" fill="#fc7c6a"/></g><g><path d="m281.84 170.369c-1.574 0-3.163-.479-4.535-1.476-2.188-1.59-5.115-2.465-8.242-2.465s-6.054.875-8.242 2.465c-3.452 2.508-8.283 1.743-10.792-1.71-2.508-3.452-1.742-8.284 1.71-10.792 4.807-3.492 10.96-5.416 17.325-5.416s12.518 1.924 17.325 5.416c3.452 2.509 4.218 7.34 1.71 10.792-1.513 2.081-3.869 3.186-6.259 3.186z" fill="#fc7c6a"/></g></g></g></g><g><path d="m315.889 196.355h-6.032c-4.267 0-7.726-3.459-7.726-7.726s3.459-7.726 7.726-7.726h6.032c4.267 0 7.726 3.459 7.726 7.726s-3.459 7.726-7.726 7.726z" fill="#fc7c6a"/></g></g></g><g fill="#b5dbfd"><path d="m282.79 359.729v-47.438c0-2.638-1.993-4.849-4.616-5.123l-9.192-.959c-5.88-.614-11.723 1.412-15.959 5.536-8.681 8.452-22.136 25.99-27.23 56.667-.692 4.17 3.619 7.373 7.39 5.463 10.626-5.382 28.926-12.827 43.223-9.151 3.24.832 6.384-1.65 6.384-4.995z"/><path d="m342.904 359.729v-47.438c0-2.638 1.993-4.849 4.616-5.123l9.192-.959c5.88-.614 11.723 1.412 15.959 5.536 8.681 8.452 22.136 25.99 27.23 56.667.692 4.17-3.619 7.373-7.39 5.463-10.626-5.382-28.926-12.827-43.223-9.151-3.24.832-6.384-1.65-6.384-4.995z"/></g></g><g><path d="m233.497 352.931v53.149c0 5.62-2.072 11.021-5.837 15.193l-10.431 11.593c-1.702 1.892-2.644 4.346-2.644 6.89v61.942c0 5.69-4.612 10.302-10.302 10.302h-55.08c-5.69 0-10.302-4.612-10.302-10.302v-43.378c0-2.732-1.085-5.353-3.017-7.284l-31.258-31.258c-6.376-6.386-9.839-14.91-9.687-23.954.142-8.77 3.936-17.086 10.132-23.292l19.271-19.271v-5.213c0-10.047 7.833-18.59 17.871-18.892 3.726-.11 7.215.891 10.159 2.697 1.819 1.115 4.108 1.05 5.826-.215 2.971-2.188 6.64-3.485 10.608-3.485 4.37 0 8.374 1.571 11.485 4.181 1.625 1.363 3.869 1.605 5.768.66 2.318-1.154 4.924-1.804 7.685-1.804 4.706 0 8.979 1.887 12.107 4.943 1.426 1.393 3.534 1.829 5.393 1.11 2.145-.829 4.506-1.217 6.974-1.048 8.676.568 15.279 8.042 15.279 16.736z" fill="#fda79b"/><path d="m233.497 353.01v53.069c0 5.62-2.072 11.021-5.837 15.193l-10.431 11.593c-1.702 1.892-2.644 4.346-2.644 6.89v61.942c0 5.69-4.612 10.302-10.302 10.302h-20.113v-71.749c0-2.857 1.06-5.62 2.971-7.748l10.113-11.23c3.756-4.172 5.828-9.574 5.828-15.193v-58.825c0-7.294-4.655-13.737-11.267-15.95.634-.076 1.277-.114 1.93-.114 4.707 0 8.981 1.888 12.109 4.945 1.433 1.4 3.549 1.817 5.42 1.1 2.056-.788 4.31-1.173 6.665-1.058 8.8.431 15.558 8.023 15.558 16.833z" fill="#fc9085"/><g><path d="m124.344 353.259v40.496c0 4.265-3.461 7.726-7.726 7.726s-7.726-3.461-7.726-7.726v-25.044z" fill="#fc9085"/></g></g></g></svg>