<svg height="512" viewBox="0 0 64 64" width="512" xmlns="http://www.w3.org/2000/svg"><g id="drug-medical-coronavirus-covid19-hospital"><path d="m25.24 24.76a6.156 6.156 0 0 0 -4.3-1.747 2.014 2.014 0 0 1 -1.94-2v-2.013h-6v2.033a2 2 0 0 1 -1.861 1.988c-3.718.256-6.139 2.839-6.139 5.979v20a2.006 2.006 0 0 0 2 2h18a2 2 0 0 0 2-2v-20a5.944 5.944 0 0 0 -1.76-4.24z" fill="#7ed63e"/><path d="m25.24 24.76a6.156 6.156 0 0 0 -4.3-1.747 2.014 2.014 0 0 1 -1.94-2v-2.013h-2v2.017a2.014 2.014 0 0 0 1.94 2 6.156 6.156 0 0 1 4.3 1.747 5.944 5.944 0 0 1 1.76 4.236v20a2 2 0 0 1 -2 2h2a2 2 0 0 0 2-2v-20a5.944 5.944 0 0 0 -1.76-4.24z" fill="#5eac24"/><path d="m5 31h16v14h-16z" fill="#ff6243"/><path d="m59 34.51v18.49a4 4 0 0 1 -4 4h-20a4 4 0 0 1 -4-4v-18.49a30.067 30.067 0 0 1 7.7-20.07l1.3-1.44h10l1.3 1.44a30.067 30.067 0 0 1 7.7 20.07z" fill="#57a4ff"/><path d="m56.7 23a30.267 30.267 0 0 0 -5.4-8.56l-1.3-1.44h-2l1.3 1.44a30.067 30.067 0 0 1 7.7 20.07v18.49a4 4 0 0 1 -4 4h2a4 4 0 0 0 4-4v-18.49a30.081 30.081 0 0 0 -2.3-11.51z" fill="#2488ff"/><path d="m59 34.51v6.49h-28v-6.49a30.081 30.081 0 0 1 2.3-11.51h23.4a30.081 30.081 0 0 1 2.3 11.51z" fill="#ffcd00"/><path d="m56.7 23h-2a30.081 30.081 0 0 1 2.3 11.51v6.49h2v-6.49a30.081 30.081 0 0 0 -2.3-11.51z" fill="#ebbf00"/><path d="m21 15v4h-10v-4a2.006 2.006 0 0 1 2-2h6a2.006 2.006 0 0 1 2 2z" fill="#4e901e"/><path d="m50 30h-3v-3h-4v3h-3v4h3v3h4v-3h3z" fill="#d80027"/><rect fill="#004fac" height="20" rx="4" width="40" x="12" y="41"/><path d="m12 57a4 4 0 0 0 4 4 4 4 0 0 1 -4-4z" fill="#00479b"/><path d="m16 41a4 4 0 0 0 -4 4 4 4 0 0 1 4-4z" fill="#00479b"/><path d="m36 61h12a4 4 0 0 0 4-4v-12a16 16 0 0 1 -16 16z" fill="#00479b"/><path d="m48 41a4 4 0 0 1 4 4 4 4 0 0 0 -4-4z" fill="#00479b"/><circle cx="28" cy="47" fill="#ffcd00" r="2"/><circle cx="28" cy="55" fill="#ffcd00" r="2"/><circle cx="36" cy="47" fill="#ffcd00" r="2"/><circle cx="36" cy="55" fill="#ffcd00" r="2"/><circle cx="20" cy="47" fill="#ffcd00" r="2"/><circle cx="20" cy="55" fill="#ffcd00" r="2"/><circle cx="44" cy="47" fill="#ffcd00" r="2"/><circle cx="44" cy="55" fill="#ffcd00" r="2"/><path d="m52 9v-4a2 2 0 0 0 -2-2h-10a2 2 0 0 0 -2 2v4z" fill="#004fac"/><path d="m40 9h10v4h-10z" fill="#006df0"/><g fill="#231f20"><path d="m57.62 22.61a31 31 0 0 0 -5.58-8.84l-1.04-1.15v-2.62h1a1 1 0 0 0 1-1v-4a3.009 3.009 0 0 0 -3-3h-10a3.009 3.009 0 0 0 -3 3v4a1 1 0 0 0 1 1h1v2.62l-1.04 1.15a30.966 30.966 0 0 0 -7.96 20.74v5.49h-2v-11a6.885 6.885 0 0 0 -2.05-4.94 7.135 7.135 0 0 0 -4.96-2.05 1 1 0 0 1 -.99-.99v-1.02h1a1 1 0 0 0 1-1v-4a3.009 3.009 0 0 0 -3-3h-6a3.009 3.009 0 0 0 -3 3v4a1 1 0 0 0 1 1h1v1.03a1 1 0 0 1 -.93.99c-4.1.29-7.07 3.22-7.07 6.98v20a3.009 3.009 0 0 0 3 3h4v5a5 5 0 0 0 5 5h32a5.017 5.017 0 0 0 4.9-4h2.1a5 5 0 0 0 5-5v-18.49a30.864 30.864 0 0 0 -2.38-11.9zm-18.62-17.61a1 1 0 0 1 1-1h10a1 1 0 0 1 1 1v3h-12zm10 5v2h-8v-2zm-9.56 5.11 1-1.11h9.12l1 1.11a29.193 29.193 0 0 1 4.6 6.89h-20.32a29.193 29.193 0 0 1 4.6-6.89zm-27.44-.11a1 1 0 0 1 1-1h6a1 1 0 0 1 1 1v3h-8zm-6 14c0-2.72 2.14-4.77 5.21-4.98a3.01 3.01 0 0 0 2.79-2.99v-1.03h4v1.02a3.011 3.011 0 0 0 2.89 2.99 5.2 5.2 0 0 1 3.65 1.46 4.953 4.953 0 0 1 1.46 3.53v11h-4v-9a1 1 0 0 0 -1-1h-15zm5 21h-4a1 1 0 0 1 -1-1v-3h5zm.1-6h-5.1v-12h14v8h-4a5.017 5.017 0 0 0 -4.9 4zm39.9 13a3.009 3.009 0 0 1 -3 3h-32a3.009 3.009 0 0 1 -3-3v-12a3.009 3.009 0 0 1 3-3h32a3.009 3.009 0 0 1 3 3zm7-4a3.009 3.009 0 0 1 -3 3h-2v-11a4.924 4.924 0 0 0 -1.03-3h6.03zm0-13h-26v-5.49a29.012 29.012 0 0 1 1.97-10.51h22.06a29.012 29.012 0 0 1 1.97 10.51z"/><path d="m48 35h2a1 1 0 0 0 1-1v-4a1 1 0 0 0 -1-1h-2v-2a1 1 0 0 0 -1-1h-4a1 1 0 0 0 -1 1v2h-2a1 1 0 0 0 -1 1v4a1 1 0 0 0 1 1h2v2a1 1 0 0 0 1 1h4a1 1 0 0 0 1-1zm-1-2a1 1 0 0 0 -1 1v2h-2v-2a1 1 0 0 0 -1-1h-2v-2h2a1 1 0 0 0 1-1v-2h2v2a1 1 0 0 0 1 1h2v2z"/><path d="m28 44a3 3 0 1 0 3 3 3 3 0 0 0 -3-3zm0 4a1 1 0 1 1 1-1 1 1 0 0 1 -1 1z"/><path d="m28 52a3 3 0 1 0 3 3 3 3 0 0 0 -3-3zm0 4a1 1 0 1 1 1-1 1 1 0 0 1 -1 1z"/><path d="m36 44a3 3 0 1 0 3 3 3 3 0 0 0 -3-3zm0 4a1 1 0 1 1 1-1 1 1 0 0 1 -1 1z"/><path d="m36 52a3 3 0 1 0 3 3 3 3 0 0 0 -3-3zm0 4a1 1 0 1 1 1-1 1 1 0 0 1 -1 1z"/><path d="m20 44a3 3 0 1 0 3 3 3 3 0 0 0 -3-3zm0 4a1 1 0 1 1 1-1 1 1 0 0 1 -1 1z"/><path d="m20 52a3 3 0 1 0 3 3 3 3 0 0 0 -3-3zm0 4a1 1 0 1 1 1-1 1 1 0 0 1 -1 1z"/><path d="m44 44a3 3 0 1 0 3 3 3 3 0 0 0 -3-3zm0 4a1 1 0 1 1 1-1 1 1 0 0 1 -1 1z"/><path d="m44 52a3 3 0 1 0 3 3 3 3 0 0 0 -3-3zm0 4a1 1 0 1 1 1-1 1 1 0 0 1 -1 1z"/><path d="m17 34h-9a1 1 0 0 0 0 2h9a1 1 0 0 0 0-2z"/><path d="m13 38h-5a1 1 0 0 0 0 2h5a1 1 0 0 0 0-2z"/></g></g></svg>