<svg height="512" viewBox="0 0 512 512" width="512" xmlns="http://www.w3.org/2000/svg"><g id="Fill_out_line" data-name="Fill out line"><path d="m440 56h-288a16 16 0 0 1 -16-16v-16h320v16a16 16 0 0 1 -16 16z" fill="#e0a684"/><rect fill="#dc9265" height="432" rx="16" width="384" x="104" y="56"/><path d="m488 72v400a15.97843 15.97843 0 0 1 -16 16h-48v-432h48a15.99552 15.99552 0 0 1 16 16z" fill="#ad693d"/><path d="m483.32 483.32007a15.98751 15.98751 0 0 1 -11.32 4.67993h-48l32-32z" fill="#8e5428"/><path d="m483.32 60.67993a15.98751 15.98751 0 0 0 -11.32-4.67993h-48l32 32z" fill="#8e5428"/><path d="m312 472a15.99568 15.99568 0 0 1 -16 16h-256a16 16 0 1 1 0-32h8l2.91-16 13.09-72h208l13.09 72 2.91 16h8a15.99552 15.99552 0 0 1 16 16z" fill="#3ea7ff"/><g fill="#bc8d5d"><rect height="32" rx="16" width="32" x="88" y="336"/><rect height="32" rx="16" width="32" x="104" y="304"/><rect height="32" rx="16" width="32" x="152" y="272"/><rect height="32" rx="16" width="32" x="136" y="304"/><rect height="32" rx="16" width="32" x="168" y="304"/><rect height="32" rx="16" width="32" x="120" y="336"/><rect height="32" rx="16" width="32" x="152" y="336"/><rect height="32" rx="16" width="32" x="184" y="336"/><rect height="32" rx="16" width="32" x="216" y="336"/></g><path d="m240 225.94114 24 24 24-24a33.94108 33.94108 0 0 0 -48 0z" fill="#4d4d4d"/><path d="m296 448h-1.32324l-14.80567-81.43066a8.00006 8.00006 0 0 0 -7.87109-6.56934h-17.37616a23.986 23.986 0 0 0 -38.62384-25.86914 23.97634 23.97634 0 0 0 -9.69659-5.28516 23.9783 23.9783 0 0 0 -16-32 24 24 0 1 0 -44.60682 0 23.97634 23.97634 0 0 0 -9.69659 5.28516 23.98477 23.98477 0 0 0 -38.30341 26.71484 23.98584 23.98584 0 0 0 -16.32043 31.1543h-17.37616a8.00006 8.00006 0 0 0 -7.87109 6.56934l-14.80567 81.43066h-1.32324a24 24 0 0 0 0 48h256a24 24 0 0 0 0-48zm-64-104a8 8 0 1 1 -8 8 8.00917 8.00917 0 0 1 8-8zm-32 16a8 8 0 1 1 8-8 8.00917 8.00917 0 0 1 -8 8zm-72-8a8 8 0 1 1 8 8 8.00917 8.00917 0 0 1 -8-8zm32 0a8 8 0 1 1 8 8 8.00917 8.00917 0 0 1 -8-8zm24-24a8 8 0 1 1 8-8 8.00917 8.00917 0 0 1 -8 8zm-16-48a8 8 0 1 1 -8 8 8.00917 8.00917 0 0 1 8-8zm-16 32a8 8 0 1 1 -8 8 8.00917 8.00917 0 0 1 8-8zm-32 0a8 8 0 1 1 -8 8 8.00917 8.00917 0 0 1 8-8zm-24 40a8 8 0 1 1 8 8 8.00917 8.00917 0 0 1 -8-8zm200 128h-256a8 8 0 0 1 0-16h32v-16h-14.41425l13.091-72h194.64649l13.091 72h-166.41424v16h184a8 8 0 0 1 0 16z"/><path d="m496 72a23.85617 23.85617 0 0 0 -2.34534-10.34082l.00208-.002-.00556-.00562a24.15589 24.15589 0 0 0 -11.30118-11.30195l-.00678-.00684-.00256.00244a23.85577 23.85577 0 0 0 -10.34066-2.34521h-9.37616a23.88535 23.88535 0 0 0 1.37616-8v-16a8.00008 8.00008 0 0 0 -8-8h-320a8.00008 8.00008 0 0 0 -8 8v16a23.88535 23.88535 0 0 0 1.37616 8h-9.37616a24.02718 24.02718 0 0 0 -24 24v200h16v-200a8.00917 8.00917 0 0 1 8-8h296v416h-80v16h136a23.85577 23.85577 0 0 0 10.3407-2.34521l.00256.00244.00678-.00684a24.15589 24.15589 0 0 0 11.30114-11.302l.00556-.00562-.00208-.00195a23.85617 23.85617 0 0 0 2.34534-10.34082zm-48 380.686-16 16.00048v-393.373l16 16.00052zm8-375.99952-12.68628-12.68648h25.37256zm-312-36.68648v-8h304v8a8.00917 8.00917 0 0 1 -8 8h-288a8.00917 8.00917 0 0 1 -8-8zm299.31372 440 12.68628-12.68652 12.68628 12.68652zm20.68628-27.314v-361.372l16-16v393.372z"/><path d="m192 136h-40a8.00008 8.00008 0 0 0 -8 8v40a40.04552 40.04552 0 0 0 40 40v-16a24.02718 24.02718 0 0 1 -24-24v-32h32a24.02718 24.02718 0 0 1 24 24h16a40.04552 40.04552 0 0 0 -40-40z"/><path d="m344 208v16a40.04552 40.04552 0 0 0 40-40v-40a8.00008 8.00008 0 0 0 -8-8h-40a40.04552 40.04552 0 0 0 -40 40h16a24.02718 24.02718 0 0 1 24-24h32v32a24.02718 24.02718 0 0 1 -24 24z"/><path d="m234.34326 220.28418a8.00032 8.00032 0 0 0 0 11.31445l21.65674 21.65674v15.15625a25.97316 25.97316 0 0 1 -34.34326-2.06885l-11.31348 11.31446a42.00967 42.00967 0 0 0 53.65674 4.74316 42.01535 42.01535 0 0 0 53.65674-4.74316l-11.31348-11.31446a25.97316 25.97316 0 0 1 -34.34326 2.06885v-15.15625l21.65674-21.65674a8.00032 8.00032 0 0 0 0-11.31445 41.99069 41.99069 0 0 0 -59.31348 0zm29.65674 18.34375-11.79395-11.79393a26.06206 26.06206 0 0 1 23.5879 0z"/><circle cx="304" cy="200" r="8"/><circle cx="224" cy="200" r="8"/></g></svg>