<svg id="Layer_1" enable-background="new 0 0 512 512" height="512" viewBox="0 0 512 512" width="512" xmlns="http://www.w3.org/2000/svg"><g><path d="m48 424c-13.25 0-24-10.75-24-24 0-14.641 0-319.924 0-336 0-13.25 10.75-24 24-24h416c13.25 0 24 10.75 24 24v336c0 13.25-10.75 24-24 24-18.968 0-395.223 0-416 0z" fill="#e2e0e0"/><path d="m425.91 424h-275.82c-46.357-99.738 26.153-216 137.91-216 111.725 0 184.286 116.219 137.91 216z" fill="#cecccc"/><path d="m464 40c13.25 0 24 10.75 24 24v56h-464v-56c0-13.25 10.75-24 24-24z" fill="#f79caf"/><path d="m488 64v336c0 13.25-10.75 24-24 24h-40c13.25 0 24-10.75 24-24v-336c0-13.25-10.75-24-24-24h40c13.25 0 24 10.75 24 24z" fill="#cecccc"/><path d="m488 64v56h-40v-56c0-13.25-10.75-24-24-24h40c13.25 0 24 10.75 24 24z" fill="#e3889b"/><circle cx="256" cy="360" fill="#acebe2" r="144"/><path d="m400 360c0 87.178-77.033 154.721-164 142.62 70.06-9.73 124-69.88 124-142.62s-53.94-132.89-124-142.62c87.049-12.113 164 55.514 164 142.62z" fill="#98d7ce"/><path d="m128 24v40c0 8.837-7.163 16-16 16-8.809 0-16-7.136-16-16v-40c0-8.837 7.163-16 16-16 8.809 0 16 7.136 16 16z" fill="#f3d4b7"/><path d="m416 24v40c0 8.837-7.163 16-16 16-8.809 0-16-7.136-16-16v-40c0-8.837 7.163-16 16-16 8.809 0 16 7.136 16 16z" fill="#f3d4b7"/><path d="m256 208c-83.813 0-152 68.187-152 152s68.187 152 152 152 152-68.187 152-152-68.187-152-152-152zm8 287.758v-7.758c0-4.418-3.582-8-8-8s-8 3.582-8 8v7.758c-68.633-4.001-123.757-59.125-127.758-127.758h7.758c4.418 0 8-3.582 8-8s-3.582-8-8-8h-7.758c4.001-68.633 59.126-123.757 127.758-127.758v7.758c0 4.418 3.582 8 8 8s8-3.582 8-8v-7.758c68.633 4.001 123.757 59.126 127.758 127.758h-7.758c-4.418 0-8 3.582-8 8s3.582 8 8 8h7.758c-4.001 68.633-59.125 123.757-127.758 127.758z"/><path d="m464 32h-40v-8c0-13.234-10.766-24-24-24s-24 10.766-24 24v8h-240v-8c0-13.234-10.766-24-24-24s-24 10.766-24 24v8h-40c-17.645 0-32 14.355-32 32v336c0 17.645 14.355 32 32 32h48c4.418 0 8-3.582 8-8s-3.582-8-8-8h-48c-8.822 0-16-7.178-16-16v-272h448v272c0 8.822-7.178 16-16 16h-48c-4.418 0-8 3.582-8 8s3.582 8 8 8h48c17.645 0 32-14.355 32-32 0-14.641 0-319.924 0-336 0-17.645-14.355-32-32-32zm-72-8c0-4.411 3.589-8 8-8s8 3.589 8 8v40c0 4.411-3.589 8-8 8s-8-3.589-8-8zm-288 0c0-4.411 3.589-8 8-8s8 3.589 8 8v40c0 4.411-3.589 8-8 8s-8-3.589-8-8zm-72 88v-48c0-8.822 7.178-16 16-16h40v16c0 13.234 10.766 24 24 24s24-10.766 24-24v-16h240v16c0 13.234 10.766 24 24 24s24-10.766 24-24v-16h40c8.822 0 16 7.178 16 16v48z"/><path d="m224 320h-8c-13.233 0-24 10.767-24 24 0 4.418 3.582 8 8 8s8-3.582 8-8c0-4.411 3.589-8 8-8h8c7.711 0 10.929 9.812 4.755 14.75l-33.753 27.002c-1.898 1.519-3.002 3.818-3.002 6.248v8c0 4.418 3.582 8 8 8h40c4.418 0 8-3.582 8-8s-3.582-8-8-8h-27.194l25.944-20.755c17.955-14.362 8.024-43.245-14.75-43.245z"/><path d="m312 400c4.418 0 8-3.582 8-8 0-15.254 0-32.746 0-48 0-4.418-3.582-8-8-8s-8 3.582-8 8v16h-22.242l6.086-30.431c.866-4.333-1.943-8.547-6.276-9.414-4.334-.865-8.547 1.944-9.414 6.276l-8 40c-.989 4.948 2.8 9.569 7.845 9.569h32v16c.001 4.418 3.583 8 8.001 8z"/><path d="m340.855 267.152c-4.418 0-8 3.582-8 8v14.625l-3.315-3.315c-19.644-19.644-45.76-30.462-73.54-30.462-57.476 0-104 46.514-104 104 0 57.476 46.515 104 104 104 27.78 0 53.896-10.818 73.539-30.461 3.125-3.124 3.125-8.189 0-11.313-3.124-3.124-8.189-3.124-11.313 0-16.621 16.621-38.72 25.774-62.226 25.774-48.634 0-88-39.359-88-88 0-23.506 9.154-45.604 25.775-62.226 34.312-34.311 90.14-34.31 124.451 0l3.32 3.32h-14.633c-4.418 0-8 3.582-8 8s3.582 8 8 8h33.942c4.432 0 8-3.607 8-8v-33.943c0-4.418-3.582-7.999-8-7.999z"/></g></svg>