<svg id="Capa_1" enable-background="new 0 0 512 512" height="512" viewBox="0 0 512 512" width="512" xmlns="http://www.w3.org/2000/svg"><g><path d="m512 397.105c0 41.29-57.68 85.08-57.68 85.08s-57.67-43.79-57.67-85.08c0-31.86 25.82-57.68 57.67-57.68 31.86 0 57.68 25.82 57.68 57.68z" fill="#fe4a4a"/><path d="m512 397.105c0 41.29-57.68 85.08-57.68 85.08v-142.76c31.86 0 57.68 25.82 57.68 57.68z" fill="#e80b6a"/><path d="m512 152.585c0 55.74-45.34 101.08-101.07 101.08h-309.86c-39.19 0-71.07 31.88-71.07 71.07s31.88 71.07 71.07 71.07h187.57l-23.08-23.08 21.21-21.22 59.3 59.3-59.3 59.29-21.21-21.21 23.08-23.08h-187.57c-55.73 0-101.07-45.34-101.07-101.07s45.34-101.07 101.07-101.07h309.86c39.19 0 71.07-31.89 71.07-71.08 0-39.18-31.88-71.07-71.07-71.07h-374.22v-30h374.22c55.73 0 101.07 45.34 101.07 101.07z" fill="#224370"/><path d="m439.32 383.055h30v30h-30z" fill="#f3fdff"/><path d="m454.32 383.055h15v30h-15z" fill="#d7f3f7"/><path d="m73.41 66.515c0 20.28-16.43 36.71-36.7 36.71-20.28 0-36.71-16.43-36.71-36.71 0-20.27 16.43-36.7 36.71-36.7 20.27 0 36.7 16.43 36.7 36.7z" fill="#4abbef"/><path d="m73.41 66.515c0 20.28-16.43 36.71-36.7 36.71v-73.41c20.27 0 36.7 16.43 36.7 36.7z" fill="#009be5"/><path d="m329.14 165.52v146.28h-146.28v-146.28h58.14l15 14 15-14z" fill="#ffda2d"/><path d="m329.14 165.52v146.28h-73.14v-132.28l15-14z" fill="#fcbe00"/><path d="m241 165.52h30v44.14h-30z" fill="#ffa001"/><path d="m256 165.52h15v44.14h-15z" fill="#f87f02"/></g></svg>