<svg width="1440" height="1024" viewBox="0 0 1440 1024" fill="none" xmlns="http://www.w3.org/2000/svg">
<g clip-path="url(#clip0)">
<rect width="1440" height="1024" fill="#FFBB00"/>
<path d="M1135.77 351.45C1135.77 351.45 1145.31 352.815 1189.21 351.867C1201.09 359.373 1252.56 354.603 1272.85 352.609C1296.3 357.141 1307.9 345.322 1297.48 338.929C1294.3 336.941 1288.97 335.49 1281.26 335.192C1281.76 309.772 1221.38 301.405 1204.56 338.505C1195.65 331.012 1177.07 331.687 1175.85 341.817C1158.67 338.538 1145.1 342.241 1138.89 346.123C1135.64 348.217 1134.41 350.31 1135.77 351.45Z" fill="white"/>
<path opacity="0.08" d="M1135.77 351.45C1135.77 351.45 1145.32 352.815 1189.22 351.867C1201.09 359.373 1252.56 354.603 1272.85 352.609C1296.3 357.141 1307.89 345.322 1297.48 338.929C1297.56 340.519 1297.04 342.08 1296.03 343.275C1293.66 346.11 1289.17 347.283 1285.08 346.925C1280.99 346.567 1277.21 344.885 1273.79 342.95C1272.15 342.029 1270.47 341.016 1268.52 340.817C1265.04 340.466 1262.04 342.751 1259.61 344.865C1257.59 341.473 1252.49 339.638 1248.2 340.757C1243.9 341.877 1240.92 345.832 1241.55 349.588C1233.15 348.025 1224.58 352.205 1216.03 351.536C1206.25 350.774 1197.45 343.798 1187.88 345.574C1185.45 346.017 1183.21 347.011 1180.78 347.435C1178.35 347.859 1175.94 347.68 1173.5 347.634C1165.68 347.482 1157.86 348.528 1150.05 348.118C1146.27 347.943 1142.53 347.275 1138.91 346.13C1135.64 348.217 1134.41 350.31 1135.77 351.45Z" fill="#21252B"/>
<path d="M961.699 458.609H880.443V704.821H961.699V458.609Z" fill="#DADDDF"/>
<path d="M953.821 472.509H925.393V487.461H953.821V472.509Z" fill="#868A91"/>
<g opacity="0.2">
<g opacity="0.2">
<path opacity="0.2" d="M951.931 472.509H925.393V487.461H951.931V472.509Z" fill="white"/>
</g>
</g>
<path d="M920.94 472.509H892.512V487.461H920.94V472.509Z" fill="#868A91"/>
<g opacity="0.2">
<g opacity="0.2">
<path opacity="0.2" d="M919.05 472.509H892.512V487.461H919.05V472.509Z" fill="white"/>
</g>
</g>
<path d="M953.821 500.652H925.393V515.605H953.821V500.652Z" fill="#868A91"/>
<g opacity="0.2">
<g opacity="0.2">
<path opacity="0.2" d="M951.931 500.652H925.393V515.605H951.931V500.652Z" fill="white"/>
</g>
</g>
<path d="M920.94 500.652H892.512V515.605H920.94V500.652Z" fill="#868A91"/>
<g opacity="0.2">
<g opacity="0.2">
<path opacity="0.2" d="M919.05 500.652H892.512V515.605H919.05V500.652Z" fill="white"/>
</g>
</g>
<path d="M953.821 536.619H925.393V551.571H953.821V536.619Z" fill="#868A91"/>
<g opacity="0.2">
<g opacity="0.2">
<path opacity="0.2" d="M951.931 536.619H925.393V551.571H951.931V536.619Z" fill="white"/>
</g>
</g>
<path d="M920.94 536.619H892.512V551.571H920.94V536.619Z" fill="#868A91"/>
<g opacity="0.2">
<g opacity="0.2">
<path opacity="0.2" d="M919.05 536.619H892.512V551.571H919.05V536.619Z" fill="white"/>
</g>
</g>
<path d="M953.821 557.288H925.393V572.241H953.821V557.288Z" fill="#868A91"/>
<g opacity="0.2">
<g opacity="0.2">
<path opacity="0.2" d="M951.931 557.288H925.393V572.241H951.931V557.288Z" fill="white"/>
</g>
</g>
<path d="M920.94 557.288H892.512V572.241H920.94V557.288Z" fill="#868A91"/>
<g opacity="0.2">
<g opacity="0.2">
<path opacity="0.2" d="M919.05 557.288H892.512V572.241H919.05V557.288Z" fill="white"/>
</g>
</g>
<path d="M953.821 591.235H925.393V606.187H953.821V591.235Z" fill="#868A91"/>
<g opacity="0.2">
<g opacity="0.2">
<path opacity="0.2" d="M951.931 591.235H925.393V606.187H951.931V591.235Z" fill="white"/>
</g>
</g>
<path d="M920.94 591.235H892.512V606.187H920.94V591.235Z" fill="#868A91"/>
<g opacity="0.2">
<g opacity="0.2">
<path opacity="0.2" d="M919.05 591.235H892.512V606.187H919.05V591.235Z" fill="white"/>
</g>
</g>
<path d="M953.821 611.906H925.393V626.859H953.821V611.906Z" fill="#868A91"/>
<g opacity="0.2">
<g opacity="0.2">
<path opacity="0.2" d="M951.931 611.906H925.393V626.859H951.931V611.906Z" fill="white"/>
</g>
</g>
<path d="M920.94 611.906H892.512V626.859H920.94V611.906Z" fill="#868A91"/>
<g opacity="0.2">
<g opacity="0.2">
<path opacity="0.2" d="M919.05 611.906H892.512V626.859H919.05V611.906Z" fill="white"/>
</g>
</g>
<path d="M953.821 648.853H925.393V663.806H953.821V648.853Z" fill="#868A91"/>
<g opacity="0.2">
<g opacity="0.2">
<path opacity="0.2" d="M951.931 648.853H925.393V663.806H951.931V648.853Z" fill="white"/>
</g>
</g>
<path d="M920.94 648.853H892.512V663.806H920.94V648.853Z" fill="#868A91"/>
<g opacity="0.2">
<g opacity="0.2">
<path opacity="0.2" d="M919.05 648.853H892.512V663.806H919.05V648.853Z" fill="white"/>
</g>
</g>
<path d="M953.821 676.148H925.393V691.101H953.821V676.148Z" fill="#868A91"/>
<g opacity="0.2">
<g opacity="0.2">
<path opacity="0.2" d="M951.931 676.148H925.393V691.101H951.931V676.148Z" fill="white"/>
</g>
</g>
<path d="M920.94 676.148H892.512V691.101H920.94V676.148Z" fill="#868A91"/>
<g opacity="0.2">
<g opacity="0.2">
<path opacity="0.2" d="M919.05 676.148H892.512V691.101H919.05V676.148Z" fill="white"/>
</g>
</g>
<path d="M966.733 450.282H849.65V459.278H966.733V450.282Z" fill="#868A91"/>
<path d="M880.442 459.193H854.884V704.821H880.442V459.193Z" fill="#B2B6BB"/>
<path opacity="0.2" d="M961.697 524.409H854.884V526.979H961.697V524.409Z" fill="black"/>
<path opacity="0.2" d="M961.697 580.032H854.884V582.602H961.697V580.032Z" fill="black"/>
<path opacity="0.2" d="M961.697 636.153H854.884V638.723H961.697V636.153Z" fill="black"/>
<path opacity="0.2" d="M880.506 450.282H849.451V459.06H880.506V450.282Z" fill="black"/>
<path d="M765.536 432.449V704.821L765.447 704.655H727.743V432.449H765.536Z" fill="#B2B6BB"/>
<g opacity="0.5">
<g opacity="0.5">
<path opacity="0.5" d="M858.746 447.249H855.476V461.327H858.746V447.249Z" fill="white"/>
</g>
</g>
<g opacity="0.5">
<g opacity="0.5">
<path opacity="0.5" d="M858.746 470.933H855.476V485.011H858.746V470.933Z" fill="white"/>
</g>
</g>
<g opacity="0.5">
<g opacity="0.5">
<path opacity="0.5" d="M858.746 495.558H855.476V509.636H858.746V495.558Z" fill="white"/>
</g>
</g>
<g opacity="0.5">
<g opacity="0.5">
<path opacity="0.5" d="M858.746 520.183H855.476V534.261H858.746V520.183Z" fill="white"/>
</g>
</g>
<g opacity="0.5">
<g opacity="0.5">
<path opacity="0.5" d="M858.746 544.808H855.476V558.886H858.746V544.808Z" fill="white"/>
</g>
</g>
<g opacity="0.5">
<g opacity="0.5">
<path opacity="0.5" d="M858.746 569.433H855.476V583.511H858.746V569.433Z" fill="white"/>
</g>
</g>
<g opacity="0.5">
<g opacity="0.5">
<path opacity="0.5" d="M858.746 596.57H855.476V610.648H858.746V596.57Z" fill="white"/>
</g>
</g>
<g opacity="0.5">
<g opacity="0.5">
<path opacity="0.5" d="M858.746 623.712H855.476V637.79H858.746V623.712Z" fill="white"/>
</g>
</g>
<g opacity="0.5">
<g opacity="0.5">
<path opacity="0.5" d="M858.746 650.848H855.476V664.925H858.746V650.848Z" fill="white"/>
</g>
</g>
<g opacity="0.5">
<g opacity="0.5">
<path opacity="0.5" d="M858.746 677.983H855.476V692.061H858.746V677.983Z" fill="white"/>
</g>
</g>
<path d="M867.653 428.486H765.535V704.821H867.653V428.486Z" fill="#4D61FC"/>
<path d="M756.196 447.241H727.743V461.326H756.196V447.241Z" fill="#B2B6BB"/>
<path d="M756.196 470.409H727.743V484.487H756.196V470.409Z" fill="#B2B6BB"/>
<path d="M756.196 493.577H727.743V507.655H756.196V493.577Z" fill="#B2B6BB"/>
<path d="M756.196 520.183H727.743V534.261H756.196V520.183Z" fill="#B2B6BB"/>
<path d="M756.196 544.808H727.743V558.886H756.196V544.808Z" fill="#B2B6BB"/>
<path d="M756.196 569.433H727.743V583.511H756.196V569.433Z" fill="#B2B6BB"/>
<path d="M756.196 596.568H727.743V610.646H756.196V596.568Z" fill="#B2B6BB"/>
<path d="M756.196 623.705H727.743V637.783H756.196V623.705Z" fill="#B2B6BB"/>
<path d="M734.513 664.925H756.196V650.841H730.823" fill="#B2B6BB"/>
<g opacity="0.3">
<g opacity="0.3">
<path opacity="0.3" d="M756.194 447.241H727.741V461.326H756.194V447.241Z" fill="white"/>
</g>
</g>
<g opacity="0.3">
<g opacity="0.3">
<path opacity="0.3" d="M756.194 470.409H727.741V484.487H756.194V470.409Z" fill="white"/>
</g>
</g>
<g opacity="0.3">
<g opacity="0.3">
<path opacity="0.3" d="M756.194 493.575H727.741V507.654H756.194V493.575Z" fill="white"/>
</g>
</g>
<g opacity="0.3">
<g opacity="0.3">
<path opacity="0.3" d="M756.194 520.181H727.741V534.26H756.194V520.181Z" fill="white"/>
</g>
</g>
<g opacity="0.3">
<g opacity="0.3">
<path opacity="0.3" d="M756.194 544.807H727.741V558.885H756.194V544.807Z" fill="white"/>
</g>
</g>
<g opacity="0.3">
<g opacity="0.3">
<path opacity="0.3" d="M756.194 569.432H727.741V583.51H756.194V569.432Z" fill="white"/>
</g>
</g>
<g opacity="0.3">
<g opacity="0.3">
<path opacity="0.3" d="M756.194 596.568H727.741V610.646H756.194V596.568Z" fill="white"/>
</g>
</g>
<g opacity="0.3">
<g opacity="0.3">
<path opacity="0.3" d="M756.194 623.704H727.741V637.782H756.194V623.704Z" fill="white"/>
</g>
</g>
<g opacity="0.3">
<g opacity="0.3">
<path opacity="0.3" d="M756.194 664.925H727.856L727.716 650.841H756.194V664.925Z" fill="white"/>
</g>
</g>
<g opacity="0.3">
<g opacity="0.3">
<path opacity="0.3" d="M727.729 677.983H756.194V692.061H727.868L727.729 677.983Z" fill="white"/>
</g>
</g>
<path d="M867.653 428.486H765.535V704.821H867.653V428.486Z" fill="#DADDDF"/>
<path d="M858.744 447.249H774.448V461.327H858.744V447.249Z" fill="#868A91"/>
<g opacity="0.2">
<g opacity="0.2">
<path opacity="0.2" d="M855.474 447.249H774.448V461.327H855.474V447.249Z" fill="white"/>
</g>
</g>
<path d="M858.744 470.933H774.448V485.011H858.744V470.933Z" fill="#868A91"/>
<g opacity="0.2">
<g opacity="0.2">
<path opacity="0.2" d="M855.474 470.933H774.448V485.011H855.474V470.933Z" fill="white"/>
</g>
</g>
<path d="M858.744 495.558H774.448V509.636H858.744V495.558Z" fill="#868A91"/>
<g opacity="0.2">
<g opacity="0.2">
<path opacity="0.2" d="M855.474 495.558H774.448V509.636H855.474V495.558Z" fill="white"/>
</g>
</g>
<path d="M858.744 520.183H774.448V534.261H858.744V520.183Z" fill="#868A91"/>
<g opacity="0.2">
<g opacity="0.2">
<path opacity="0.2" d="M855.474 520.183H774.448V534.261H855.474V520.183Z" fill="white"/>
</g>
</g>
<path d="M858.744 544.808H774.448V558.886H858.744V544.808Z" fill="#868A91"/>
<g opacity="0.2">
<g opacity="0.2">
<path opacity="0.2" d="M855.474 544.808H774.448V558.886H855.474V544.808Z" fill="white"/>
</g>
</g>
<path d="M858.744 569.433H774.448V583.511H858.744V569.433Z" fill="#868A91"/>
<g opacity="0.2">
<g opacity="0.2">
<path opacity="0.2" d="M855.474 569.433H774.448V583.511H855.474V569.433Z" fill="white"/>
</g>
</g>
<path d="M858.744 596.568H774.448V610.646H858.744V596.568Z" fill="#868A91"/>
<g opacity="0.2">
<g opacity="0.2">
<path opacity="0.2" d="M855.474 596.568H774.448V610.646H855.474V596.568Z" fill="white"/>
</g>
</g>
<path d="M858.744 623.712H774.448V637.79H858.744V623.712Z" fill="#868A91"/>
<g opacity="0.2">
<g opacity="0.2">
<path opacity="0.2" d="M855.474 623.712H774.448V637.79H855.474V623.712Z" fill="white"/>
</g>
</g>
<path d="M858.744 650.847H774.448V664.925H858.744V650.847Z" fill="#868A91"/>
<g opacity="0.2">
<g opacity="0.2">
<path opacity="0.2" d="M855.474 650.847H774.448V664.925H855.474V650.847Z" fill="white"/>
</g>
</g>
<path d="M858.744 677.983H774.448V692.061H858.744V677.983Z" fill="#868A91"/>
<g opacity="0.2">
<g opacity="0.2">
<path opacity="0.2" d="M855.474 677.983H774.448V692.061H855.474V677.983Z" fill="white"/>
</g>
</g>
<path d="M765.535 420.278H729.918V425.697H765.535V420.278Z" fill="#4D61FC"/>
<path d="M867.653 418.959H729.918V425.703H867.653V418.959Z" fill="#DADDDF"/>
<path d="M870.542 425.703H725.089V432.447H870.542V425.703Z" fill="#B2B6BB"/>
<path d="M870.542 413.54H725.089V420.284H870.542V413.54Z" fill="#B2B6BB"/>
<g opacity="0.05">
<g opacity="0.05">
<path opacity="0.05" d="M870.542 425.703H725.089V432.447H870.542V425.703Z" fill="#B2B6BB"/>
</g>
</g>
<g opacity="0.05">
<g opacity="0.05">
<path opacity="0.05" d="M870.542 413.54H725.089V420.284H870.542V413.54Z" fill="#B2B6BB"/>
</g>
</g>
<g opacity="0.2">
<g opacity="0.2">
<path opacity="0.2" d="M765.535 425.703H725.089V432.447H765.535V425.703Z" fill="black"/>
</g>
</g>
<g opacity="0.2">
<g opacity="0.2">
<path opacity="0.2" d="M765.535 413.54H725.089V420.284H765.535V413.54Z" fill="black"/>
</g>
</g>
<g opacity="0.2">
<g opacity="0.2">
<path opacity="0.2" d="M765.535 420.278H729.918V425.697H765.535V420.278Z" fill="black"/>
</g>
</g>
<path d="M1280.3 432.449V704.821L1280.21 704.655H1242.5V432.449H1280.3Z" fill="#B2B6BB"/>
<g opacity="0.5">
<g opacity="0.5">
<path opacity="0.5" d="M1373.5 447.249H1370.23V461.327H1373.5V447.249Z" fill="white"/>
</g>
</g>
<g opacity="0.5">
<g opacity="0.5">
<path opacity="0.5" d="M1373.5 470.933H1370.23V485.011H1373.5V470.933Z" fill="white"/>
</g>
</g>
<g opacity="0.5">
<g opacity="0.5">
<path opacity="0.5" d="M1373.5 495.558H1370.23V509.636H1373.5V495.558Z" fill="white"/>
</g>
</g>
<g opacity="0.5">
<g opacity="0.5">
<path opacity="0.5" d="M1373.5 520.183H1370.23V534.261H1373.5V520.183Z" fill="white"/>
</g>
</g>
<g opacity="0.5">
<g opacity="0.5">
<path opacity="0.5" d="M1373.5 544.808H1370.23V558.886H1373.5V544.808Z" fill="white"/>
</g>
</g>
<g opacity="0.5">
<g opacity="0.5">
<path opacity="0.5" d="M1373.5 569.433H1370.23V583.511H1373.5V569.433Z" fill="white"/>
</g>
</g>
<g opacity="0.5">
<g opacity="0.5">
<path opacity="0.5" d="M1373.5 596.57H1370.23V610.648H1373.5V596.57Z" fill="white"/>
</g>
</g>
<g opacity="0.5">
<g opacity="0.5">
<path opacity="0.5" d="M1373.5 623.712H1370.23V637.79H1373.5V623.712Z" fill="white"/>
</g>
</g>
<g opacity="0.5">
<g opacity="0.5">
<path opacity="0.5" d="M1373.5 650.848H1370.23V664.925H1373.5V650.848Z" fill="white"/>
</g>
</g>
<g opacity="0.5">
<g opacity="0.5">
<path opacity="0.5" d="M1373.5 677.983H1370.23V692.061H1373.5V677.983Z" fill="white"/>
</g>
</g>
<path d="M1382.42 428.486H1280.3V704.821H1382.42V428.486Z" fill="#4D61FC"/>
<path d="M1270.95 447.241H1242.5V461.326H1270.95V447.241Z" fill="#B2B6BB"/>
<path d="M1270.95 470.409H1242.5V484.487H1270.95V470.409Z" fill="#B2B6BB"/>
<path d="M1270.95 493.577H1242.5V507.655H1270.95V493.577Z" fill="#B2B6BB"/>
<path d="M1270.95 520.183H1242.5V534.261H1270.95V520.183Z" fill="#B2B6BB"/>
<path d="M1270.95 544.808H1242.5V558.886H1270.95V544.808Z" fill="#B2B6BB"/>
<path d="M1270.95 569.433H1242.5V583.511H1270.95V569.433Z" fill="#B2B6BB"/>
<path d="M1270.95 596.568H1242.5V610.646H1270.95V596.568Z" fill="#B2B6BB"/>
<path d="M1270.95 623.705H1242.5V637.783H1270.95V623.705Z" fill="#B2B6BB"/>
<path d="M1249.28 664.925H1270.95V650.841H1245.59" fill="#B2B6BB"/>
<g opacity="0.3">
<g opacity="0.3">
<path opacity="0.3" d="M1270.95 447.241H1242.5V461.326H1270.95V447.241Z" fill="white"/>
</g>
</g>
<g opacity="0.3">
<g opacity="0.3">
<path opacity="0.3" d="M1270.95 470.409H1242.5V484.487H1270.95V470.409Z" fill="white"/>
</g>
</g>
<g opacity="0.3">
<g opacity="0.3">
<path opacity="0.3" d="M1270.95 493.575H1242.5V507.654H1270.95V493.575Z" fill="white"/>
</g>
</g>
<g opacity="0.3">
<g opacity="0.3">
<path opacity="0.3" d="M1270.95 520.181H1242.5V534.26H1270.95V520.181Z" fill="white"/>
</g>
</g>
<g opacity="0.3">
<g opacity="0.3">
<path opacity="0.3" d="M1270.95 544.807H1242.5V558.885H1270.95V544.807Z" fill="white"/>
</g>
</g>
<g opacity="0.3">
<g opacity="0.3">
<path opacity="0.3" d="M1270.95 569.432H1242.5V583.51H1270.95V569.432Z" fill="white"/>
</g>
</g>
<g opacity="0.3">
<g opacity="0.3">
<path opacity="0.3" d="M1270.95 596.568H1242.5V610.646H1270.95V596.568Z" fill="white"/>
</g>
</g>
<g opacity="0.3">
<g opacity="0.3">
<path opacity="0.3" d="M1270.95 623.704H1242.5V637.782H1270.95V623.704Z" fill="white"/>
</g>
</g>
<g opacity="0.3">
<g opacity="0.3">
<path opacity="0.3" d="M1270.95 664.925H1242.62L1242.48 650.841H1270.95V664.925Z" fill="white"/>
</g>
</g>
<g opacity="0.3">
<g opacity="0.3">
<path opacity="0.3" d="M1242.49 677.983H1270.95V692.061H1242.63L1242.49 677.983Z" fill="white"/>
</g>
</g>
<path d="M1382.42 428.486H1280.3V704.821H1382.42V428.486Z" fill="#DADDDF"/>
<path d="M1373.51 447.249H1289.21V461.327H1373.51V447.249Z" fill="#868A91"/>
<g opacity="0.2">
<g opacity="0.2">
<path opacity="0.2" d="M1370.24 447.249H1289.21V461.327H1370.24V447.249Z" fill="white"/>
</g>
</g>
<path d="M1373.51 470.933H1289.21V485.011H1373.51V470.933Z" fill="#868A91"/>
<g opacity="0.2">
<g opacity="0.2">
<path opacity="0.2" d="M1370.24 470.933H1289.21V485.011H1370.24V470.933Z" fill="white"/>
</g>
</g>
<path d="M1373.51 495.558H1289.21V509.636H1373.51V495.558Z" fill="#868A91"/>
<g opacity="0.2">
<g opacity="0.2">
<path opacity="0.2" d="M1370.24 495.558H1289.21V509.636H1370.24V495.558Z" fill="white"/>
</g>
</g>
<path d="M1373.51 520.183H1289.21V534.261H1373.51V520.183Z" fill="#868A91"/>
<g opacity="0.2">
<g opacity="0.2">
<path opacity="0.2" d="M1370.24 520.183H1289.21V534.261H1370.24V520.183Z" fill="white"/>
</g>
</g>
<path d="M1373.51 544.808H1289.21V558.886H1373.51V544.808Z" fill="#868A91"/>
<g opacity="0.2">
<g opacity="0.2">
<path opacity="0.2" d="M1370.24 544.808H1289.21V558.886H1370.24V544.808Z" fill="white"/>
</g>
</g>
<path d="M1373.51 569.433H1289.21V583.511H1373.51V569.433Z" fill="#868A91"/>
<g opacity="0.2">
<g opacity="0.2">
<path opacity="0.2" d="M1370.24 569.433H1289.21V583.511H1370.24V569.433Z" fill="white"/>
</g>
</g>
<path d="M1373.51 596.568H1289.21V610.646H1373.51V596.568Z" fill="#868A91"/>
<g opacity="0.2">
<g opacity="0.2">
<path opacity="0.2" d="M1370.24 596.568H1289.21V610.646H1370.24V596.568Z" fill="white"/>
</g>
</g>
<path d="M1373.51 623.712H1289.21V637.79H1373.51V623.712Z" fill="#868A91"/>
<g opacity="0.2">
<g opacity="0.2">
<path opacity="0.2" d="M1370.24 623.712H1289.21V637.79H1370.24V623.712Z" fill="white"/>
</g>
</g>
<path d="M1373.51 650.847H1289.21V664.925H1373.51V650.847Z" fill="#868A91"/>
<g opacity="0.2">
<g opacity="0.2">
<path opacity="0.2" d="M1370.24 650.847H1289.21V664.925H1370.24V650.847Z" fill="white"/>
</g>
</g>
<path d="M1373.51 677.983H1289.21V692.061H1373.51V677.983Z" fill="#868A91"/>
<g opacity="0.2">
<g opacity="0.2">
<path opacity="0.2" d="M1370.24 677.983H1289.21V692.061H1370.24V677.983Z" fill="white"/>
</g>
</g>
<path d="M1280.3 420.278H1244.68V425.697H1280.3V420.278Z" fill="#4D61FC"/>
<path d="M1382.42 418.959H1244.68V425.703H1382.42V418.959Z" fill="#DADDDF"/>
<path d="M1385.31 425.703H1239.85V432.447H1385.31V425.703Z" fill="#B2B6BB"/>
<path d="M1385.31 413.54H1239.85V420.284H1385.31V413.54Z" fill="#B2B6BB"/>
<g opacity="0.05">
<g opacity="0.05">
<path opacity="0.05" d="M1385.31 425.703H1239.85V432.447H1385.31V425.703Z" fill="#B2B6BB"/>
</g>
</g>
<g opacity="0.05">
<g opacity="0.05">
<path opacity="0.05" d="M1385.31 413.54H1239.85V420.284H1385.31V413.54Z" fill="#B2B6BB"/>
</g>
</g>
<g opacity="0.2">
<g opacity="0.2">
<path opacity="0.2" d="M1280.3 425.703H1239.85V432.447H1280.3V425.703Z" fill="black"/>
</g>
</g>
<g opacity="0.2">
<g opacity="0.2">
<path opacity="0.2" d="M1280.3 413.54H1239.85V420.284H1280.3V413.54Z" fill="black"/>
</g>
</g>
<g opacity="0.2">
<g opacity="0.2">
<path opacity="0.2" d="M1280.3 420.278H1244.68V425.697H1280.3V420.278Z" fill="black"/>
</g>
</g>
<path d="M1157.71 471.94L1154.01 469.064C1153.55 468.708 1153.02 468.463 1152.46 468.348C1151.89 468.234 1151.31 468.252 1150.76 468.402L1141.69 470.846L1092.37 451.793L1069.97 425.293L1056.37 440.358L1078.97 464.029C1080.48 465.717 1082.42 466.917 1084.57 467.488L1139.23 480.963C1145.59 482.725 1150.84 477.319 1150.84 477.319L1155.87 481.102L1155.28 482.805C1155.05 483.447 1154.62 483.984 1154.04 484.315L1148.81 487.343C1148.56 487.487 1148.37 487.723 1148.27 488.005C1148.22 488.168 1148.2 488.34 1148.22 488.511C1148.23 488.682 1148.29 488.847 1148.37 488.994C1148.45 489.143 1148.56 489.271 1148.7 489.371C1148.83 489.471 1148.98 489.541 1149.14 489.575L1149.43 489.635C1149.64 489.677 1149.86 489.656 1150.07 489.575L1156.89 486.846C1157.4 486.644 1157.85 486.334 1158.23 485.937C1158.61 485.54 1158.9 485.064 1159.09 484.54L1161.52 477.915L1157.71 471.94Z" fill="#FC9D9D"/>
<path opacity="0.15" d="M1139.08 479.067L1082.83 462.339L1059.8 436.098L1055.73 439.8L1078.96 464.029C1080.47 465.715 1082.42 466.916 1084.56 467.487L1139.22 480.962C1144.44 482.413 1148.93 479.014 1150.36 477.761C1143.29 481.259 1139.08 479.067 1139.08 479.067Z" fill="black"/>
<path d="M1053.03 402.203L1072.87 425.576L1054.91 442.106L1037.66 418.951L1053.03 402.203Z" fill="#4D61FC"/>
<path d="M1053.78 440.444L1071.64 424.134L1072.91 425.651L1055.09 442.213L1053.78 440.444Z" fill="#F4F4F4"/>
<path opacity="0.1" d="M1157.71 471.938L1154.01 469.063C1153.55 468.707 1153.02 468.462 1152.46 468.348C1151.89 468.232 1151.32 468.251 1150.76 468.401L1141.69 470.845L1092.37 451.792L1071.37 426.961L1072.88 425.576L1053.05 402.203L1037.66 418.958L1054.91 442.106L1056.53 440.615L1078.98 464.028C1080.49 465.715 1082.44 466.916 1084.59 467.486L1139.24 480.962C1139.53 481.048 1139.82 481.107 1140.11 481.16H1140.28C1140.56 481.207 1140.83 481.24 1141.1 481.26H1141.26C1141.52 481.26 1141.78 481.26 1142.03 481.26H1142.1C1142.37 481.26 1142.63 481.26 1142.89 481.207H1143.06C1143.31 481.207 1143.56 481.134 1143.8 481.087H1143.94C1144.17 481.041 1144.39 480.988 1144.58 480.928H1144.69C1144.92 480.862 1145.14 480.789 1145.37 480.716L1145.54 480.657C1145.75 480.577 1145.96 480.498 1146.17 480.405L1146.29 480.359L1146.84 480.107L1146.95 480.054L1147.52 479.756L1147.65 479.683C1147.83 479.584 1148.01 479.484 1148.17 479.378H1148.24L1148.69 479.08L1148.78 479.027L1149.26 478.649L1149.34 478.59C1149.62 478.384 1149.88 478.186 1150.09 478.013C1150.58 477.603 1150.86 477.351 1150.86 477.351L1151.02 477.47L1155.88 481.134L1155.29 482.836C1155.07 483.479 1154.63 484.016 1154.06 484.347L1148.83 487.375C1148.57 487.52 1148.38 487.755 1148.28 488.037C1148.23 488.201 1148.21 488.373 1148.23 488.543C1148.25 488.714 1148.3 488.878 1148.38 489.027C1148.46 489.175 1148.58 489.303 1148.71 489.403C1148.84 489.503 1149 489.573 1149.16 489.607L1149.44 489.667C1149.66 489.709 1149.88 489.688 1150.08 489.607L1156.9 486.845C1157.4 486.643 1157.85 486.333 1158.23 485.936C1158.61 485.539 1158.9 485.063 1159.09 484.539L1161.52 477.914L1157.71 471.938Z" fill="black"/>
<path d="M1114.85 622.114L1114.82 636.762L1133.16 636.291L1135.04 619.179L1114.85 622.114Z" fill="#FC9D9D"/>
<path opacity="0.15" d="M1134.35 624.056L1124.33 624.964C1123.48 625.274 1122.74 625.85 1122.22 626.613C1121.7 627.376 1121.42 628.288 1121.42 629.224V636.591L1114.85 636.783V622.605L1134.58 622.115L1134.35 624.056Z" fill="black"/>
<path d="M1113.67 634.828L1113.79 649.622C1113.79 650.188 1113.89 650.75 1114.09 651.278C1114.28 651.793 1114.56 652.267 1114.91 652.676C1115.26 653.068 1115.68 653.382 1116.14 653.597C1116.6 653.81 1117.09 653.918 1117.59 653.915L1161.26 653.504C1161.47 653.5 1161.68 653.45 1161.87 653.357C1162.06 653.263 1162.23 653.128 1162.37 652.961C1162.67 652.607 1162.83 652.148 1162.82 651.676C1162.81 649.977 1162.32 648.319 1161.43 646.899C1160.58 645.544 1159.34 644.508 1157.89 643.944L1147.99 640.301L1135.43 629.237C1134.82 628.677 1134.02 628.382 1133.21 628.413C1132.4 628.444 1131.63 628.798 1131.06 629.403L1125.57 634.888C1125.19 635.281 1124.71 635.558 1124.18 635.69C1123.67 635.817 1123.14 635.794 1122.64 635.623L1115.6 633.172C1115.38 633.094 1115.14 633.078 1114.91 633.126C1114.67 633.171 1114.45 633.278 1114.27 633.437C1114.08 633.601 1113.92 633.813 1113.83 634.053C1113.72 634.296 1113.67 634.561 1113.67 634.828Z" fill="#4D61FC"/>
<path d="M1113.67 634.828L1113.79 649.622C1113.79 650.188 1113.89 650.75 1114.09 651.278C1114.28 651.793 1114.56 652.267 1114.91 652.676C1115.26 653.068 1115.68 653.382 1116.14 653.597C1116.6 653.81 1117.09 653.918 1117.59 653.915L1161.26 653.504C1161.47 653.5 1161.68 653.45 1161.87 653.357C1162.06 653.263 1162.23 653.128 1162.37 652.961C1162.67 652.607 1162.83 652.148 1162.82 651.676C1162.81 649.977 1162.32 648.319 1161.43 646.899C1160.58 645.544 1159.34 644.508 1157.89 643.944L1147.99 640.301L1135.43 629.237C1134.82 628.677 1134.02 628.382 1133.21 628.413C1132.4 628.444 1131.63 628.798 1131.06 629.403L1125.57 634.888C1125.19 635.281 1124.71 635.558 1124.18 635.69C1123.67 635.817 1123.14 635.794 1122.64 635.623L1115.6 633.172C1115.38 633.094 1115.14 633.078 1114.91 633.126C1114.67 633.171 1114.45 633.278 1114.27 633.437C1114.08 633.601 1113.92 633.813 1113.83 634.053C1113.72 634.296 1113.67 634.561 1113.67 634.828Z" fill="#3F4249"/>
<path d="M1117.61 653.908L1161.27 653.497C1161.48 653.492 1161.68 653.44 1161.87 653.347C1162.06 653.253 1162.23 653.119 1162.37 652.954C1162.67 652.599 1162.83 652.14 1162.82 651.668C1162.83 651.058 1162.76 650.449 1162.61 649.86L1113.88 650.31C1114.02 651.296 1114.47 652.205 1115.15 652.901C1115.81 653.545 1116.68 653.905 1117.59 653.908H1117.61Z" fill="#21252B"/>
<path opacity="0.3" d="M1117.61 653.908L1161.27 653.497C1161.48 653.492 1161.68 653.44 1161.87 653.347C1162.06 653.253 1162.23 653.119 1162.37 652.954C1162.67 652.599 1162.83 652.14 1162.82 651.668C1162.83 651.058 1162.76 650.449 1162.61 649.86L1113.88 650.31C1114.02 651.296 1114.47 652.205 1115.15 652.901C1115.81 653.545 1116.68 653.905 1117.59 653.908H1117.61Z" fill="black"/>
<path d="M1135.2 635.145C1135.15 635.144 1135.1 635.133 1135.06 635.112C1135.01 635.092 1134.98 635.062 1134.94 635.026C1134.9 634.984 1134.87 634.935 1134.85 634.88C1134.83 634.825 1134.82 634.767 1134.82 634.708C1134.82 634.647 1134.83 634.587 1134.85 634.529C1134.87 634.477 1134.9 634.427 1134.94 634.383L1137.56 631.071C1137.59 631.028 1137.63 630.993 1137.68 630.969C1137.73 630.946 1137.78 630.932 1137.84 630.932C1137.94 630.936 1138.04 630.984 1138.12 631.064C1138.2 631.156 1138.24 631.273 1138.24 631.395C1138.24 631.513 1138.2 631.626 1138.12 631.713L1135.51 635.026C1135.42 635.096 1135.31 635.14 1135.2 635.152V635.145Z" fill="#F4F4F4"/>
<path d="M1137.31 636.987C1137.26 636.987 1137.21 636.978 1137.17 636.958C1137.13 636.939 1137.09 636.911 1137.05 636.875C1137.02 636.833 1136.99 636.784 1136.97 636.729C1136.96 636.672 1136.96 636.614 1136.97 636.557C1136.96 636.496 1136.96 636.433 1136.97 636.371C1136.98 636.318 1137.01 636.269 1137.05 636.226L1139.67 632.913C1139.7 632.872 1139.75 632.839 1139.79 632.816C1139.84 632.793 1139.89 632.781 1139.94 632.781C1140.05 632.783 1140.15 632.828 1140.22 632.906C1140.3 632.996 1140.34 633.112 1140.34 633.231C1140.34 633.35 1140.3 633.466 1140.23 633.556L1137.61 636.868C1137.52 636.931 1137.42 636.971 1137.31 636.987Z" fill="#F4F4F4"/>
<path d="M1139.39 638.849C1139.3 638.847 1139.2 638.806 1139.14 638.737C1139.06 638.646 1139.02 638.531 1139.02 638.412C1139.02 638.294 1139.06 638.179 1139.13 638.087L1141.75 634.775C1141.78 634.736 1141.83 634.704 1141.87 634.682C1141.92 634.661 1141.97 634.65 1142.02 634.65C1142.07 634.65 1142.12 634.661 1142.17 634.682C1142.21 634.704 1142.25 634.736 1142.29 634.775C1142.36 634.86 1142.4 634.968 1142.4 635.08C1142.41 635.192 1142.38 635.302 1142.31 635.391L1139.69 638.704C1139.61 638.781 1139.5 638.824 1139.39 638.823V638.849Z" fill="#F4F4F4"/>
<path opacity="0.15" d="M1162.82 651.668C1162.83 651.273 1162.8 650.878 1162.73 650.489C1162.57 649.209 1162.14 647.982 1161.46 646.898C1160.62 645.542 1159.37 644.506 1157.92 643.943L1147.99 640.299L1142.34 635.337C1142.37 635.272 1142.38 635.199 1142.38 635.125C1142.38 635.013 1142.34 634.905 1142.27 634.82C1142.23 634.781 1142.19 634.75 1142.14 634.728C1142.1 634.706 1142.05 634.695 1142 634.695C1141.95 634.695 1141.9 634.706 1141.85 634.728C1141.81 634.75 1141.76 634.781 1141.73 634.82L1140.26 633.495C1140.3 633.422 1140.33 633.336 1140.33 633.25C1140.33 633.131 1140.29 633.015 1140.21 632.926C1140.14 632.847 1140.04 632.802 1139.93 632.8C1139.88 632.801 1139.83 632.812 1139.78 632.835C1139.73 632.858 1139.69 632.891 1139.66 632.932L1138.17 631.607C1138.22 631.535 1138.24 631.453 1138.24 631.369C1138.25 631.247 1138.2 631.128 1138.12 631.038C1138.05 630.957 1137.95 630.91 1137.84 630.905C1137.79 630.906 1137.74 630.918 1137.69 630.943C1137.64 630.967 1137.6 631.001 1137.56 631.044L1135.45 629.183C1135.04 628.824 1134.55 628.572 1134.03 628.447L1135.06 619.126L1114.87 622.061V633.098C1114.67 633.151 1114.48 633.248 1114.32 633.383C1114.12 633.547 1113.97 633.759 1113.87 633.999C1113.76 634.243 1113.71 634.507 1113.71 634.774L1113.84 649.568C1113.84 650.134 1113.94 650.696 1114.14 651.224C1114.32 651.739 1114.6 652.213 1114.96 652.622C1115.3 653.014 1115.72 653.327 1116.19 653.543C1116.64 653.755 1117.13 653.864 1117.63 653.861L1161.31 653.45C1161.52 653.446 1161.73 653.396 1161.92 653.302C1162.11 653.209 1162.28 653.074 1162.42 652.907C1162.72 652.552 1162.88 652.094 1162.87 651.621L1162.82 651.668Z" fill="black"/>
<path d="M1064.2 490.469L1128.69 509.913C1128.69 509.913 1143.86 513.358 1142.62 524.594L1135.74 623.022H1128.69L1118.84 527.516L1056.88 497.511L1064.2 490.469Z" fill="#21252B"/>
<path opacity="0.3" d="M1064.2 490.469L1128.69 509.913C1128.69 509.913 1143.86 513.358 1142.62 524.594L1135.74 623.022H1128.69L1118.84 527.516L1056.88 497.511L1064.2 490.469Z" fill="black"/>
<path d="M1136.53 623.075H1113.63V616.45H1137.17L1136.53 623.075Z" fill="#21252B"/>
<path opacity="0.4" d="M1136.53 623.075H1113.63V616.45H1137.17L1136.53 623.075Z" fill="black"/>
<path opacity="0.3" d="M1120.63 616.45H1113.63V623.075H1120.63V616.45Z" fill="black"/>
<path d="M898.13 595.455L893.135 594.236C891.676 593.877 890.413 592.929 889.624 591.602C888.836 590.273 888.586 588.674 888.929 587.154L894.147 573.857C894.695 572.447 895.74 571.308 897.068 570.673C898.397 570.039 899.908 569.958 901.292 570.445L904.371 571.247L898.13 595.455Z" fill="#B2B6BB"/>
<path d="M1254.04 705.159C1280.66 703.827 1301.2 680.282 1299.92 652.563C1298.64 624.846 1276.03 603.456 1249.41 604.787C1222.79 606.119 1202.25 629.668 1203.52 657.385C1204.8 685.098 1227.42 706.49 1254.04 705.159Z" fill="#21252B"/>
<path d="M1217.85 654.477C1217.75 661.452 1219.64 668.304 1223.29 674.154C1226.93 680.01 1232.16 684.608 1238.3 687.371C1244.45 690.133 1251.26 690.935 1257.85 689.67C1264.43 688.411 1270.52 685.145 1275.32 680.282C1280.13 675.419 1283.44 669.185 1284.84 662.361C1286.24 655.54 1285.67 648.438 1283.2 641.956C1280.72 635.473 1276.45 629.9 1270.94 625.941C1265.42 621.983 1258.9 619.816 1252.2 619.716C1247.76 619.649 1243.34 620.495 1239.21 622.207C1235.07 623.917 1231.3 626.459 1228.11 629.687C1224.92 632.915 1222.37 636.766 1220.61 641.019C1218.85 645.273 1217.91 649.845 1217.85 654.477Z" fill="#FAFAFA"/>
<path d="M1231.09 654.677C1231.03 658.925 1232.19 663.097 1234.41 666.654C1236.64 670.219 1239.82 673.021 1243.56 674.697C1247.31 676.373 1251.45 676.857 1255.47 676.088C1259.48 675.313 1263.18 673.319 1266.11 670.358C1269.03 667.396 1271.04 663.6 1271.9 659.442C1272.75 655.288 1272.4 650.964 1270.89 647.016C1269.38 643.069 1266.78 639.676 1263.42 637.266C1260.06 634.856 1256.09 633.537 1252.01 633.477C1249.3 633.436 1246.61 633.951 1244.09 634.995C1241.57 636.039 1239.27 637.589 1237.33 639.559C1235.38 641.527 1233.83 643.876 1232.76 646.47C1231.69 649.065 1231.12 651.853 1231.09 654.677Z" fill="#868A91"/>
<path d="M1237.3 624.236L1235.24 625.363C1232.53 626.838 1231.48 630.317 1232.9 633.134L1245.28 657.762C1246.69 660.579 1250.04 661.666 1252.75 660.193L1254.81 659.065C1257.52 657.591 1258.56 654.112 1257.15 651.295L1244.77 626.666C1243.35 623.849 1240.01 622.762 1237.3 624.236Z" fill="#3F4249"/>
<path d="M1228.79 581.337C1228.79 581.337 1278.19 565.781 1298.62 621.663L1195.27 654.98L1228.79 581.337Z" fill="black"/>
<path d="M956.325 705.159C982.944 703.827 1003.49 680.282 1002.21 652.563C1000.93 624.846 978.314 603.456 951.695 604.787C925.076 606.119 904.534 629.668 905.812 657.385C907.091 685.098 929.706 706.49 956.325 705.159Z" fill="#21252B"/>
<path d="M920.137 654.478C920.041 661.452 921.933 668.304 925.575 674.154C929.217 680.01 934.445 684.608 940.597 687.371C946.749 690.133 953.549 690.935 960.138 689.67C966.727 688.411 972.809 685.145 977.614 680.282C982.419 675.419 985.731 669.185 987.132 662.361C988.534 655.54 987.961 648.438 985.487 641.956C983.012 635.473 978.747 629.9 973.23 625.941C967.714 621.983 961.194 619.816 954.495 619.716C950.047 619.649 945.629 620.494 941.495 622.205C937.361 623.915 933.591 626.457 930.4 629.686C927.21 632.913 924.661 636.764 922.901 641.018C921.139 645.272 920.2 649.845 920.137 654.478Z" fill="#FAFAFA"/>
<path d="M933.378 654.677C933.324 658.925 934.481 663.097 936.703 666.654C938.924 670.219 942.11 673.021 945.858 674.697C949.606 676.373 953.748 676.857 957.76 676.088C961.772 675.313 965.474 673.319 968.398 670.358C971.322 667.396 973.337 663.6 974.189 659.442C975.041 655.288 974.689 650.964 973.181 647.016C971.673 643.069 969.075 639.676 965.714 637.266C962.354 634.856 958.384 633.537 954.304 633.477C951.592 633.436 948.9 633.951 946.38 634.995C943.86 636.039 941.562 637.589 939.619 639.559C937.676 641.527 936.124 643.876 935.053 646.47C933.982 649.065 933.413 651.853 933.378 654.677Z" fill="#868A91"/>
<path d="M994.25 641.035C994.25 641.035 999.645 642.056 1002.72 631.409L1035.45 636.809L1036.64 649.058C1036.64 649.058 1035.1 673.134 994.262 669.119L994.25 641.035Z" fill="#3F4249"/>
<path d="M891.367 612.581C891.367 612.581 889.07 563.622 933.258 553.42V547.139H1088.07V559.773C1088.07 561.243 1087.62 562.674 1086.77 563.848C1082.04 570.373 1066.44 594.071 1072.77 614.257C1080.19 637.915 1082.5 640.333 1082.5 640.333H1170.61C1170.61 640.333 1181.28 626.328 1181.75 605.565C1182.21 584.802 1173.92 549.299 1167.75 526.602C1162.12 505.972 1158.57 488.713 1158.57 488.713L1185 479.538C1185 479.538 1233.91 546.126 1235.9 549.875C1237.89 553.625 1244.69 562.357 1243.09 581.49C1241.5 600.623 1197.54 659.711 1185.96 666.363C1174.37 673.014 1163.98 673.438 1153.59 675.101C1144.58 676.545 1077.88 675.591 1060.42 675.313C1054.36 675.273 1048.42 673.558 1043.2 670.331C1037.98 667.019 1034.06 661.586 1029.73 652.636L1020.54 633.914L891.367 612.581Z" fill="black"/>
<path d="M1043.6 616.51C1054.42 547.053 970.396 561.012 970.396 561.012C921.882 567.637 907.948 600.1 907.948 600.1L1043.6 616.51Z" fill="#DADDDF"/>
<path d="M903.215 609.162L883.714 640.962C881.22 645.037 885.26 650.158 889.517 648.25C891.934 647.116 894.14 645.546 896.032 643.612C904.939 634.775 920.846 611.508 920.846 611.508L903.215 609.162Z" fill="#61656D"/>
<path d="M1003.81 561.012C1012.46 562.734 1021.06 565.497 1028.16 570.433C1035.26 575.368 1039.61 581.437 1042.79 589.685C1045.87 597.708 1045.1 609.745 1043.56 616.185L1053.04 618.172C1056.72 605.386 1052.72 589.685 1043.86 579.681C1033.48 567.935 1019.2 561.038 1003.78 561.038" fill="#DADDDF"/>
<g opacity="0.1">
<path opacity="0.1" d="M1003.81 561.012C1012.46 562.734 1021.06 565.497 1028.16 570.433C1035.26 575.368 1039.61 581.437 1042.79 589.685C1045.87 597.708 1045.1 609.745 1043.56 616.185L1053.04 618.172C1056.72 605.386 1052.72 589.685 1043.86 579.681C1033.48 567.935 1019.2 561.038 1003.78 561.038" fill="black"/>
</g>
<path d="M1088.07 547.139C1089.64 545.057 1090.61 542.553 1090.87 539.918C1091.11 535.87 1089.34 530.809 1085.14 530.809H1031.7C1027.54 530.809 1023.55 532.53 1020.61 535.592C1017.67 538.655 1016.01 542.808 1016.01 547.139H1088.07Z" fill="#3F4249"/>
<path d="M1158.55 488.713L1149.26 468.527C1148.03 465.756 1147.83 462.609 1148.7 459.694C1149.57 456.779 1151.44 454.302 1153.96 452.74L1181.76 435.468C1183.21 434.567 1184.87 434.09 1186.56 434.09H1192.57L1194.98 474.894L1185.71 478.59L1191.58 488.528L1158.55 488.713Z" fill="black"/>
<path d="M1192.66 435.588C1192.66 435.588 1202.17 437.853 1203.37 453.124C1204.56 468.395 1194.98 473.145 1194.98 473.145L1192.66 435.588Z" fill="#B2B6BB"/>
<path d="M1161.8 469.441C1161.8 469.441 1142.57 478.934 1140.22 480.491C1138.59 481.571 1137.19 483.459 1138.47 486.785C1140.65 492.456 1149.64 487.123 1149.64 487.123L1167.54 477.808C1167.54 477.808 1174.42 474.423 1171.88 470.196C1169.03 465.459 1161.8 469.441 1161.8 469.441Z" fill="#21252B"/>
<path d="M1162.72 430.949C1162.72 438.561 1159.36 444.729 1155.21 444.729C1151.06 444.729 1147.7 438.561 1147.7 430.949C1147.7 423.337 1151.06 417.163 1155.21 417.163C1159.36 417.163 1162.72 423.35 1162.72 430.949Z" fill="#21252B"/>
<path d="M1156.44 440.444L1161.35 460.941C1162.1 460.545 1162.7 459.894 1163.04 459.095C1163.39 458.296 1163.47 457.398 1163.26 456.549C1162.22 451.448 1160.86 442.206 1159.73 437.741C1159.59 437.29 1156.44 440.444 1156.44 440.444Z" fill="#21252B"/>
<g opacity="0.3">
<path opacity="0.3" d="M1074.82 620.617C1074.41 619.391 1073.99 618.133 1073.6 616.847C1073.2 615.562 1072.8 614.403 1072.48 613.204C1072.01 611.364 1071.66 609.491 1071.45 607.599C1064.49 637.107 1075.12 657.889 1093.37 659.353C1120.03 661.487 1152.54 663.037 1165.69 659.446C1189.65 652.894 1198.45 632.085 1200.55 628.66C1202.65 625.235 1221.71 588.943 1210.03 554.009C1198.35 519.076 1177.97 481.962 1177.97 481.962L1158.55 488.7C1158.55 488.7 1162.11 505.925 1167.73 526.588C1173.92 549.286 1182.2 584.789 1181.73 605.552C1181.26 626.315 1170.6 640.32 1170.6 640.32H1082.5C1082.5 640.32 1080.59 638.332 1074.8 620.604" fill="black"/>
</g>
<path d="M887.848 604.903L888.484 597.9L1049.3 617.192C1051.45 617.457 1053.53 618.176 1055.4 619.305C1057.27 620.433 1058.9 621.947 1060.19 623.755C1061.49 625.563 1062.41 627.626 1062.91 629.818C1063.41 632.01 1063.47 634.285 1063.1 636.504L1062.37 640.75L895.928 615.575C893.523 615.217 891.342 613.909 889.838 611.922C888.334 609.935 887.621 607.421 887.848 604.903Z" fill="#EBC325"/>
<g opacity="0.3">
<path opacity="0.3" d="M887.848 604.903L888.484 597.9L1049.3 617.192C1051.45 617.457 1053.53 618.176 1055.4 619.305C1057.27 620.433 1058.9 621.947 1060.19 623.755C1061.49 625.563 1062.41 627.626 1062.91 629.818C1063.41 632.01 1063.47 634.285 1063.1 636.504L1062.37 640.75L895.928 615.575C893.523 615.217 891.342 613.909 889.838 611.922C888.334 609.935 887.621 607.421 887.848 604.903Z" fill="black"/>
</g>
<path d="M993.481 438.046H927.215V507.847H993.481V438.046Z" fill="black"/>
<path opacity="0.2" d="M977.473 438.046H927.215V507.847H977.473V438.046Z" fill="white"/>
<path opacity="0.15" d="M993.479 438.046H977.299V507.847H993.479V438.046Z" fill="black"/>
<path opacity="0.3" d="M958.034 438.046H946.474V447.672H958.034V438.046Z" fill="black"/>
<path d="M974.219 442.756H962.659V449.977H974.219V442.756Z" fill="white"/>
<path d="M961.889 454.893H906.408V524.694H961.889V454.893Z" fill="#4D61FC"/>
<path opacity="0.3" d="M951.384 454.893H906.408V524.694H951.384V454.893Z" fill="white"/>
<path opacity="0.15" d="M961.89 454.893H951.099V524.694H961.89V454.893Z" fill="black"/>
<path opacity="0.3" d="M933.372 454.893H923.357V465.321H933.372V454.893Z" fill="black"/>
<path d="M948.013 459.743H936.751V465.361H948.013V459.743Z" fill="white"/>
<g opacity="0.2">
<path opacity="0.2" d="M1200.53 651.749C1200.53 651.749 1235.94 611.204 1243.23 579.331C1245.69 579.331 1251.4 579.563 1254.2 580.172C1254.2 580.172 1233.24 639.426 1200.53 651.749Z" fill="black"/>
</g>
<path opacity="0.2" d="M1088.26 547.166H933.374V553.585H1088.26V547.166Z" fill="black"/>
<path d="M901.757 474.152V547.166H998.105V474.152H901.757ZM954.948 488.588H930.662C930.237 488.623 929.81 488.566 929.406 488.42C929.003 488.275 928.634 488.044 928.321 487.743C928.007 487.441 927.757 487.076 927.587 486.669C927.415 486.261 927.327 485.822 927.327 485.378C927.327 484.934 927.415 484.495 927.587 484.088C927.757 483.681 928.007 483.315 928.321 483.014C928.634 482.712 929.003 482.482 929.406 482.336C929.81 482.19 930.237 482.133 930.662 482.168H954.948C955.373 482.133 955.8 482.19 956.204 482.336C956.607 482.482 956.976 482.712 957.289 483.014C957.603 483.315 957.853 483.681 958.023 484.088C958.195 484.495 958.283 484.934 958.283 485.378C958.283 485.822 958.195 486.261 958.023 486.669C957.853 487.076 957.603 487.441 957.289 487.743C956.976 488.044 956.607 488.275 956.204 488.42C955.8 488.566 955.373 488.623 954.948 488.588Z" fill="#61656D"/>
<path opacity="0.3" d="M997.755 641.035H956.838C950.688 641.035 945.703 646.225 945.703 652.628V657.524C945.703 663.925 950.688 669.119 956.838 669.119H997.755C1003.9 669.119 1008.89 663.925 1008.89 657.524V652.628C1008.89 646.225 1003.9 641.035 997.755 641.035Z" fill="black"/>
<path opacity="0.2" d="M998.105 474.152H985.004V547.166H998.105V474.152Z" fill="black"/>
<path d="M996.214 641.035H955.297C949.148 641.035 944.163 646.225 944.163 652.628V657.524C944.163 663.925 949.148 669.119 955.297 669.119H996.214C1002.36 669.119 1007.35 663.925 1007.35 657.524V652.628C1007.35 646.225 1002.36 641.035 996.214 641.035Z" fill="#3F4249"/>
<g opacity="0.3">
<path opacity="0.3" d="M954.177 660.897C954.101 660.897 954.026 660.881 953.957 660.851C953.887 660.821 953.823 660.777 953.77 660.72C953.717 660.664 953.675 660.598 953.647 660.524C953.618 660.451 953.604 660.373 953.605 660.294V649.86C953.62 649.711 953.687 649.574 953.793 649.475C953.9 649.375 954.038 649.32 954.18 649.32C954.323 649.32 954.462 649.375 954.568 649.475C954.674 649.574 954.741 649.711 954.756 649.86V660.294C954.756 660.454 954.695 660.608 954.587 660.72C954.478 660.833 954.331 660.897 954.177 660.897Z" fill="black"/>
</g>
<g opacity="0.3">
<path opacity="0.3" d="M956.875 660.897C956.721 660.897 956.574 660.834 956.466 660.72C956.357 660.607 956.296 660.454 956.296 660.294V649.86C956.296 649.7 956.357 649.547 956.466 649.433C956.574 649.32 956.721 649.257 956.875 649.257C957.029 649.257 957.176 649.32 957.285 649.433C957.393 649.547 957.454 649.7 957.454 649.86V660.294C957.454 660.454 957.393 660.607 957.285 660.72C957.176 660.834 957.029 660.897 956.875 660.897Z" fill="black"/>
</g>
<g opacity="0.3">
<path opacity="0.3" d="M1250.46 658.088C1249.58 658.088 1248.72 657.816 1247.99 657.306C1247.25 656.797 1246.68 656.073 1246.34 655.225C1246.01 654.377 1245.92 653.445 1246.09 652.546C1246.26 651.646 1246.69 650.82 1247.31 650.171C1247.93 649.523 1248.73 649.081 1249.59 648.902C1250.45 648.723 1251.35 648.815 1252.17 649.166C1252.98 649.517 1253.67 650.111 1254.16 650.874C1254.65 651.637 1254.91 652.533 1254.91 653.451C1254.91 654.68 1254.44 655.86 1253.61 656.729C1252.78 657.599 1251.64 658.088 1250.46 658.088ZM1250.46 650.065C1249.81 650.064 1249.18 650.263 1248.63 650.637C1248.1 651.011 1247.67 651.545 1247.43 652.168C1247.18 652.792 1247.11 653.478 1247.24 654.141C1247.37 654.803 1247.68 655.412 1248.14 655.889C1248.6 656.367 1249.18 656.692 1249.82 656.823C1250.45 656.955 1251.11 656.887 1251.71 656.628C1252.31 656.369 1252.82 655.93 1253.18 655.369C1253.54 654.806 1253.73 654.146 1253.73 653.471C1253.73 652.568 1253.38 651.702 1252.77 651.064C1252.16 650.426 1251.33 650.067 1250.46 650.065Z" fill="black"/>
</g>
<g opacity="0.2">
<path opacity="0.2" d="M1170.98 639.956L1170.43 640.523L1181.22 651.756L1181.76 651.19L1170.98 639.956Z" fill="black"/>
</g>
<g opacity="0.2">
<path opacity="0.2" d="M1078.32 651.828L1077.56 651.675C1078.32 647.419 1080.03 643.409 1082.57 639.975L1083.16 640.492C1080.73 643.832 1079.07 647.711 1078.32 651.828Z" fill="black"/>
</g>
<path d="M1035.09 596.508C1035 596.509 1034.92 596.478 1034.85 596.421C1034.78 596.365 1034.73 596.285 1034.71 596.197C1029.45 572.684 1003.72 570.048 1003.46 570.028C1003.36 570.018 1003.27 569.966 1003.2 569.884C1003.13 569.803 1003.1 569.697 1003.11 569.591C1003.12 569.485 1003.17 569.386 1003.25 569.318C1003.33 569.25 1003.43 569.217 1003.53 569.226C1003.79 569.226 1030.07 571.942 1035.46 596.011C1035.49 596.115 1035.47 596.224 1035.42 596.315C1035.36 596.405 1035.28 596.47 1035.18 596.495L1035.09 596.508Z" fill="white"/>
<path d="M1035.09 596.807C1034.94 596.803 1034.8 596.748 1034.68 596.649C1034.57 596.551 1034.49 596.415 1034.45 596.264C1029.22 572.93 1003.71 570.353 1003.46 570.327C1003.28 570.302 1003.13 570.211 1003.02 570.071C1002.91 569.931 1002.86 569.754 1002.87 569.574C1002.89 569.395 1002.97 569.229 1003.1 569.108C1003.22 568.989 1003.39 568.924 1003.56 568.929C1003.84 568.929 1030.32 571.658 1035.76 595.946C1035.8 596.126 1035.77 596.317 1035.68 596.474C1035.59 596.632 1035.43 596.745 1035.26 596.787L1035.09 596.807ZM1003.5 569.525C1003.47 569.525 1003.45 569.534 1003.43 569.551C1003.41 569.568 1003.4 569.592 1003.4 569.618C1003.4 569.645 1003.4 569.672 1003.42 569.693C1003.44 569.713 1003.46 569.727 1003.49 569.731C1003.75 569.731 1029.67 572.381 1034.99 596.131C1035 596.156 1035.02 596.178 1035.04 596.192C1035.06 596.205 1035.08 596.21 1035.11 596.204C1035.13 596.197 1035.15 596.182 1035.17 596.16C1035.18 596.138 1035.19 596.111 1035.18 596.085C1029.83 572.235 1003.77 569.585 1003.51 569.532L1003.5 569.525Z" fill="white"/>
<path d="M933.372 547.763C933.22 547.763 933.074 547.7 932.967 547.588C932.86 547.476 932.799 547.324 932.799 547.166V473.271V473.198L941.656 437.894C941.673 437.815 941.705 437.741 941.751 437.675C941.796 437.609 941.854 437.555 941.92 437.512C941.986 437.47 942.06 437.443 942.137 437.431C942.214 437.419 942.291 437.424 942.367 437.445C942.442 437.465 942.512 437.501 942.573 437.55C942.635 437.6 942.687 437.661 942.725 437.731C942.762 437.802 942.787 437.879 942.795 437.959C942.804 438.039 942.798 438.121 942.776 438.198L933.932 473.424V547.166C933.932 547.322 933.873 547.472 933.769 547.583C933.664 547.694 933.521 547.759 933.372 547.763Z" fill="#3F4249"/>
<path d="M945.704 547.761C945.628 547.762 945.553 547.747 945.483 547.718C945.412 547.688 945.348 547.645 945.294 547.589C945.241 547.533 945.198 547.468 945.169 547.395C945.14 547.322 945.125 547.244 945.125 547.165V473.257L950.138 437.959C950.16 437.802 950.241 437.66 950.363 437.564C950.485 437.47 950.639 437.429 950.79 437.452C950.942 437.475 951.078 437.559 951.169 437.686C951.26 437.814 951.299 437.974 951.277 438.131L946.295 473.389V547.165C946.295 547.245 946.28 547.324 946.25 547.398C946.22 547.472 946.176 547.538 946.121 547.594C946.066 547.649 946.001 547.693 945.929 547.722C945.857 547.751 945.78 547.764 945.704 547.761Z" fill="#3F4249"/>
<path opacity="0.4" d="M1184.13 434.428L1188.63 477.424L1195.07 474.675L1192.52 434.262L1184.13 434.428Z" fill="black"/>
<path d="M1108.28 622.114L1108.25 636.762L1126.58 636.291L1128.47 619.179L1108.28 622.114Z" fill="#FC9D9D"/>
<path opacity="0.15" d="M1127.78 624.056L1117.75 624.964C1116.9 625.272 1116.17 625.849 1115.65 626.612C1115.13 627.375 1114.85 628.288 1114.85 629.224V636.591L1108.28 636.783V622.605L1128 622.115L1127.78 624.056Z" fill="black"/>
<path d="M1107.09 634.828L1107.22 649.622C1107.22 650.188 1107.32 650.749 1107.51 651.278C1107.71 651.792 1107.99 652.266 1108.34 652.676C1108.69 653.068 1109.1 653.382 1109.57 653.597C1110.02 653.81 1110.52 653.919 1111.01 653.915L1154.69 653.504C1154.9 653.502 1155.11 653.451 1155.3 653.358C1155.49 653.264 1155.66 653.129 1155.8 652.961C1156.1 652.607 1156.26 652.148 1156.25 651.676C1156.23 649.986 1155.75 648.338 1154.86 646.926C1154.01 645.57 1152.77 644.534 1151.31 643.971L1141.43 640.301L1128.85 629.237C1128.24 628.677 1127.45 628.382 1126.64 628.413C1125.82 628.444 1125.05 628.798 1124.48 629.403L1119 634.888C1118.61 635.281 1118.13 635.558 1117.61 635.69C1117.1 635.817 1116.56 635.794 1116.06 635.623L1109.03 633.172C1108.81 633.094 1108.57 633.078 1108.34 633.126C1108.1 633.17 1107.88 633.277 1107.7 633.437C1107.5 633.601 1107.35 633.813 1107.25 634.053C1107.15 634.296 1107.09 634.561 1107.09 634.828Z" fill="#4D61FC"/>
<path d="M1107.09 634.828L1107.22 649.622C1107.22 650.188 1107.32 650.749 1107.51 651.278C1107.71 651.792 1107.99 652.266 1108.34 652.676C1108.69 653.068 1109.1 653.382 1109.57 653.597C1110.02 653.81 1110.52 653.919 1111.01 653.915L1154.69 653.504C1154.9 653.502 1155.11 653.451 1155.3 653.358C1155.49 653.264 1155.66 653.129 1155.8 652.961C1156.1 652.607 1156.26 652.148 1156.25 651.676C1156.23 649.986 1155.75 648.338 1154.86 646.926C1154.01 645.57 1152.77 644.534 1151.31 643.971L1141.43 640.301L1128.85 629.237C1128.24 628.677 1127.45 628.382 1126.64 628.413C1125.82 628.444 1125.05 628.798 1124.48 629.403L1119 634.888C1118.61 635.281 1118.13 635.558 1117.61 635.69C1117.1 635.817 1116.56 635.794 1116.06 635.623L1109.03 633.172C1108.81 633.094 1108.57 633.078 1108.34 633.126C1108.1 633.17 1107.88 633.277 1107.7 633.437C1107.5 633.601 1107.35 633.813 1107.25 634.053C1107.15 634.296 1107.09 634.561 1107.09 634.828Z" fill="#3F4249"/>
<path d="M1111.04 653.908L1154.69 653.497C1154.9 653.492 1155.11 653.442 1155.3 653.348C1155.49 653.255 1155.66 653.12 1155.8 652.954C1156.1 652.599 1156.26 652.14 1156.25 651.668C1156.25 651.058 1156.18 650.45 1156.03 649.86L1107.3 650.31C1107.44 651.296 1107.89 652.207 1108.58 652.901C1109.24 653.547 1110.11 653.906 1111.01 653.908H1111.04Z" fill="#21252B"/>
<path opacity="0.3" d="M1111.04 653.908L1154.69 653.497C1154.9 653.492 1155.11 653.442 1155.3 653.348C1155.49 653.255 1155.66 653.12 1155.8 652.954C1156.1 652.599 1156.26 652.14 1156.25 651.668C1156.25 651.058 1156.18 650.45 1156.03 649.86L1107.3 650.31C1107.44 651.296 1107.89 652.207 1108.58 652.901C1109.24 653.547 1110.11 653.906 1111.01 653.908H1111.04Z" fill="black"/>
<path d="M1128.63 635.145C1128.58 635.144 1128.53 635.133 1128.49 635.112C1128.44 635.092 1128.4 635.062 1128.37 635.026C1128.33 634.984 1128.3 634.935 1128.28 634.88C1128.27 634.823 1128.27 634.765 1128.28 634.708C1128.27 634.649 1128.27 634.589 1128.28 634.529C1128.3 634.475 1128.33 634.426 1128.37 634.383L1130.99 631.071C1131.02 631.028 1131.06 630.993 1131.11 630.969C1131.16 630.946 1131.21 630.932 1131.27 630.932C1131.37 630.936 1131.47 630.984 1131.55 631.064C1131.62 631.156 1131.67 631.273 1131.67 631.395C1131.66 631.512 1131.62 631.625 1131.55 631.713L1128.94 635.026C1128.85 635.096 1128.74 635.14 1128.63 635.152V635.145Z" fill="#F4F4F4"/>
<path d="M1130.74 636.987C1130.69 636.987 1130.64 636.978 1130.6 636.958C1130.56 636.939 1130.52 636.911 1130.48 636.875C1130.44 636.833 1130.41 636.784 1130.39 636.729C1130.37 636.674 1130.36 636.616 1130.36 636.557C1130.36 636.494 1130.37 636.43 1130.39 636.371C1130.41 636.318 1130.44 636.269 1130.48 636.226L1133.1 632.913C1133.13 632.872 1133.17 632.839 1133.22 632.816C1133.27 632.793 1133.32 632.781 1133.37 632.781C1133.48 632.783 1133.58 632.828 1133.65 632.906C1133.73 632.996 1133.77 633.112 1133.77 633.231C1133.77 633.349 1133.73 633.464 1133.66 633.556L1131.04 636.868C1130.95 636.931 1130.84 636.972 1130.74 636.987Z" fill="#F4F4F4"/>
<path d="M1132.82 638.849C1132.72 638.846 1132.63 638.806 1132.56 638.736C1132.49 638.647 1132.45 638.531 1132.45 638.412C1132.45 638.294 1132.49 638.179 1132.56 638.087L1135.18 634.775C1135.25 634.703 1135.35 634.663 1135.44 634.662C1135.55 634.671 1135.64 634.721 1135.71 634.801C1135.78 634.886 1135.82 634.994 1135.83 635.106C1135.83 635.218 1135.8 635.328 1135.74 635.417L1133.12 638.73C1133.03 638.807 1132.93 638.85 1132.82 638.849Z" fill="#F4F4F4"/>
<path d="M1064.64 493.537L1134.37 514.161C1137.03 514.948 1139.32 516.715 1140.82 519.132C1142.32 521.549 1142.92 524.451 1142.52 527.298L1128.93 622.605H1107.1L1110.39 539.25L1023.53 529.471C1023.53 529.471 1013.76 528.504 1010.9 521.163L1064.64 493.537Z" fill="#21252B"/>
<path opacity="0.3" d="M1018.53 517.241L1010.89 521.163C1013.76 528.503 1023.52 529.47 1023.52 529.47L1110.38 539.249L1107.11 622.32L1111.82 622.359L1117.19 534.114L1031.98 515.969L1018.53 517.241Z" fill="black"/>
<path d="M1029.4 385.987C1029.4 385.987 1021.89 397.72 1019.43 403.066C1017.82 406.675 1016.57 410.449 1015.72 414.329C1012.71 427.459 1011.78 441.013 1012.97 454.456L1012.73 465.944C1012.73 465.944 1007.57 489.383 1008.01 521.163C1008.01 521.163 1037.59 522.137 1064.35 493.292C1064.35 493.292 1059.18 401.867 1050.74 395.03L1029.4 385.987Z" fill="black"/>
<path d="M1035.89 348.734L1034.28 367.284L1029.76 385.834L1050.5 394.513L1051.9 380.872L1057.03 382.197C1057.21 382.257 1057.38 382.303 1057.56 382.35C1060.9 383.131 1062.91 383.092 1064.43 377.533L1065.87 370.743L1068.05 370.034L1068.18 369.981C1068.47 369.844 1068.71 369.589 1068.83 369.273C1068.95 368.956 1068.94 368.603 1068.81 368.291L1066.31 362.422V362.09L1066.61 361.315C1067.87 358.041 1068.25 354.469 1067.7 350.987L1067.16 347.568L1035.89 348.734Z" fill="#FC9D9D"/>
<path d="M1067.68 348.137L1058.14 351.198C1057.7 351.264 1057.28 351.462 1056.94 351.769C1056.6 352.075 1056.36 352.477 1056.23 352.927L1055.75 354.616C1055.16 356.855 1053.52 357.71 1051.29 357.823H1049.07L1048.29 362.01C1048.23 362.294 1048.08 362.549 1047.86 362.727C1047.64 362.905 1047.36 362.996 1047.08 362.983C1046.78 362.96 1046.5 362.814 1046.31 362.577C1046.11 362.339 1046.01 362.031 1046.03 361.718L1046.13 360.135L1040.84 360.353L1039.82 364.699C1037.77 368.204 1033.61 368.25 1033.61 368.25C1031.67 359.837 1028.96 351.88 1032.01 344.042L1032.09 343.85C1033.13 341.114 1037.42 337.888 1041.16 339.133C1042.53 339.624 1043.45 338.166 1043.99 337.736C1046.23 334.582 1052.94 334.045 1056.65 336.821L1059.01 338.769C1060.91 339.962 1063.21 339.524 1065.5 339.432C1068.86 338.776 1071.18 344.314 1067.68 348.137Z" fill="#21252B"/>
<path opacity="0.15" d="M1051.64 385.581L1047.46 380.54C1047.38 380.423 1047.33 380.288 1047.32 380.147C1047.3 380.006 1047.32 379.863 1047.37 379.731C1047.46 379.527 1047.61 379.366 1047.81 379.282C1048.01 379.197 1048.23 379.197 1048.43 379.281L1052.16 380.778L1051.64 385.581Z" fill="black"/>
<path opacity="0.15" d="M1036.55 367.609L1041.41 367.284C1040.79 366.526 1040.26 365.686 1039.85 364.787C1039.51 365.466 1039.05 366.066 1038.48 366.551C1037.91 367.037 1037.25 367.396 1036.55 367.609Z" fill="black"/>
<path d="M1067.47 362.922C1067.53 362.118 1067 361.423 1066.3 361.373C1065.6 361.322 1064.99 361.933 1064.94 362.738C1064.88 363.543 1065.41 364.237 1066.11 364.288C1066.81 364.339 1067.42 363.727 1067.47 362.922Z" fill="#21252B"/>
<path d="M1064.15 362.15C1064.25 362.15 1064.34 362.061 1064.34 361.952C1064.34 361.841 1064.25 361.753 1064.15 361.753C1064.04 361.753 1063.96 361.841 1063.96 361.952C1063.96 362.061 1064.04 362.15 1064.15 362.15Z" fill="white"/>
<path d="M1045.61 369.159L1046.17 360.447C1046.21 359.522 1045.91 358.615 1045.31 357.923C1044.72 357.232 1043.89 356.81 1043.01 356.751C1042.12 356.692 1041.24 357.003 1040.57 357.615C1039.9 358.227 1039.49 359.09 1039.42 360.017L1039.31 361.733C1039.19 363.589 1039.79 365.417 1040.97 366.816C1042.14 368.215 1043.81 369.07 1045.59 369.192L1045.61 369.159Z" fill="#FC9D9D"/>
<path opacity="0.2" d="M1037.91 423.537C1041.73 431.209 1051.41 448.924 1061.39 453.575L1060.35 444.201L1038.96 422.703C1038.85 422.558 1038.7 422.464 1038.52 422.44C1038.35 422.417 1038.17 422.465 1038.04 422.577C1037.9 422.687 1037.81 422.85 1037.78 423.031C1037.76 423.211 1037.81 423.393 1037.91 423.537Z" fill="black"/>
<path d="M1155.84 473.94L1152.16 471.031C1151.7 470.675 1151.17 470.431 1150.61 470.316C1150.05 470.202 1149.47 470.22 1148.92 470.369L1139.84 472.687L1090.65 453.223L1068.45 426.597L1054.76 441.55L1077.18 465.4C1078.68 467.101 1080.61 468.318 1082.76 468.905L1137.3 482.817C1143.67 484.632 1148.95 479.266 1148.95 479.266L1153.95 483.089L1153.31 484.785C1153.08 485.432 1152.63 485.967 1152.04 486.289L1146.85 489.25C1146.59 489.39 1146.39 489.627 1146.3 489.912C1146.25 490.074 1146.23 490.245 1146.24 490.415C1146.26 490.585 1146.31 490.749 1146.39 490.898C1146.47 491.045 1146.58 491.174 1146.72 491.275C1146.85 491.376 1147 491.446 1147.16 491.483L1147.45 491.549C1147.66 491.596 1147.88 491.577 1148.09 491.496L1154.86 488.806C1155.37 488.609 1155.82 488.305 1156.2 487.912C1156.59 487.519 1156.88 487.047 1157.08 486.527L1159.55 479.942L1155.84 473.94Z" fill="#FC9D9D"/>
<path opacity="0.15" d="M1137.17 480.915L1081.08 463.69L1058.24 437.263L1054.16 440.927L1077.18 465.399C1078.68 467.101 1080.61 468.318 1082.76 468.904L1137.3 482.817C1142.51 484.307 1147.03 480.948 1148.47 479.703C1141.36 483.134 1137.17 480.915 1137.17 480.915Z" fill="black"/>
<path opacity="0.2" d="M1023.28 466.653L1023.75 426.075C1023.75 419.383 1024.76 406.511 1027.19 400.317L1031.97 388.107L1029.38 385.987C1029.38 385.987 1021.88 397.72 1019.42 403.066C1017.8 406.673 1016.55 410.448 1015.7 414.329C1012.69 427.447 1011.77 440.987 1012.95 454.416L1012.72 465.904C1012.72 465.904 1007.57 489.383 1008.01 521.163C1010.5 521.16 1012.98 520.954 1015.44 520.547L1028.43 517.493C1024.46 500.877 1022.73 483.766 1023.28 466.653Z" fill="black"/>
<g opacity="0.3">
<path opacity="0.3" d="M1044.77 362.208L1044.87 360.751C1044.9 360.139 1044.7 359.538 1044.32 359.077C1043.93 358.616 1043.38 358.333 1042.79 358.286C1042.47 358.253 1042.15 358.296 1041.85 358.41C1041.54 358.525 1041.27 358.709 1041.04 358.949L1040.99 358.995C1040.91 359.103 1040.87 359.24 1040.88 359.378C1040.89 359.515 1040.96 359.642 1041.06 359.731C1041.16 359.816 1041.29 359.856 1041.42 359.843C1041.55 359.829 1041.67 359.763 1041.76 359.658C1041.88 359.515 1042.03 359.404 1042.2 359.335C1042.37 359.266 1042.56 359.24 1042.74 359.26C1043.07 359.284 1043.39 359.445 1043.61 359.709C1043.83 359.972 1043.94 360.316 1043.92 360.665L1043.83 362.122C1043.83 362.259 1043.88 362.392 1043.97 362.495C1044.05 362.599 1044.17 362.666 1044.3 362.685C1044.37 362.698 1044.43 362.695 1044.49 362.675C1044.56 362.656 1044.61 362.622 1044.66 362.575C1044.7 362.528 1044.74 362.47 1044.76 362.407C1044.78 362.343 1044.78 362.275 1044.77 362.208Z" fill="#21252B"/>
</g>
<path d="M1065.36 373.379C1064.28 373.214 1063.24 372.879 1062.26 372.385C1062.21 372.358 1062.15 372.35 1062.09 372.362C1062.03 372.373 1061.98 372.404 1061.95 372.45C1061.91 372.496 1061.89 372.553 1061.88 372.613C1061.88 372.673 1061.89 372.733 1061.93 372.783C1062.68 373.922 1063.72 374.822 1064.93 375.379L1065.36 373.379Z" fill="white"/>
<path d="M1061.16 357.678C1064.94 356.75 1066.33 358.38 1066.33 358.38V358.797C1066.33 358.797 1063.26 357.598 1061.39 357.996L1061.16 357.678Z" fill="#21252B"/>
<path opacity="0.4" d="M1073.67 348.409C1073.67 348.409 1075.39 365.972 1063.84 380.991C1060.25 383.27 1046.89 379.056 1047.8 364.952C1048.44 354.961 1046.53 347.879 1049.23 346.137C1051.93 344.394 1065.42 349.317 1073.67 348.409Z" fill="white"/>
<path d="M1054.57 350.403C1054.57 350.403 1069.14 351.125 1073.66 352.523C1075.29 340.949 1067.01 331.986 1054.79 329.448C1042.58 326.911 1030.43 333.847 1027.16 345.825C1023.88 357.803 1026.95 362.832 1029.96 366.986C1032.4 370.351 1036 372.657 1045.63 371.292C1051.99 370.397 1051.31 360.864 1051.93 357.26C1052.56 353.656 1052.6 350.072 1054.57 350.403Z" fill="black"/>
<g opacity="0.2">
<path opacity="0.2" d="M1054.57 329.448C1050.99 328.675 1047.28 328.741 1043.73 329.642C1040.17 330.542 1036.85 332.255 1034.01 334.656C1038.71 332.544 1043.92 331.979 1048.93 333.039C1059.48 335.225 1067.1 342.188 1067.95 351.503C1069.81 351.691 1071.65 352.023 1073.46 352.497C1075.08 340.916 1066.79 331.986 1054.57 329.448Z" fill="white"/>
</g>
<path d="M1053 348.919C1051.03 348.587 1050.98 352.085 1050.34 355.775C1049.7 359.466 1050.38 368.913 1044.04 369.807C1037.04 370.801 1033.22 369.807 1030.71 367.946C1033.16 370.761 1036.93 372.517 1045.61 371.291C1051.97 370.397 1051.29 360.863 1051.91 357.259C1052.54 353.655 1052.6 350.071 1054.57 350.403C1054.57 350.403 1069.14 351.125 1073.66 352.523C1073.75 351.824 1073.82 351.121 1073.84 350.416C1069.17 349.044 1053 348.919 1053 348.919Z" fill="#21252B"/>
<path d="M1029.55 384.866C1029.55 384.866 1053.9 397.506 1050.54 391.988C1050.54 391.988 1052.61 393.564 1050.73 395.029C1050.73 395.029 1045.8 395.274 1029.2 386.714C1029.22 386.714 1028.53 385.952 1029.55 384.866Z" fill="white"/>
<path d="M1051.7 403.344L1071.35 426.876L1053.27 443.253L1036.2 419.959L1051.7 403.344Z" fill="#4D61FC"/>
<path d="M1129.54 623.075H1106.63V616.45H1130.17L1129.54 623.075Z" fill="#21252B"/>
<path opacity="0.3" d="M1129.54 623.075H1106.63V616.45H1130.17L1129.54 623.075Z" fill="black"/>
<path opacity="0.3" d="M1113.63 616.45H1106.63V623.075H1113.63V616.45Z" fill="black"/>
<path d="M1052.24 441.835L1070.29 425.604L1071.64 426.975L1053.54 443.253L1052.24 441.835Z" fill="#F4F4F4"/>
<path d="M825.573 662.162C826.547 662.606 827.425 663.256 828.153 664.057C828.881 664.865 829.445 665.819 829.811 666.86C830.534 668.946 830.789 671.179 830.555 673.385C830.218 677.652 828.01 681.998 825.63 685.489C822.106 682.475 821.177 677.055 820.833 674.28C820.33 669.881 821.991 661.619 825.573 662.162Z" fill="#06D81B"/>
<path d="M830.287 693.015C829.895 691.843 829.806 690.59 830.029 689.371C830.252 688.152 830.78 687.02 831.56 686.085C832.356 685.165 833.32 684.423 834.394 683.899C835.469 683.369 836.634 683.071 837.82 683.018C838.915 682.952 840.13 683.111 840.874 683.952C841.199 684.37 841.411 684.866 841.49 685.39C841.568 685.92 841.509 686.463 841.32 686.96C840.925 687.954 840.283 688.815 839.462 689.464C836.771 691.816 833.736 693.578 830.274 693.015" fill="#06D81B"/>
<path d="M822.029 693.147C821.539 690.584 820.468 688.179 818.907 686.132C817.346 684.085 815.339 682.455 813.052 681.375C811.888 680.838 810.38 680.514 809.464 681.435C808.547 682.355 808.827 683.945 809.298 685.171C810.386 687.702 812.166 689.842 814.418 691.319C816.67 692.803 819.292 693.552 821.953 693.485" fill="#06D81B"/>
<path d="M825.224 668.787C825.448 671.881 825.631 674.995 825.771 678.129C825.924 681.249 826.019 684.369 826.127 687.483C826.235 690.597 826.267 693.724 826.286 696.844C826.305 699.965 826.286 703.085 826.197 706.206L825.644 687.496L825.402 678.142C825.319 675.002 825.268 671.881 825.224 668.787Z" fill="#21252B"/>
<path d="M826.68 705.676C826.746 703.768 826.991 701.873 827.412 700.018C827.827 698.156 828.435 696.348 829.225 694.625C830.016 692.883 831.115 691.306 832.464 689.988C833.155 689.345 833.922 688.795 834.748 688.351C835.579 687.947 836.462 687.662 837.369 687.51C835.611 687.987 834.007 688.941 832.718 690.272C831.448 691.604 830.412 693.154 829.658 694.857C828.869 696.553 828.24 698.328 827.781 700.157C827.301 701.972 826.933 703.814 826.68 705.676Z" fill="#21252B"/>
<path d="M825.713 705.676C825.461 703.801 825.095 701.939 824.619 700.111C824.159 698.282 823.531 696.507 822.742 694.811C821.985 693.108 820.947 691.558 819.675 690.226C818.386 688.894 816.781 687.94 815.024 687.463C815.933 687.616 816.818 687.901 817.652 688.305C818.475 688.749 819.241 689.299 819.929 689.941C821.28 691.26 822.381 692.836 823.174 694.579C823.964 696.308 824.568 698.13 824.975 699.998C825.399 701.86 825.646 703.761 825.713 705.676Z" fill="#21252B"/>
<path d="M1346.03 662.162C1347 662.606 1347.88 663.256 1348.6 664.057C1349.33 664.865 1349.9 665.819 1350.26 666.86C1350.99 668.946 1351.24 671.179 1351.01 673.385C1350.67 677.652 1348.46 681.998 1346.08 685.489C1342.56 682.475 1341.63 677.055 1341.29 674.28C1340.78 669.881 1342.44 661.619 1346.03 662.162Z" fill="#06D81B"/>
<path d="M1350.74 693.015C1350.35 691.843 1350.26 690.59 1350.48 689.371C1350.7 688.152 1351.23 687.02 1352.01 686.085C1352.81 685.165 1353.77 684.423 1354.84 683.899C1355.92 683.369 1357.08 683.071 1358.27 683.018C1359.37 682.952 1360.58 683.111 1361.33 683.952C1361.65 684.37 1361.86 684.866 1361.94 685.39C1362.02 685.92 1361.96 686.463 1361.77 686.96C1361.38 687.954 1360.74 688.815 1359.91 689.464C1357.22 691.816 1354.19 693.578 1350.73 693.015" fill="#06D81B"/>
<path d="M1342.48 693.148C1341.99 690.59 1340.92 688.185 1339.36 686.145C1337.79 684.098 1335.79 682.475 1333.5 681.395C1332.34 680.858 1330.83 680.534 1329.92 681.455C1329 682.375 1329.28 683.965 1329.75 685.191C1330.84 687.722 1332.62 689.862 1334.87 691.339C1337.12 692.823 1339.75 693.572 1342.4 693.505" fill="#06D81B"/>
<path d="M1345.68 668.787C1345.9 671.881 1346.08 674.995 1346.22 678.129C1346.37 681.249 1346.47 684.369 1346.58 687.483C1346.69 690.597 1346.72 693.724 1346.74 696.844C1346.76 699.965 1346.74 703.085 1346.65 706.206L1346.09 687.496L1345.85 678.142C1345.77 675.002 1345.72 671.881 1345.68 668.787Z" fill="#21252B"/>
<path d="M1347.13 705.676C1347.2 703.768 1347.44 701.873 1347.86 700.018C1348.28 698.156 1348.89 696.348 1349.68 694.625C1350.47 692.883 1351.57 691.306 1352.92 689.988C1353.61 689.345 1354.37 688.795 1355.2 688.351C1356.03 687.947 1356.91 687.662 1357.82 687.51C1356.07 687.987 1354.46 688.941 1353.17 690.272C1351.9 691.604 1350.87 693.154 1350.11 694.857C1349.31 696.553 1348.67 698.328 1348.2 700.157C1347.73 701.972 1347.37 703.814 1347.13 705.676Z" fill="#21252B"/>
<path d="M1346.17 705.676C1345.91 703.801 1345.55 701.939 1345.07 700.111C1344.6 698.282 1343.96 696.507 1343.16 694.811C1342.4 693.108 1341.37 691.558 1340.1 690.226C1338.8 688.894 1337.2 687.94 1335.44 687.463C1336.35 687.616 1337.24 687.901 1338.07 688.305C1338.89 688.749 1339.66 689.299 1340.35 689.941C1341.7 691.26 1342.8 692.836 1343.59 694.579C1344.38 696.308 1344.99 698.13 1345.4 699.998C1345.83 701.86 1346.09 703.761 1346.17 705.676Z" fill="#21252B"/>
<path d="M1184.89 242.8C1203.16 242.8 1217.97 227.376 1217.97 208.35C1217.97 189.324 1203.16 173.9 1184.89 173.9C1166.62 173.9 1151.8 189.324 1151.8 208.35C1151.8 227.376 1166.62 242.8 1184.89 242.8Z" fill="white"/>
<path d="M977.528 284.346C977.44 284.74 977.327 285.127 977.191 285.506C977.541 288.527 947.503 286.91 947.503 286.91C947.503 286.91 939.474 292.747 935.465 287.228C927.442 289.825 882.504 291.124 863.645 288.209C847.593 290.15 821.112 286.884 808.292 286.579C795.471 286.274 795.051 283.339 802.279 282.047C802.196 281.385 802.858 280.398 804.188 279.344C809.278 275.27 824.007 270.129 842.821 278.019C839.608 269.44 852.855 260.331 867.692 264.875C867.298 260.006 873.316 260.662 873.316 260.662C873.316 260.662 870.905 239.25 892.569 239.25C914.234 239.25 916.645 269.062 916.645 269.062C916.645 269.062 918.248 257.084 936.706 256.11C955.164 255.137 955.157 269.731 955.157 269.731C955.157 269.731 980.486 271.553 977.528 284.346Z" fill="white"/>
<path opacity="0.08" d="M977.528 284.345C977.44 284.739 977.327 285.126 977.191 285.505C977.541 288.526 947.503 286.909 947.503 286.909C947.503 286.909 939.474 292.746 935.465 287.227C927.442 289.824 882.504 291.123 863.645 288.208C847.593 290.149 821.112 286.883 808.292 286.578C795.471 286.273 795.051 283.338 802.279 282.046C802.196 281.384 802.858 280.397 804.188 279.344C806.23 280.006 807.91 281.477 808.005 283.272C811.912 282.04 816.639 282.736 819.757 285.001C822.97 282.206 828.601 283.782 833.118 284.948C837.639 286.102 842.285 286.633 846.937 286.525C847.961 286.558 848.98 286.385 849.941 286.015C851.996 285.061 852.257 282.822 852.645 280.927C853.089 278.405 854.441 276.154 856.424 274.633C858.6 273.037 861.998 272.381 864.574 273.52C865.847 274.09 866.827 275.024 868.15 275.508C869.092 275.846 870.167 275.938 871.064 276.362C873.342 277.422 873.52 279.986 873.418 282.119C875.927 281.39 878.611 281.719 880.888 283.034C878.056 277.641 882.084 271.572 886.519 266.942C888.523 264.861 890.75 262.774 893.74 261.714C898.283 260.105 903.812 261.257 907.661 263.788C911.51 266.319 913.916 270.009 915.614 273.779C917.898 272.884 920.889 273.361 922.569 274.898C930.789 272.546 940.746 275.017 945.919 280.695C956.58 278.989 967.485 280.248 977.528 284.345Z" fill="#21252B"/>
<path d="M1037.6 352.775H958.427C958.166 352.775 957.956 352.477 957.956 352.112C957.956 351.748 958.166 351.45 958.427 351.45H1037.6C1037.86 351.45 1038.07 351.748 1038.07 352.112C1038.07 352.477 1037.86 352.775 1037.6 352.775Z" fill="white"/>
<path d="M1037.6 423H958.427C958.166 423 957.956 422.702 957.956 422.337C957.956 421.973 958.166 421.675 958.427 421.675H1037.6C1037.86 421.675 1038.07 421.973 1038.07 422.337C1038.07 422.702 1037.86 423 1037.6 423Z" fill="white"/>
<path d="M1035.85 368.013H995.128C994.937 368.013 994.784 367.714 994.784 367.35C994.784 366.986 994.937 366.688 995.128 366.688H1035.85C1036.04 366.688 1036.19 366.986 1036.19 367.35C1036.19 367.714 1036.04 368.013 1035.85 368.013Z" fill="white"/>
<path d="M915.117 468.05H876.452C876.191 468.05 875.981 467.752 875.981 467.388C875.981 467.023 876.191 466.725 876.452 466.725H915.117C915.378 466.725 915.588 467.023 915.588 467.388C915.588 467.752 915.346 468.05 915.117 468.05Z" fill="white"/>
<path d="M942.313 491.238H863.113C862.944 491.238 862.782 491.168 862.663 491.043C862.543 490.92 862.477 490.751 862.477 490.575C862.477 490.4 862.543 490.231 862.663 490.107C862.782 489.982 862.944 489.913 863.113 489.913H942.313C942.482 489.913 942.643 489.982 942.763 490.107C942.882 490.231 942.949 490.4 942.949 490.575C942.949 490.751 942.882 490.92 942.763 491.043C942.643 491.168 942.482 491.238 942.313 491.238Z" fill="white"/>
<path d="M907.902 512.438H876.191C876.077 512.438 875.981 512.139 875.981 511.775C875.981 511.411 876.077 511.113 876.191 511.113H907.902C908.023 511.113 908.118 511.411 908.118 511.775C908.118 512.139 908.023 512.438 907.902 512.438Z" fill="white"/>
<path d="M1027.48 401.8H998.079C997.939 401.8 997.831 401.502 997.831 401.137C997.831 400.773 997.939 400.475 998.079 400.475H1027.48C1027.62 400.475 1027.73 400.773 1027.73 401.137C1027.73 401.502 1027.62 401.8 1027.48 401.8Z" fill="white"/>
<path d="M905.11 583.325H844.438C844.269 583.325 844.107 583.255 843.988 583.131C843.868 583.007 843.801 582.838 843.801 582.662C843.801 582.487 843.868 582.318 843.988 582.194C844.107 582.069 844.269 582 844.438 582H905.11C905.279 582 905.441 582.069 905.56 582.194C905.68 582.318 905.747 582.487 905.747 582.662C905.747 582.838 905.68 583.007 905.56 583.131C905.441 583.255 905.279 583.325 905.11 583.325Z" fill="white"/>
<path d="M913.936 606.513H823.143C822.634 606.513 822.227 606.214 822.227 605.85C822.227 605.486 822.634 605.188 823.143 605.188H913.936C914.438 605.188 914.852 605.486 914.852 605.85C914.852 606.214 914.438 606.513 913.936 606.513Z" fill="white"/>
<path d="M1419.79 706.808H686.579C686.435 706.822 686.29 706.802 686.153 706.749C686.016 706.702 685.891 706.623 685.784 706.523C685.678 706.417 685.594 706.298 685.536 706.159C685.477 706.02 685.447 705.868 685.447 705.722C685.447 705.57 685.477 705.417 685.536 705.278C685.594 705.145 685.678 705.02 685.784 704.914C685.891 704.814 686.016 704.735 686.153 704.688C686.29 704.635 686.435 704.615 686.579 704.629H1419.79C1419.94 704.615 1420.09 704.635 1420.22 704.688C1420.36 704.735 1420.48 704.814 1420.59 704.914C1420.7 705.02 1420.78 705.145 1420.84 705.278C1420.89 705.417 1420.93 705.57 1420.93 705.722C1420.93 705.868 1420.89 706.02 1420.84 706.159C1420.78 706.298 1420.7 706.417 1420.59 706.523C1420.48 706.623 1420.36 706.702 1420.22 706.749C1420.09 706.802 1419.94 706.822 1419.79 706.808Z" fill="#B2B6BB"/>
<path d="M953.968 627.712H844.438C844.269 627.712 844.107 627.643 843.988 627.518C843.868 627.394 843.801 627.226 843.801 627.05C843.801 626.874 843.868 626.705 843.988 626.582C844.107 626.457 844.269 626.387 844.438 626.387H953.968C954.137 626.387 954.299 626.457 954.418 626.582C954.538 626.705 954.604 626.874 954.604 627.05C954.604 627.226 954.538 627.394 954.418 627.518C954.299 627.643 954.137 627.712 953.968 627.712Z" fill="white"/>
<path d="M932.635 592.109C931.884 592.021 931.166 591.829 930.482 591.533C929.807 591.238 929.283 590.89 928.908 590.49L929.668 589.155C930.037 589.518 930.499 589.835 931.054 590.106C931.619 590.37 932.194 590.536 932.778 590.604C933.501 590.689 934.05 590.636 934.424 590.445C934.808 590.255 935.018 589.969 935.054 589.588C935.081 589.309 935 589.07 934.813 588.869C934.636 588.661 934.4 588.488 934.104 588.35C933.808 588.212 933.401 588.047 932.885 587.855C932.161 587.591 931.575 587.344 931.128 587.114C930.691 586.884 930.323 586.564 930.025 586.153C929.737 585.734 929.623 585.204 929.684 584.563C929.736 584.024 929.926 583.553 930.255 583.15C930.594 582.739 931.068 582.437 931.677 582.245C932.295 582.055 933.03 582.009 933.883 582.109C934.476 582.178 935.053 582.321 935.614 582.537C936.174 582.753 936.65 583.025 937.041 583.352L936.336 584.693C935.934 584.392 935.507 584.15 935.056 583.966C934.605 583.781 934.161 583.664 933.726 583.613C933.012 583.529 932.467 583.587 932.092 583.788C931.726 583.989 931.524 584.29 931.486 584.689C931.459 584.968 931.535 585.207 931.713 585.406C931.9 585.607 932.142 585.776 932.438 585.914C932.734 586.052 933.14 586.217 933.656 586.409C934.363 586.661 934.94 586.907 935.385 587.147C935.832 587.377 936.2 587.698 936.489 588.107C936.787 588.518 936.906 589.039 936.846 589.671C936.795 590.21 936.6 590.68 936.262 591.082C935.933 591.485 935.459 591.782 934.841 591.973C934.223 592.164 933.487 592.209 932.635 592.109ZM948.298 586.192C949.234 586.301 949.95 586.662 950.444 587.274C950.94 587.877 951.136 588.722 951.032 589.809L950.626 594.074L948.888 593.87L949.273 589.829C949.335 589.178 949.238 588.674 948.981 588.315C948.726 587.947 948.329 587.731 947.792 587.668C947.208 587.6 946.721 587.74 946.331 588.089C945.943 588.429 945.714 588.957 945.646 589.672L945.286 593.449L943.548 593.246L943.933 589.204C943.995 588.554 943.898 588.049 943.642 587.69C943.386 587.322 942.99 587.107 942.452 587.044C941.859 586.974 941.368 587.109 940.979 587.449C940.6 587.79 940.376 588.323 940.307 589.047L939.947 592.824L938.209 592.621L938.918 585.178L940.573 585.372L940.482 586.32C940.792 586.018 941.164 585.803 941.598 585.675C942.032 585.548 942.504 585.514 943.014 585.573C943.57 585.638 944.051 585.803 944.457 586.066C944.874 586.322 945.187 586.668 945.399 587.107C945.742 586.752 946.165 586.496 946.667 586.339C947.17 586.172 947.714 586.123 948.298 586.192ZM957.68 587.29C958.403 587.374 959.033 587.608 959.568 587.99C960.113 588.373 960.52 588.871 960.789 589.485C961.059 590.099 961.158 590.783 961.086 591.535C961.014 592.288 960.788 592.938 960.408 593.485C960.028 594.023 959.536 594.417 958.932 594.665C958.336 594.915 957.677 594.998 956.954 594.913C955.952 594.796 955.192 594.369 954.671 593.631L954.327 597.241L952.589 597.038L953.556 586.892L955.211 587.085L955.118 588.061C955.439 587.741 955.817 587.518 956.251 587.39C956.694 587.263 957.17 587.23 957.68 587.29ZM956.901 593.399C957.541 593.474 958.085 593.321 958.533 592.942C958.991 592.563 959.253 592.026 959.32 591.329C959.386 590.632 959.231 590.045 958.855 589.569C958.488 589.094 957.984 588.819 957.345 588.744C956.928 588.695 956.543 588.749 956.191 588.905C955.839 589.052 955.549 589.29 955.321 589.621C955.093 589.951 954.956 590.348 954.912 590.813C954.868 591.277 954.926 591.698 955.087 592.073C955.248 592.449 955.486 592.754 955.801 592.989C956.117 593.213 956.484 593.35 956.901 593.399ZM963.365 585.108L965.103 585.312L964.118 595.653L962.38 595.449L963.365 585.108ZM974.061 589.291L969.818 596.926C969.417 597.696 968.969 598.217 968.474 598.488C967.979 598.768 967.402 598.87 966.744 598.793C966.373 598.749 966.013 598.646 965.663 598.483C965.313 598.32 965.032 598.118 964.82 597.877L965.638 596.676C965.79 596.854 965.972 597.002 966.186 597.121C966.409 597.241 966.636 597.315 966.868 597.342C967.174 597.377 967.432 597.328 967.641 597.193C967.86 597.058 968.071 596.815 968.273 596.463L968.426 596.185L965.899 588.336L967.706 588.547L969.518 594.326L972.392 589.096L974.061 589.291ZM982.209 587.314L981.224 597.655L980.542 597.575L980.706 595.861C980.364 596.394 979.919 596.783 979.371 597.029C978.823 597.275 978.219 597.359 977.561 597.282C976.884 597.203 976.288 596.974 975.771 596.594C975.254 596.214 974.865 595.727 974.603 595.132C974.35 594.539 974.258 593.885 974.326 593.169C974.394 592.454 974.608 591.835 974.967 591.314C975.336 590.784 975.809 590.398 976.385 590.155C976.962 589.903 977.589 589.817 978.265 589.896C978.914 589.972 979.479 590.193 979.96 590.559C980.45 590.927 980.817 591.402 981.061 591.985L981.514 587.232L982.209 587.314ZM977.663 596.66C978.219 596.725 978.727 596.653 979.188 596.444C979.658 596.236 980.04 595.914 980.334 595.479C980.638 595.045 980.818 594.53 980.875 593.936C980.932 593.341 980.852 592.796 980.637 592.301C980.431 591.808 980.118 591.405 979.698 591.092C979.287 590.781 978.803 590.593 978.247 590.528C977.691 590.463 977.178 590.534 976.708 590.742C976.248 590.952 975.866 591.273 975.562 591.707C975.267 592.143 975.092 592.658 975.035 593.252C974.978 593.847 975.053 594.391 975.259 594.885C975.474 595.38 975.787 595.783 976.198 596.094C976.618 596.406 977.106 596.595 977.663 596.66ZM990.618 595.245L984.374 594.514C984.339 595.083 984.434 595.607 984.661 596.084C984.888 596.552 985.217 596.934 985.648 597.228C986.089 597.524 986.596 597.706 987.171 597.773C987.644 597.828 988.088 597.796 988.502 597.675C988.927 597.546 989.289 597.33 989.59 597.027L989.95 597.534C989.598 597.878 989.172 598.124 988.67 598.272C988.178 598.422 987.654 598.464 987.097 598.398C986.374 598.314 985.745 598.08 985.21 597.698C984.674 597.316 984.271 596.828 984 596.232C983.738 595.638 983.641 594.983 983.709 594.267C983.776 593.561 983.985 592.947 984.335 592.424C984.695 591.893 985.154 591.501 985.712 591.247C986.271 590.992 986.879 590.904 987.537 590.981C988.195 591.058 988.769 591.285 989.258 591.662C989.757 592.03 990.129 592.51 990.372 593.102C990.625 593.696 990.718 594.345 990.65 595.052L990.618 595.245ZM987.479 591.594C986.969 591.535 986.499 591.597 986.069 591.782C985.64 591.957 985.28 592.239 984.99 592.628C984.71 593.008 984.527 593.457 984.44 593.973L990.002 594.623C990.024 594.1 989.929 593.619 989.718 593.181C989.507 592.743 989.208 592.384 988.822 592.104C988.437 591.824 987.989 591.654 987.479 591.594ZM993.437 588.628L994.133 588.709L993.147 599.05L992.452 598.969L993.437 588.628ZM996.771 592.118L997.466 592.199L996.773 599.474L996.077 599.393L996.771 592.118ZM997.287 590.389C997.13 590.37 997 590.303 996.899 590.188C996.798 590.064 996.755 589.922 996.77 589.764C996.785 589.606 996.854 589.478 996.976 589.38C997.097 589.281 997.237 589.241 997.395 589.26C997.552 589.278 997.682 589.35 997.782 589.474C997.884 589.589 997.927 589.726 997.912 589.884C997.897 590.042 997.828 590.17 997.706 590.269C997.585 590.367 997.445 590.407 997.287 590.389ZM1006.22 593.224L1002.25 600.115L1001.54 600.032L998.964 592.375L999.701 592.461L1001.97 599.308L1005.51 593.141L1006.22 593.224ZM1013.31 597.9L1007.07 597.17C1007.03 597.739 1007.13 598.262 1007.35 598.739C1007.58 599.208 1007.91 599.589 1008.34 599.884C1008.78 600.18 1009.29 600.361 1009.86 600.428C1010.33 600.484 1010.78 600.451 1011.19 600.33C1011.62 600.202 1011.98 599.986 1012.28 599.683L1012.64 600.19C1012.29 600.534 1011.86 600.78 1011.36 600.928C1010.87 601.077 1010.34 601.119 1009.79 601.054C1009.07 600.969 1008.44 600.736 1007.9 600.354C1007.37 599.972 1006.96 599.483 1006.69 598.888C1006.43 598.293 1006.33 597.638 1006.4 596.923C1006.47 596.217 1006.68 595.602 1007.03 595.08C1007.39 594.549 1007.84 594.156 1008.4 593.902C1008.96 593.648 1009.57 593.559 1010.23 593.636C1010.89 593.713 1011.46 593.94 1011.95 594.317C1012.45 594.685 1012.82 595.166 1013.06 595.758C1013.32 596.351 1013.41 597.001 1013.34 597.707L1013.31 597.9ZM1010.17 594.25C1009.66 594.19 1009.19 594.252 1008.76 594.437C1008.33 594.612 1007.97 594.894 1007.68 595.283C1007.4 595.664 1007.22 596.112 1007.13 596.628L1012.69 597.279C1012.71 596.755 1012.62 596.274 1012.41 595.836C1012.2 595.398 1011.9 595.039 1011.51 594.759C1011.13 594.479 1010.68 594.309 1010.17 594.25ZM1016.35 596.016C1016.63 595.512 1017.01 595.149 1017.51 594.926C1018.01 594.693 1018.6 594.616 1019.28 594.695L1019.21 595.378L1019.05 595.345C1018.24 595.25 1017.58 595.432 1017.08 595.89C1016.58 596.338 1016.29 597.013 1016.2 597.915L1015.84 601.705L1015.14 601.624L1015.84 594.349L1016.5 594.427L1016.35 596.016Z" fill="black"/>
</g>
<defs>
<clipPath id="clip0">
<rect width="1440" height="1024" fill="white"/>
</clipPath>
</defs>
</svg>
