<svg width="1018" height="795" viewBox="0 0 1018 795" fill="none" xmlns="http://www.w3.org/2000/svg">
<path d="M573.769 352.45C573.769 352.45 583.313 353.815 627.214 352.867C639.088 360.373 690.561 355.603 710.851 353.609C734.296 358.141 745.895 346.322 735.48 339.929C732.299 337.941 726.967 336.49 719.255 336.192C719.758 310.772 659.378 302.405 642.555 339.505C633.647 332.012 615.075 332.688 613.853 342.817C596.674 339.538 583.103 343.241 576.893 347.123C573.636 349.217 572.408 351.31 573.769 352.45Z" fill="white"/>
<path opacity="0.08" d="M573.771 352.45C573.771 352.45 583.315 353.815 627.216 352.867C639.088 360.373 690.56 355.603 710.85 353.609C734.296 358.141 745.895 346.322 735.48 339.929C735.562 341.519 735.041 343.08 734.029 344.275C731.656 347.11 727.17 348.283 723.079 347.925C718.988 347.567 715.209 345.885 711.786 343.95C710.15 343.029 708.471 342.016 706.517 341.817C703.043 341.466 700.04 343.751 697.61 345.865C695.593 342.473 690.49 340.638 686.196 341.757C681.901 342.877 678.923 346.832 679.547 350.588C671.148 349.025 662.578 353.205 654.027 352.536C644.254 351.774 635.45 344.798 625.88 346.574C623.45 347.017 621.21 348.011 618.78 348.435C616.349 348.859 613.938 348.68 611.501 348.634C603.682 348.482 595.856 349.528 588.049 349.118C584.27 348.943 580.527 348.275 576.908 347.13C573.638 349.217 572.41 351.31 573.771 352.45Z" fill="#21252B"/>
<path d="M399.699 459.609H318.443V705.821H399.699V459.609Z" fill="#DADDDF"/>
<path d="M391.821 473.509H363.393V488.461H391.821V473.509Z" fill="#868A91"/>
<g opacity="0.2">
<g opacity="0.2">
<path opacity="0.2" d="M389.931 473.509H363.393V488.461H389.931V473.509Z" fill="white"/>
</g>
</g>
<path d="M358.94 473.509H330.512V488.461H358.94V473.509Z" fill="#868A91"/>
<g opacity="0.2">
<g opacity="0.2">
<path opacity="0.2" d="M357.05 473.509H330.512V488.461H357.05V473.509Z" fill="white"/>
</g>
</g>
<path d="M391.821 501.652H363.393V516.605H391.821V501.652Z" fill="#868A91"/>
<g opacity="0.2">
<g opacity="0.2">
<path opacity="0.2" d="M389.931 501.652H363.393V516.605H389.931V501.652Z" fill="white"/>
</g>
</g>
<path d="M358.94 501.652H330.512V516.605H358.94V501.652Z" fill="#868A91"/>
<g opacity="0.2">
<g opacity="0.2">
<path opacity="0.2" d="M357.05 501.652H330.512V516.605H357.05V501.652Z" fill="white"/>
</g>
</g>
<path d="M391.821 537.619H363.393V552.571H391.821V537.619Z" fill="#868A91"/>
<g opacity="0.2">
<g opacity="0.2">
<path opacity="0.2" d="M389.931 537.619H363.393V552.571H389.931V537.619Z" fill="white"/>
</g>
</g>
<path d="M358.94 537.619H330.512V552.571H358.94V537.619Z" fill="#868A91"/>
<g opacity="0.2">
<g opacity="0.2">
<path opacity="0.2" d="M357.05 537.619H330.512V552.571H357.05V537.619Z" fill="white"/>
</g>
</g>
<path d="M391.821 558.288H363.393V573.241H391.821V558.288Z" fill="#868A91"/>
<g opacity="0.2">
<g opacity="0.2">
<path opacity="0.2" d="M389.931 558.288H363.393V573.241H389.931V558.288Z" fill="white"/>
</g>
</g>
<path d="M358.94 558.288H330.512V573.241H358.94V558.288Z" fill="#868A91"/>
<g opacity="0.2">
<g opacity="0.2">
<path opacity="0.2" d="M357.05 558.288H330.512V573.241H357.05V558.288Z" fill="white"/>
</g>
</g>
<path d="M391.821 592.235H363.393V607.187H391.821V592.235Z" fill="#868A91"/>
<g opacity="0.2">
<g opacity="0.2">
<path opacity="0.2" d="M389.931 592.235H363.393V607.187H389.931V592.235Z" fill="white"/>
</g>
</g>
<path d="M358.94 592.235H330.512V607.187H358.94V592.235Z" fill="#868A91"/>
<g opacity="0.2">
<g opacity="0.2">
<path opacity="0.2" d="M357.05 592.235H330.512V607.187H357.05V592.235Z" fill="white"/>
</g>
</g>
<path d="M391.821 612.906H363.393V627.859H391.821V612.906Z" fill="#868A91"/>
<g opacity="0.2">
<g opacity="0.2">
<path opacity="0.2" d="M389.931 612.906H363.393V627.859H389.931V612.906Z" fill="white"/>
</g>
</g>
<path d="M358.94 612.906H330.512V627.859H358.94V612.906Z" fill="#868A91"/>
<g opacity="0.2">
<g opacity="0.2">
<path opacity="0.2" d="M357.05 612.906H330.512V627.859H357.05V612.906Z" fill="white"/>
</g>
</g>
<path d="M391.821 649.853H363.393V664.806H391.821V649.853Z" fill="#868A91"/>
<g opacity="0.2">
<g opacity="0.2">
<path opacity="0.2" d="M389.931 649.853H363.393V664.806H389.931V649.853Z" fill="white"/>
</g>
</g>
<path d="M358.94 649.853H330.512V664.806H358.94V649.853Z" fill="#868A91"/>
<g opacity="0.2">
<g opacity="0.2">
<path opacity="0.2" d="M357.05 649.853H330.512V664.806H357.05V649.853Z" fill="white"/>
</g>
</g>
<path d="M391.821 677.148H363.393V692.101H391.821V677.148Z" fill="#868A91"/>
<g opacity="0.2">
<g opacity="0.2">
<path opacity="0.2" d="M389.931 677.148H363.393V692.101H389.931V677.148Z" fill="white"/>
</g>
</g>
<path d="M358.94 677.148H330.512V692.101H358.94V677.148Z" fill="#868A91"/>
<g opacity="0.2">
<g opacity="0.2">
<path opacity="0.2" d="M357.05 677.148H330.512V692.101H357.05V677.148Z" fill="white"/>
</g>
</g>
<path d="M404.733 451.282H287.65V460.278H404.733V451.282Z" fill="#868A91"/>
<path d="M318.442 460.193H292.884V705.821H318.442V460.193Z" fill="#B2B6BB"/>
<path opacity="0.2" d="M399.697 525.409H292.884V527.979H399.697V525.409Z" fill="black"/>
<path opacity="0.2" d="M399.697 581.032H292.884V583.602H399.697V581.032Z" fill="black"/>
<path opacity="0.2" d="M399.697 637.153H292.884V639.723H399.697V637.153Z" fill="black"/>
<path opacity="0.2" d="M318.506 451.282H287.451V460.06H318.506V451.282Z" fill="black"/>
<path d="M203.536 433.449V705.821L203.447 705.655H165.743V433.449H203.536Z" fill="#B2B6BB"/>
<g opacity="0.5">
<g opacity="0.5">
<path opacity="0.5" d="M296.746 448.249H293.476V462.327H296.746V448.249Z" fill="white"/>
</g>
</g>
<g opacity="0.5">
<g opacity="0.5">
<path opacity="0.5" d="M296.746 471.933H293.476V486.011H296.746V471.933Z" fill="white"/>
</g>
</g>
<g opacity="0.5">
<g opacity="0.5">
<path opacity="0.5" d="M296.746 496.558H293.476V510.636H296.746V496.558Z" fill="white"/>
</g>
</g>
<g opacity="0.5">
<g opacity="0.5">
<path opacity="0.5" d="M296.746 521.183H293.476V535.261H296.746V521.183Z" fill="white"/>
</g>
</g>
<g opacity="0.5">
<g opacity="0.5">
<path opacity="0.5" d="M296.746 545.808H293.476V559.886H296.746V545.808Z" fill="white"/>
</g>
</g>
<g opacity="0.5">
<g opacity="0.5">
<path opacity="0.5" d="M296.746 570.433H293.476V584.511H296.746V570.433Z" fill="white"/>
</g>
</g>
<g opacity="0.5">
<g opacity="0.5">
<path opacity="0.5" d="M296.746 597.57H293.476V611.648H296.746V597.57Z" fill="white"/>
</g>
</g>
<g opacity="0.5">
<g opacity="0.5">
<path opacity="0.5" d="M296.746 624.712H293.476V638.79H296.746V624.712Z" fill="white"/>
</g>
</g>
<g opacity="0.5">
<g opacity="0.5">
<path opacity="0.5" d="M296.746 651.848H293.476V665.925H296.746V651.848Z" fill="white"/>
</g>
</g>
<g opacity="0.5">
<g opacity="0.5">
<path opacity="0.5" d="M296.746 678.983H293.476V693.061H296.746V678.983Z" fill="white"/>
</g>
</g>
<path d="M305.653 429.486H203.535V705.821H305.653V429.486Z" fill="#4D61FC"/>
<path d="M194.196 448.241H165.743V462.326H194.196V448.241Z" fill="#B2B6BB"/>
<path d="M194.196 471.409H165.743V485.487H194.196V471.409Z" fill="#B2B6BB"/>
<path d="M194.196 494.577H165.743V508.655H194.196V494.577Z" fill="#B2B6BB"/>
<path d="M194.196 521.183H165.743V535.261H194.196V521.183Z" fill="#B2B6BB"/>
<path d="M194.196 545.808H165.743V559.886H194.196V545.808Z" fill="#B2B6BB"/>
<path d="M194.196 570.433H165.743V584.511H194.196V570.433Z" fill="#B2B6BB"/>
<path d="M194.196 597.568H165.743V611.646H194.196V597.568Z" fill="#B2B6BB"/>
<path d="M194.196 624.705H165.743V638.783H194.196V624.705Z" fill="#B2B6BB"/>
<path d="M172.513 665.925H194.196V651.841H168.823" fill="#B2B6BB"/>
<g opacity="0.3">
<g opacity="0.3">
<path opacity="0.3" d="M194.194 448.241H165.741V462.326H194.194V448.241Z" fill="white"/>
</g>
</g>
<g opacity="0.3">
<g opacity="0.3">
<path opacity="0.3" d="M194.194 471.409H165.741V485.487H194.194V471.409Z" fill="white"/>
</g>
</g>
<g opacity="0.3">
<g opacity="0.3">
<path opacity="0.3" d="M194.194 494.575H165.741V508.654H194.194V494.575Z" fill="white"/>
</g>
</g>
<g opacity="0.3">
<g opacity="0.3">
<path opacity="0.3" d="M194.194 521.181H165.741V535.26H194.194V521.181Z" fill="white"/>
</g>
</g>
<g opacity="0.3">
<g opacity="0.3">
<path opacity="0.3" d="M194.194 545.807H165.741V559.885H194.194V545.807Z" fill="white"/>
</g>
</g>
<g opacity="0.3">
<g opacity="0.3">
<path opacity="0.3" d="M194.194 570.432H165.741V584.51H194.194V570.432Z" fill="white"/>
</g>
</g>
<g opacity="0.3">
<g opacity="0.3">
<path opacity="0.3" d="M194.194 597.568H165.741V611.646H194.194V597.568Z" fill="white"/>
</g>
</g>
<g opacity="0.3">
<g opacity="0.3">
<path opacity="0.3" d="M194.194 624.704H165.741V638.782H194.194V624.704Z" fill="white"/>
</g>
</g>
<g opacity="0.3">
<g opacity="0.3">
<path opacity="0.3" d="M194.194 665.925H165.856L165.716 651.841H194.194V665.925Z" fill="white"/>
</g>
</g>
<g opacity="0.3">
<g opacity="0.3">
<path opacity="0.3" d="M165.729 678.983H194.194V693.061H165.868L165.729 678.983Z" fill="white"/>
</g>
</g>
<path d="M305.653 429.486H203.535V705.821H305.653V429.486Z" fill="#DADDDF"/>
<path d="M296.744 448.249H212.448V462.327H296.744V448.249Z" fill="#868A91"/>
<g opacity="0.2">
<g opacity="0.2">
<path opacity="0.2" d="M293.474 448.249H212.448V462.327H293.474V448.249Z" fill="white"/>
</g>
</g>
<path d="M296.744 471.933H212.448V486.011H296.744V471.933Z" fill="#868A91"/>
<g opacity="0.2">
<g opacity="0.2">
<path opacity="0.2" d="M293.474 471.933H212.448V486.011H293.474V471.933Z" fill="white"/>
</g>
</g>
<path d="M296.744 496.558H212.448V510.636H296.744V496.558Z" fill="#868A91"/>
<g opacity="0.2">
<g opacity="0.2">
<path opacity="0.2" d="M293.474 496.558H212.448V510.636H293.474V496.558Z" fill="white"/>
</g>
</g>
<path d="M296.744 521.183H212.448V535.261H296.744V521.183Z" fill="#868A91"/>
<g opacity="0.2">
<g opacity="0.2">
<path opacity="0.2" d="M293.474 521.183H212.448V535.261H293.474V521.183Z" fill="white"/>
</g>
</g>
<path d="M296.744 545.808H212.448V559.886H296.744V545.808Z" fill="#868A91"/>
<g opacity="0.2">
<g opacity="0.2">
<path opacity="0.2" d="M293.474 545.808H212.448V559.886H293.474V545.808Z" fill="white"/>
</g>
</g>
<path d="M296.744 570.433H212.448V584.511H296.744V570.433Z" fill="#868A91"/>
<g opacity="0.2">
<g opacity="0.2">
<path opacity="0.2" d="M293.474 570.433H212.448V584.511H293.474V570.433Z" fill="white"/>
</g>
</g>
<path d="M296.744 597.568H212.448V611.646H296.744V597.568Z" fill="#868A91"/>
<g opacity="0.2">
<g opacity="0.2">
<path opacity="0.2" d="M293.474 597.568H212.448V611.646H293.474V597.568Z" fill="white"/>
</g>
</g>
<path d="M296.744 624.712H212.448V638.79H296.744V624.712Z" fill="#868A91"/>
<g opacity="0.2">
<g opacity="0.2">
<path opacity="0.2" d="M293.474 624.712H212.448V638.79H293.474V624.712Z" fill="white"/>
</g>
</g>
<path d="M296.744 651.847H212.448V665.925H296.744V651.847Z" fill="#868A91"/>
<g opacity="0.2">
<g opacity="0.2">
<path opacity="0.2" d="M293.474 651.847H212.448V665.925H293.474V651.847Z" fill="white"/>
</g>
</g>
<path d="M296.744 678.983H212.448V693.061H296.744V678.983Z" fill="#868A91"/>
<g opacity="0.2">
<g opacity="0.2">
<path opacity="0.2" d="M293.474 678.983H212.448V693.061H293.474V678.983Z" fill="white"/>
</g>
</g>
<path d="M203.535 421.278H167.918V426.697H203.535V421.278Z" fill="#4D61FC"/>
<path d="M305.653 419.959H167.918V426.703H305.653V419.959Z" fill="#DADDDF"/>
<path d="M308.542 426.703H163.089V433.447H308.542V426.703Z" fill="#B2B6BB"/>
<path d="M308.542 414.54H163.089V421.284H308.542V414.54Z" fill="#B2B6BB"/>
<g opacity="0.05">
<g opacity="0.05">
<path opacity="0.05" d="M308.542 426.703H163.089V433.447H308.542V426.703Z" fill="#B2B6BB"/>
</g>
</g>
<g opacity="0.05">
<g opacity="0.05">
<path opacity="0.05" d="M308.542 414.54H163.089V421.284H308.542V414.54Z" fill="#B2B6BB"/>
</g>
</g>
<g opacity="0.2">
<g opacity="0.2">
<path opacity="0.2" d="M203.535 426.703H163.089V433.447H203.535V426.703Z" fill="black"/>
</g>
</g>
<g opacity="0.2">
<g opacity="0.2">
<path opacity="0.2" d="M203.535 414.54H163.089V421.284H203.535V414.54Z" fill="black"/>
</g>
</g>
<g opacity="0.2">
<g opacity="0.2">
<path opacity="0.2" d="M203.535 421.278H167.918V426.697H203.535V421.278Z" fill="black"/>
</g>
</g>
<path d="M718.301 433.449V705.821L718.212 705.655H680.501V433.449H718.301Z" fill="#B2B6BB"/>
<g opacity="0.5">
<g opacity="0.5">
<path opacity="0.5" d="M811.505 448.249H808.234V462.327H811.505V448.249Z" fill="white"/>
</g>
</g>
<g opacity="0.5">
<g opacity="0.5">
<path opacity="0.5" d="M811.505 471.933H808.234V486.011H811.505V471.933Z" fill="white"/>
</g>
</g>
<g opacity="0.5">
<g opacity="0.5">
<path opacity="0.5" d="M811.505 496.558H808.234V510.636H811.505V496.558Z" fill="white"/>
</g>
</g>
<g opacity="0.5">
<g opacity="0.5">
<path opacity="0.5" d="M811.505 521.183H808.234V535.261H811.505V521.183Z" fill="white"/>
</g>
</g>
<g opacity="0.5">
<g opacity="0.5">
<path opacity="0.5" d="M811.505 545.808H808.234V559.886H811.505V545.808Z" fill="white"/>
</g>
</g>
<g opacity="0.5">
<g opacity="0.5">
<path opacity="0.5" d="M811.505 570.433H808.234V584.511H811.505V570.433Z" fill="white"/>
</g>
</g>
<g opacity="0.5">
<g opacity="0.5">
<path opacity="0.5" d="M811.505 597.57H808.234V611.648H811.505V597.57Z" fill="white"/>
</g>
</g>
<g opacity="0.5">
<g opacity="0.5">
<path opacity="0.5" d="M811.505 624.712H808.234V638.79H811.505V624.712Z" fill="white"/>
</g>
</g>
<g opacity="0.5">
<g opacity="0.5">
<path opacity="0.5" d="M811.505 651.848H808.234V665.925H811.505V651.848Z" fill="white"/>
</g>
</g>
<g opacity="0.5">
<g opacity="0.5">
<path opacity="0.5" d="M811.505 678.983H808.234V693.061H811.505V678.983Z" fill="white"/>
</g>
</g>
<path d="M820.419 429.486H718.301V705.821H820.419V429.486Z" fill="#4D61FC"/>
<path d="M708.954 448.241H680.501V462.326H708.954V448.241Z" fill="#B2B6BB"/>
<path d="M708.954 471.409H680.501V485.487H708.954V471.409Z" fill="#B2B6BB"/>
<path d="M708.954 494.577H680.501V508.655H708.954V494.577Z" fill="#B2B6BB"/>
<path d="M708.954 521.183H680.501V535.261H708.954V521.183Z" fill="#B2B6BB"/>
<path d="M708.954 545.808H680.501V559.886H708.954V545.808Z" fill="#B2B6BB"/>
<path d="M708.954 570.433H680.501V584.511H708.954V570.433Z" fill="#B2B6BB"/>
<path d="M708.954 597.568H680.501V611.646H708.954V597.568Z" fill="#B2B6BB"/>
<path d="M708.954 624.705H680.501V638.783H708.954V624.705Z" fill="#B2B6BB"/>
<path d="M687.277 665.925H708.954V651.841H683.587" fill="#B2B6BB"/>
<g opacity="0.3">
<g opacity="0.3">
<path opacity="0.3" d="M708.954 448.241H680.501V462.326H708.954V448.241Z" fill="white"/>
</g>
</g>
<g opacity="0.3">
<g opacity="0.3">
<path opacity="0.3" d="M708.954 471.409H680.501V485.487H708.954V471.409Z" fill="white"/>
</g>
</g>
<g opacity="0.3">
<g opacity="0.3">
<path opacity="0.3" d="M708.954 494.575H680.501V508.654H708.954V494.575Z" fill="white"/>
</g>
</g>
<g opacity="0.3">
<g opacity="0.3">
<path opacity="0.3" d="M708.954 521.181H680.501V535.26H708.954V521.181Z" fill="white"/>
</g>
</g>
<g opacity="0.3">
<g opacity="0.3">
<path opacity="0.3" d="M708.954 545.807H680.501V559.885H708.954V545.807Z" fill="white"/>
</g>
</g>
<g opacity="0.3">
<g opacity="0.3">
<path opacity="0.3" d="M708.954 570.432H680.501V584.51H708.954V570.432Z" fill="white"/>
</g>
</g>
<g opacity="0.3">
<g opacity="0.3">
<path opacity="0.3" d="M708.954 597.568H680.501V611.646H708.954V597.568Z" fill="white"/>
</g>
</g>
<g opacity="0.3">
<g opacity="0.3">
<path opacity="0.3" d="M708.954 624.704H680.501V638.782H708.954V624.704Z" fill="white"/>
</g>
</g>
<g opacity="0.3">
<g opacity="0.3">
<path opacity="0.3" d="M708.954 665.925H680.622L680.482 651.841H708.954V665.925Z" fill="white"/>
</g>
</g>
<g opacity="0.3">
<g opacity="0.3">
<path opacity="0.3" d="M680.495 678.983H708.954V693.061H680.635L680.495 678.983Z" fill="white"/>
</g>
</g>
<path d="M820.419 429.486H718.301V705.821H820.419V429.486Z" fill="#DADDDF"/>
<path d="M811.505 448.249H727.208V462.327H811.505V448.249Z" fill="#868A91"/>
<g opacity="0.2">
<g opacity="0.2">
<path opacity="0.2" d="M808.235 448.249H727.208V462.327H808.235V448.249Z" fill="white"/>
</g>
</g>
<path d="M811.505 471.933H727.208V486.011H811.505V471.933Z" fill="#868A91"/>
<g opacity="0.2">
<g opacity="0.2">
<path opacity="0.2" d="M808.235 471.933H727.208V486.011H808.235V471.933Z" fill="white"/>
</g>
</g>
<path d="M811.505 496.558H727.208V510.636H811.505V496.558Z" fill="#868A91"/>
<g opacity="0.2">
<g opacity="0.2">
<path opacity="0.2" d="M808.235 496.558H727.208V510.636H808.235V496.558Z" fill="white"/>
</g>
</g>
<path d="M811.505 521.183H727.208V535.261H811.505V521.183Z" fill="#868A91"/>
<g opacity="0.2">
<g opacity="0.2">
<path opacity="0.2" d="M808.235 521.183H727.208V535.261H808.235V521.183Z" fill="white"/>
</g>
</g>
<path d="M811.505 545.808H727.208V559.886H811.505V545.808Z" fill="#868A91"/>
<g opacity="0.2">
<g opacity="0.2">
<path opacity="0.2" d="M808.235 545.808H727.208V559.886H808.235V545.808Z" fill="white"/>
</g>
</g>
<path d="M811.505 570.433H727.208V584.511H811.505V570.433Z" fill="#868A91"/>
<g opacity="0.2">
<g opacity="0.2">
<path opacity="0.2" d="M808.235 570.433H727.208V584.511H808.235V570.433Z" fill="white"/>
</g>
</g>
<path d="M811.505 597.568H727.208V611.646H811.505V597.568Z" fill="#868A91"/>
<g opacity="0.2">
<g opacity="0.2">
<path opacity="0.2" d="M808.235 597.568H727.208V611.646H808.235V597.568Z" fill="white"/>
</g>
</g>
<path d="M811.505 624.712H727.208V638.79H811.505V624.712Z" fill="#868A91"/>
<g opacity="0.2">
<g opacity="0.2">
<path opacity="0.2" d="M808.235 624.712H727.208V638.79H808.235V624.712Z" fill="white"/>
</g>
</g>
<path d="M811.505 651.847H727.208V665.925H811.505V651.847Z" fill="#868A91"/>
<g opacity="0.2">
<g opacity="0.2">
<path opacity="0.2" d="M808.235 651.847H727.208V665.925H808.235V651.847Z" fill="white"/>
</g>
</g>
<path d="M811.505 678.983H727.208V693.061H811.505V678.983Z" fill="#868A91"/>
<g opacity="0.2">
<g opacity="0.2">
<path opacity="0.2" d="M808.235 678.983H727.208V693.061H808.235V678.983Z" fill="white"/>
</g>
</g>
<path d="M718.301 421.278H682.684V426.697H718.301V421.278Z" fill="#4D61FC"/>
<path d="M820.419 419.959H682.684V426.703H820.419V419.959Z" fill="#DADDDF"/>
<path d="M823.308 426.703H677.854V433.447H823.308V426.703Z" fill="#B2B6BB"/>
<path d="M823.308 414.54H677.854V421.284H823.308V414.54Z" fill="#B2B6BB"/>
<g opacity="0.05">
<g opacity="0.05">
<path opacity="0.05" d="M823.308 426.703H677.854V433.447H823.308V426.703Z" fill="#B2B6BB"/>
</g>
</g>
<g opacity="0.05">
<g opacity="0.05">
<path opacity="0.05" d="M823.308 414.54H677.854V421.284H823.308V414.54Z" fill="#B2B6BB"/>
</g>
</g>
<g opacity="0.2">
<g opacity="0.2">
<path opacity="0.2" d="M718.301 426.703H677.854V433.447H718.301V426.703Z" fill="black"/>
</g>
</g>
<g opacity="0.2">
<g opacity="0.2">
<path opacity="0.2" d="M718.301 414.54H677.854V421.284H718.301V414.54Z" fill="black"/>
</g>
</g>
<g opacity="0.2">
<g opacity="0.2">
<path opacity="0.2" d="M718.301 421.278H682.684V426.697H718.301V421.278Z" fill="black"/>
</g>
</g>
<path d="M595.708 472.94L592.005 470.064C591.546 469.708 591.017 469.463 590.455 469.348C589.893 469.234 589.314 469.252 588.76 469.402L579.694 471.846L530.365 452.793L507.969 426.293L494.366 441.358L516.966 465.029C518.478 466.717 520.423 467.917 522.571 468.488L577.225 481.963C583.588 483.725 588.843 478.319 588.843 478.319L593.869 482.102L593.278 483.805C593.055 484.447 592.617 484.984 592.043 485.315L586.813 488.343C586.56 488.487 586.365 488.723 586.266 489.005C586.215 489.168 586.198 489.34 586.216 489.511C586.233 489.682 586.285 489.847 586.368 489.994C586.451 490.143 586.563 490.271 586.697 490.371C586.831 490.471 586.983 490.541 587.144 490.575L587.431 490.635C587.644 490.677 587.864 490.656 588.067 490.575L594.894 487.846C595.395 487.644 595.849 487.334 596.227 486.937C596.606 486.54 596.899 486.064 597.089 485.54L599.519 478.915L595.708 472.94Z" fill="#FC9D9D"/>
<path opacity="0.15" d="M577.079 480.067L520.834 463.339L497.796 437.098L493.73 440.8L516.959 465.029C518.472 466.715 520.417 467.916 522.565 468.487L577.219 481.962C582.442 483.413 586.928 480.014 588.359 478.761C581.291 482.259 577.079 480.067 577.079 480.067Z" fill="black"/>
<path d="M491.033 403.203L510.865 426.576L492.91 443.106L475.662 419.951L491.033 403.203Z" fill="#4D61FC"/>
<path d="M491.776 441.444L509.636 425.134L510.908 426.651L493.093 443.213L491.776 441.444Z" fill="#F4F4F4"/>
<path opacity="0.1" d="M595.709 472.938L592.006 470.063C591.548 469.707 591.018 469.462 590.456 469.348C589.895 469.232 589.315 469.251 588.762 469.401L579.695 471.845L530.366 452.792L509.37 427.961L510.878 426.576L491.046 403.203L475.662 419.958L492.91 443.106L494.533 441.615L516.98 465.028C518.491 466.715 520.437 467.916 522.585 468.486L577.239 481.962C577.532 482.048 577.824 482.107 578.111 482.16H578.276C578.556 482.207 578.83 482.24 579.103 482.26H579.256C579.517 482.26 579.778 482.26 580.032 482.26H580.102C580.369 482.26 580.63 482.26 580.891 482.207H581.063C581.311 482.207 581.559 482.134 581.801 482.087H581.941C582.17 482.041 582.386 481.988 582.577 481.928H582.685C582.921 481.862 583.143 481.789 583.366 481.716L583.538 481.657C583.754 481.577 583.964 481.498 584.174 481.405L584.289 481.359L584.836 481.107L584.95 481.054L585.517 480.756L585.65 480.683C585.828 480.584 586.007 480.484 586.172 480.378H586.236L586.687 480.08L586.776 480.027L587.26 479.649L587.336 479.59C587.623 479.384 587.877 479.186 588.087 479.013C588.583 478.603 588.857 478.351 588.857 478.351L589.016 478.47L593.883 482.134L593.292 483.836C593.069 484.479 592.631 485.016 592.057 485.347L586.827 488.375C586.574 488.52 586.379 488.755 586.28 489.037C586.229 489.201 586.212 489.373 586.229 489.543C586.247 489.714 586.299 489.878 586.382 490.027C586.465 490.175 586.577 490.303 586.71 490.403C586.844 490.503 586.997 490.573 587.158 490.607L587.445 490.667C587.658 490.709 587.878 490.688 588.081 490.607L594.895 487.845C595.396 487.643 595.851 487.333 596.229 486.936C596.607 486.539 596.9 486.063 597.09 485.539L599.521 478.914L595.709 472.938Z" fill="black"/>
<path d="M552.851 623.114L552.819 637.762L571.162 637.291L573.039 620.179L552.851 623.114Z" fill="#FC9D9D"/>
<path opacity="0.15" d="M572.353 625.056L562.325 625.964C561.478 626.274 560.744 626.85 560.224 627.613C559.704 628.376 559.425 629.288 559.424 630.224V637.591L552.852 637.783V623.605L572.575 623.115L572.353 625.056Z" fill="black"/>
<path d="M551.667 635.828L551.794 650.622C551.793 651.188 551.894 651.75 552.093 652.278C552.28 652.793 552.559 653.267 552.914 653.676C553.257 654.068 553.675 654.382 554.142 654.597C554.595 654.81 555.088 654.918 555.586 654.915L599.264 654.504C599.475 654.5 599.683 654.45 599.874 654.357C600.065 654.263 600.234 654.128 600.371 653.961C600.671 653.607 600.832 653.148 600.823 652.676C600.809 650.977 600.325 649.319 599.43 647.899C598.584 646.544 597.341 645.508 595.886 644.944L585.986 641.301L573.426 630.237C572.815 629.677 572.022 629.382 571.209 629.413C570.396 629.444 569.625 629.798 569.055 630.403L563.571 635.888C563.186 636.281 562.707 636.558 562.184 636.69C561.672 636.817 561.137 636.794 560.638 636.623L553.601 634.172C553.377 634.094 553.138 634.078 552.907 634.126C552.673 634.171 552.454 634.278 552.271 634.437C552.076 634.601 551.923 634.813 551.826 635.053C551.719 635.296 551.665 635.561 551.667 635.828Z" fill="#4D61FC"/>
<path d="M551.667 635.828L551.794 650.622C551.793 651.188 551.894 651.75 552.093 652.278C552.28 652.793 552.559 653.267 552.914 653.676C553.257 654.068 553.675 654.382 554.142 654.597C554.595 654.81 555.088 654.918 555.586 654.915L599.264 654.504C599.475 654.5 599.683 654.45 599.874 654.357C600.065 654.263 600.234 654.128 600.371 653.961C600.671 653.607 600.832 653.148 600.823 652.676C600.809 650.977 600.325 649.319 599.43 647.899C598.584 646.544 597.341 645.508 595.886 644.944L585.986 641.301L573.426 630.237C572.815 629.677 572.022 629.382 571.209 629.413C570.396 629.444 569.625 629.798 569.055 630.403L563.571 635.888C563.186 636.281 562.707 636.558 562.184 636.69C561.672 636.817 561.137 636.794 560.638 636.623L553.601 634.172C553.377 634.094 553.138 634.078 552.907 634.126C552.673 634.171 552.454 634.278 552.271 634.437C552.076 634.601 551.923 634.813 551.826 635.053C551.719 635.296 551.665 635.561 551.667 635.828Z" fill="#3F4249"/>
<path d="M555.612 654.908L599.265 654.497C599.476 654.492 599.684 654.44 599.874 654.347C600.065 654.253 600.235 654.119 600.373 653.954C600.672 653.599 600.833 653.14 600.824 652.668C600.833 652.058 600.759 651.449 600.608 650.86L551.877 651.31C552.018 652.296 552.465 653.205 553.15 653.901C553.81 654.545 554.681 654.905 555.587 654.908H555.612Z" fill="#21252B"/>
<path opacity="0.3" d="M555.612 654.908L599.265 654.497C599.476 654.492 599.684 654.44 599.874 654.347C600.065 654.253 600.235 654.119 600.373 653.954C600.672 653.599 600.833 653.14 600.824 652.668C600.833 652.058 600.759 651.449 600.608 650.86L551.877 651.31C552.018 652.296 552.465 653.205 553.15 653.901C553.81 654.545 554.681 654.905 555.587 654.908H555.612Z" fill="black"/>
<path d="M573.197 636.145C573.149 636.144 573.102 636.133 573.058 636.112C573.015 636.092 572.975 636.062 572.943 636.026C572.903 635.984 572.873 635.935 572.854 635.88C572.833 635.825 572.822 635.767 572.822 635.708C572.822 635.647 572.833 635.587 572.854 635.529C572.873 635.477 572.901 635.427 572.936 635.383L575.558 632.071C575.591 632.028 575.634 631.993 575.682 631.969C575.731 631.946 575.783 631.932 575.838 631.932C575.944 631.936 576.044 631.984 576.117 632.064C576.196 632.156 576.239 632.273 576.238 632.395C576.239 632.513 576.198 632.626 576.124 632.713L573.509 636.026C573.417 636.096 573.31 636.14 573.197 636.152V636.145Z" fill="#F4F4F4"/>
<path d="M575.309 637.987C575.262 637.987 575.214 637.978 575.171 637.958C575.127 637.939 575.088 637.911 575.055 637.875C575.015 637.833 574.985 637.784 574.966 637.729C574.957 637.672 574.957 637.614 574.966 637.557C574.956 637.496 574.956 637.433 574.966 637.371C574.984 637.318 575.012 637.269 575.048 637.226L577.67 633.913C577.704 633.872 577.746 633.839 577.793 633.816C577.84 633.793 577.891 633.781 577.943 633.781C578.049 633.783 578.15 633.828 578.223 633.906C578.299 633.996 578.34 634.112 578.338 634.231C578.342 634.35 578.303 634.466 578.23 634.556L575.615 637.868C575.522 637.931 575.418 637.971 575.309 637.987Z" fill="#F4F4F4"/>
<path d="M577.391 639.849C577.295 639.847 577.205 639.806 577.136 639.737C577.064 639.646 577.023 639.531 577.022 639.412C577.02 639.294 577.059 639.179 577.13 639.087L579.751 635.775C579.785 635.736 579.826 635.704 579.872 635.682C579.918 635.661 579.968 635.65 580.018 635.65C580.069 635.65 580.119 635.661 580.165 635.682C580.211 635.704 580.252 635.736 580.286 635.775C580.357 635.86 580.397 635.968 580.4 636.08C580.407 636.192 580.375 636.302 580.311 636.391L577.69 639.704C577.608 639.781 577.501 639.824 577.391 639.823V639.849Z" fill="#F4F4F4"/>
<path opacity="0.15" d="M600.823 652.668C600.828 652.273 600.798 651.878 600.734 651.489C600.57 650.209 600.135 648.982 599.461 647.898C598.615 646.542 597.373 645.506 595.918 644.943L585.986 641.299L580.336 636.337C580.369 636.272 580.385 636.199 580.38 636.125C580.377 636.013 580.337 635.905 580.266 635.82C580.232 635.781 580.191 635.75 580.145 635.728C580.099 635.706 580.049 635.695 579.999 635.695C579.948 635.695 579.898 635.706 579.852 635.728C579.806 635.75 579.764 635.781 579.731 635.82L578.262 634.495C578.305 634.422 578.327 634.336 578.325 634.25C578.327 634.131 578.286 634.015 578.211 633.926C578.137 633.847 578.036 633.802 577.931 633.8C577.879 633.801 577.827 633.812 577.78 633.835C577.733 633.858 577.691 633.891 577.657 633.932L576.175 632.607C576.216 632.535 576.24 632.453 576.245 632.369C576.245 632.247 576.202 632.128 576.124 632.038C576.051 631.957 575.95 631.91 575.844 631.905C575.79 631.906 575.738 631.918 575.689 631.943C575.641 631.967 575.598 632.001 575.564 632.044L573.445 630.183C573.037 629.824 572.553 629.572 572.033 629.447L573.057 620.126L552.869 623.061V634.098C552.667 634.151 552.478 634.248 552.315 634.383C552.121 634.547 551.968 634.759 551.87 634.999C551.764 635.243 551.71 635.507 551.711 635.774L551.838 650.568C551.838 651.134 551.939 651.696 552.137 652.224C552.325 652.739 552.604 653.213 552.958 653.622C553.302 654.014 553.72 654.327 554.186 654.543C554.64 654.755 555.133 654.864 555.63 654.861L599.309 654.45C599.52 654.446 599.727 654.396 599.918 654.302C600.109 654.209 600.279 654.074 600.416 653.907C600.716 653.552 600.876 653.094 600.868 652.621L600.823 652.668Z" fill="black"/>
<path d="M502.204 491.469L566.694 510.913C566.694 510.913 581.856 514.358 580.615 525.594L573.738 624.022H566.694L556.839 528.516L494.881 498.511L502.204 491.469Z" fill="#21252B"/>
<path opacity="0.3" d="M502.204 491.469L566.694 510.913C566.694 510.913 581.856 514.358 580.615 525.594L573.738 624.022H566.694L556.839 528.516L494.881 498.511L502.204 491.469Z" fill="black"/>
<path d="M574.534 624.075H551.629V617.45H575.17L574.534 624.075Z" fill="#21252B"/>
<path opacity="0.4" d="M574.534 624.075H551.629V617.45H575.17L574.534 624.075Z" fill="black"/>
<path opacity="0.3" d="M558.628 617.45H551.629V624.075H558.628V617.45Z" fill="black"/>
<path d="M336.13 596.455L331.135 595.236C329.676 594.877 328.413 593.929 327.624 592.602C326.836 591.273 326.586 589.674 326.929 588.154L332.147 574.857C332.695 573.447 333.74 572.308 335.068 571.673C336.397 571.039 337.908 570.958 339.292 571.445L342.371 572.247L336.13 596.455Z" fill="#B2B6BB"/>
<path d="M692.043 706.159C718.657 704.827 739.202 681.282 737.923 653.563C736.644 625.846 714.032 604.456 687.411 605.787C660.79 607.119 640.252 630.668 641.525 658.385C642.804 686.098 665.422 707.49 692.043 706.159Z" fill="#21252B"/>
<path d="M655.847 655.477C655.751 662.452 657.641 669.304 661.287 675.154C664.926 681.01 670.156 685.608 676.302 688.371C682.455 691.133 689.256 691.935 695.848 690.67C702.433 689.411 708.515 686.145 713.319 681.282C718.129 676.419 721.438 670.185 722.844 663.361C724.243 656.54 723.671 649.438 721.196 642.956C718.721 636.473 714.452 630.9 708.935 626.941C703.419 622.983 696.904 620.816 690.204 620.716C685.757 620.649 681.341 621.495 677.206 623.207C673.07 624.917 669.303 627.459 666.109 630.687C662.922 633.915 660.37 637.766 658.608 642.019C656.852 646.273 655.91 650.845 655.847 655.477Z" fill="#FAFAFA"/>
<path d="M669.087 655.677C669.03 659.925 670.188 664.097 672.408 667.654C674.635 671.219 677.816 674.021 681.564 675.697C685.311 677.373 689.453 677.857 693.468 677.088C697.483 676.313 701.179 674.319 704.106 671.358C707.033 668.396 709.043 664.6 709.896 660.442C710.749 656.288 710.399 651.964 708.891 648.016C707.383 644.069 704.781 640.676 701.421 638.266C698.062 635.856 694.092 634.537 690.013 634.477C687.303 634.436 684.605 634.951 682.086 635.995C679.566 637.039 677.269 638.589 675.329 640.559C673.382 642.527 671.829 644.876 670.76 647.47C669.691 650.065 669.119 652.853 669.087 655.677Z" fill="#868A91"/>
<path d="M675.303 625.236L673.236 626.363C670.532 627.838 669.482 631.317 670.901 634.134L683.282 658.762C684.694 661.579 688.041 662.666 690.745 661.193L692.813 660.065C695.517 658.591 696.56 655.112 695.148 652.295L682.767 627.666C681.348 624.849 678.007 623.762 675.303 625.236Z" fill="#3F4249"/>
<path d="M666.79 582.337C666.79 582.337 716.195 566.781 736.625 622.663L633.272 655.98L666.79 582.337Z" fill="black"/>
<path d="M394.325 706.159C420.944 704.827 441.486 681.282 440.208 653.563C438.929 625.846 416.314 604.456 389.695 605.787C363.076 607.119 342.534 630.668 343.812 658.385C345.091 686.098 367.706 707.49 394.325 706.159Z" fill="#21252B"/>
<path d="M358.137 655.478C358.041 662.452 359.933 669.304 363.575 675.154C367.217 681.01 372.445 685.608 378.597 688.371C384.749 691.133 391.549 691.935 398.138 690.67C404.727 689.411 410.809 686.145 415.614 681.282C420.419 676.419 423.731 670.185 425.132 663.361C426.534 656.54 425.961 649.438 423.487 642.956C421.012 636.473 416.747 630.9 411.23 626.941C405.714 622.983 399.194 620.816 392.495 620.716C388.047 620.649 383.629 621.494 379.495 623.205C375.361 624.915 371.591 627.457 368.4 630.686C365.21 633.913 362.661 637.764 360.901 642.018C359.139 646.272 358.2 650.845 358.137 655.478Z" fill="#FAFAFA"/>
<path d="M371.378 655.677C371.324 659.925 372.481 664.097 374.703 667.654C376.924 671.219 380.11 674.021 383.858 675.697C387.606 677.373 391.748 677.857 395.76 677.088C399.772 676.313 403.474 674.319 406.398 671.358C409.322 668.396 411.337 664.6 412.189 660.442C413.041 656.288 412.689 651.964 411.181 648.016C409.673 644.069 407.075 640.676 403.714 638.266C400.354 635.856 396.384 634.537 392.304 634.477C389.592 634.436 386.9 634.951 384.38 635.995C381.86 637.039 379.562 638.589 377.619 640.559C375.676 642.527 374.124 644.876 373.053 647.47C371.982 650.065 371.413 652.853 371.378 655.677Z" fill="#868A91"/>
<path d="M432.25 642.035C432.25 642.035 437.645 643.056 440.724 632.409L473.447 637.809L474.643 650.058C474.643 650.058 473.103 674.134 432.262 670.119L432.25 642.035Z" fill="#3F4249"/>
<path d="M329.367 613.581C329.367 613.581 327.07 564.622 371.258 554.42V548.139H526.07V560.773C526.073 562.243 525.615 563.674 524.766 564.848C520.045 571.373 504.438 595.071 510.768 615.257C518.187 638.915 520.503 641.333 520.503 641.333H608.611C608.611 641.333 619.281 627.328 619.745 606.565C620.21 585.802 611.919 550.299 605.748 527.602C600.123 506.972 596.567 489.713 596.567 489.713L623.003 480.538C623.003 480.538 671.912 547.126 673.903 550.875C675.895 554.625 682.69 563.357 681.093 582.49C679.496 601.623 635.543 660.711 623.957 667.363C612.371 674.014 601.981 674.438 591.591 676.101C582.575 677.545 515.877 676.591 498.425 676.313C492.36 676.273 486.415 674.558 481.202 671.331C475.984 668.019 472.059 662.586 467.726 653.636L458.538 634.914L329.367 613.581Z" fill="black"/>
<path d="M481.603 617.51C492.419 548.053 408.396 562.012 408.396 562.012C359.882 568.637 345.948 601.1 345.948 601.1L481.603 617.51Z" fill="#DADDDF"/>
<path d="M341.215 610.162L321.714 641.962C319.22 646.037 323.26 651.158 327.517 649.25C329.934 648.116 332.14 646.546 334.032 644.612C342.939 635.775 358.846 612.508 358.846 612.508L341.215 610.162Z" fill="#61656D"/>
<path d="M441.807 562.012C450.46 563.734 459.055 566.497 466.156 571.433C473.257 576.368 477.608 582.437 480.79 590.685C483.869 598.708 483.099 610.745 481.56 617.185L491.04 619.172C494.724 606.386 490.715 590.685 481.865 580.681C471.481 568.935 457.204 562.038 441.781 562.038" fill="#DADDDF"/>
<g opacity="0.1">
<path opacity="0.1" d="M441.807 562.012C450.46 563.734 459.055 566.497 466.156 571.433C473.257 576.368 477.608 582.437 480.79 590.685C483.869 598.708 483.099 610.745 481.56 617.185L491.04 619.172C494.724 606.386 490.715 590.685 481.865 580.681C471.481 568.935 457.204 562.038 441.781 562.038" fill="black"/>
</g>
<path d="M526.069 548.139C527.641 546.057 528.612 543.553 528.869 540.918C529.111 536.87 527.336 531.809 523.143 531.809H469.698C465.539 531.809 461.549 533.53 458.608 536.592C455.666 539.655 454.014 543.808 454.014 548.139H526.069Z" fill="#3F4249"/>
<path d="M596.554 489.713L587.258 469.527C586.031 466.756 585.832 463.609 586.7 460.694C587.569 457.779 589.442 455.302 591.96 453.74L619.758 436.468C621.21 435.567 622.87 435.09 624.561 435.09H630.574L632.979 475.894L623.709 479.59L629.575 489.528L596.554 489.713Z" fill="black"/>
<path d="M630.658 436.588C630.658 436.588 640.169 438.853 641.365 454.124C642.562 469.395 632.98 474.145 632.98 474.145L630.658 436.588Z" fill="#B2B6BB"/>
<path d="M599.798 470.441C599.798 470.441 580.571 479.934 578.223 481.491C576.594 482.571 575.195 484.459 576.473 487.785C578.649 493.456 587.64 488.123 587.64 488.123L605.537 478.808C605.537 478.808 612.415 475.423 609.877 471.196C607.033 466.459 599.798 470.441 599.798 470.441Z" fill="#21252B"/>
<path d="M600.716 431.949C600.716 439.561 597.357 445.729 593.208 445.729C589.06 445.729 585.701 439.561 585.701 431.949C585.701 424.337 589.06 418.163 593.208 418.163C597.357 418.163 600.716 424.35 600.716 431.949Z" fill="#21252B"/>
<path d="M594.441 441.444L599.347 461.941C600.098 461.545 600.696 460.894 601.044 460.095C601.391 459.296 601.466 458.398 601.256 457.549C600.219 452.448 598.863 443.206 597.731 438.741C597.591 438.29 594.441 441.444 594.441 441.444Z" fill="#21252B"/>
<g opacity="0.3">
<path opacity="0.3" d="M512.816 621.617C512.409 620.391 511.99 619.133 511.595 617.847C511.201 616.562 510.8 615.403 510.482 614.204C510.007 612.364 509.663 610.491 509.451 608.599C502.491 638.107 513.115 658.889 531.369 660.353C558.028 662.487 590.541 664.037 603.686 660.446C627.653 653.894 636.447 633.085 638.547 629.66C640.647 626.235 659.709 589.943 648.027 555.009C636.346 520.076 615.965 482.962 615.965 482.962L596.553 489.7C596.553 489.7 600.11 506.925 605.734 527.588C611.919 550.286 620.203 585.789 619.732 606.552C619.261 627.315 608.598 641.32 608.598 641.32H520.503C520.503 641.32 518.593 639.332 512.804 621.604" fill="black"/>
</g>
<path d="M325.848 605.903L326.484 598.9L487.303 618.192C489.452 618.457 491.526 619.176 493.398 620.305C495.271 621.433 496.903 622.947 498.194 624.755C499.485 626.563 500.408 628.626 500.908 630.818C501.407 633.01 501.471 635.285 501.097 637.504L500.372 641.75L333.928 616.575C331.523 616.217 329.342 614.909 327.838 612.922C326.334 610.935 325.621 608.421 325.848 605.903Z" fill="#EBC325"/>
<g opacity="0.3">
<path opacity="0.3" d="M325.848 605.903L326.484 598.9L487.303 618.192C489.452 618.457 491.526 619.176 493.398 620.305C495.271 621.433 496.903 622.947 498.194 624.755C499.485 626.563 500.409 628.626 500.908 630.818C501.407 633.01 501.471 635.285 501.097 637.504L500.372 641.75L333.928 616.575C331.523 616.217 329.342 614.909 327.838 612.922C326.334 610.935 325.621 608.421 325.848 605.903Z" fill="black"/>
</g>
<path d="M431.481 439.046H365.215V508.847H431.481V439.046Z" fill="black"/>
<path opacity="0.2" d="M415.473 439.046H365.215V508.847H415.473V439.046Z" fill="white"/>
<path opacity="0.15" d="M431.479 439.046H415.299V508.847H431.479V439.046Z" fill="black"/>
<path opacity="0.3" d="M396.034 439.046H384.474V448.672H396.034V439.046Z" fill="black"/>
<path d="M412.219 443.756H400.659V450.977H412.219V443.756Z" fill="white"/>
<path d="M399.889 455.893H344.408V525.694H399.889V455.893Z" fill="#4D61FC"/>
<path opacity="0.3" d="M389.384 455.893H344.408V525.694H389.384V455.893Z" fill="white"/>
<path opacity="0.15" d="M399.89 455.893H389.099V525.694H399.89V455.893Z" fill="black"/>
<path opacity="0.3" d="M371.372 455.893H361.357V466.321H371.372V455.893Z" fill="black"/>
<path d="M386.013 460.743H374.751V466.361H386.013V460.743Z" fill="white"/>
<g opacity="0.2">
<path opacity="0.2" d="M638.534 652.749C638.534 652.749 673.935 612.204 681.233 580.331C683.689 580.331 689.402 580.563 692.202 581.172C692.202 581.172 671.244 640.426 638.534 652.749Z" fill="black"/>
</g>
<path opacity="0.2" d="M526.256 548.166H371.374V554.585H526.256V548.166Z" fill="black"/>
<path d="M339.757 475.152V548.166H436.105V475.152H339.757ZM392.948 489.588H368.662C368.237 489.623 367.81 489.566 367.406 489.42C367.003 489.275 366.634 489.044 366.321 488.743C366.007 488.441 365.757 488.076 365.587 487.669C365.415 487.261 365.327 486.822 365.327 486.378C365.327 485.934 365.415 485.495 365.587 485.088C365.757 484.681 366.007 484.315 366.321 484.014C366.634 483.712 367.003 483.482 367.406 483.336C367.81 483.19 368.237 483.133 368.662 483.168H392.948C393.373 483.133 393.8 483.19 394.204 483.336C394.607 483.482 394.976 483.712 395.289 484.014C395.603 484.315 395.853 484.681 396.023 485.088C396.195 485.495 396.283 485.934 396.283 486.378C396.283 486.822 396.195 487.261 396.023 487.669C395.853 488.076 395.603 488.441 395.289 488.743C394.976 489.044 394.607 489.275 394.204 489.42C393.8 489.566 393.373 489.623 392.948 489.588Z" fill="#61656D"/>
<path opacity="0.3" d="M435.755 642.035H394.838C388.688 642.035 383.703 647.225 383.703 653.628V658.524C383.703 664.925 388.688 670.119 394.838 670.119H435.755C441.904 670.119 446.889 664.925 446.889 658.524V653.628C446.889 647.225 441.904 642.035 435.755 642.035Z" fill="black"/>
<path opacity="0.2" d="M436.105 475.152H423.004V548.166H436.105V475.152Z" fill="black"/>
<path d="M434.214 642.035H393.297C387.148 642.035 382.163 647.225 382.163 653.628V658.524C382.163 664.925 387.148 670.119 393.297 670.119H434.214C440.364 670.119 445.349 664.925 445.349 658.524V653.628C445.349 647.225 440.364 642.035 434.214 642.035Z" fill="#3F4249"/>
<g opacity="0.3">
<path opacity="0.3" d="M392.177 661.897C392.101 661.897 392.026 661.881 391.957 661.851C391.887 661.821 391.823 661.777 391.77 661.72C391.717 661.664 391.675 661.598 391.647 661.524C391.618 661.451 391.604 661.373 391.605 661.294V650.86C391.62 650.711 391.687 650.574 391.793 650.475C391.9 650.375 392.038 650.32 392.18 650.32C392.323 650.32 392.462 650.375 392.568 650.475C392.674 650.574 392.741 650.711 392.756 650.86V661.294C392.756 661.454 392.695 661.608 392.587 661.72C392.478 661.833 392.331 661.897 392.177 661.897Z" fill="black"/>
</g>
<g opacity="0.3">
<path opacity="0.3" d="M394.875 661.897C394.721 661.897 394.574 661.834 394.466 661.72C394.357 661.607 394.296 661.454 394.296 661.294V650.86C394.296 650.7 394.357 650.547 394.466 650.433C394.574 650.32 394.721 650.257 394.875 650.257C395.029 650.257 395.176 650.32 395.285 650.433C395.393 650.547 395.454 650.7 395.454 650.86V661.294C395.454 661.454 395.393 661.607 395.285 661.72C395.176 661.834 395.029 661.897 394.875 661.897Z" fill="black"/>
</g>
<g opacity="0.3">
<path opacity="0.3" d="M688.461 659.088C687.576 659.088 686.718 658.816 685.986 658.306C685.254 657.797 684.681 657.073 684.344 656.225C684.007 655.377 683.918 654.445 684.09 653.546C684.261 652.646 684.688 651.82 685.311 651.171C685.935 650.523 686.73 650.081 687.589 649.902C688.454 649.723 689.352 649.815 690.166 650.166C690.98 650.517 691.674 651.111 692.164 651.874C692.654 652.637 692.915 653.533 692.915 654.451C692.915 655.68 692.444 656.86 691.61 657.729C690.777 658.599 689.644 659.088 688.461 659.088ZM688.461 651.065C687.812 651.064 687.176 651.263 686.635 651.637C686.1 652.011 685.674 652.545 685.426 653.168C685.178 653.792 685.114 654.478 685.241 655.141C685.369 655.803 685.68 656.412 686.139 656.889C686.597 657.367 687.182 657.692 687.818 657.823C688.455 657.955 689.11 657.887 689.708 657.628C690.312 657.369 690.821 656.93 691.178 656.369C691.54 655.806 691.731 655.146 691.731 654.471C691.731 653.568 691.381 652.702 690.77 652.064C690.16 651.426 689.326 651.067 688.461 651.065Z" fill="black"/>
</g>
<g opacity="0.2">
<path opacity="0.2" d="M608.976 640.956L608.431 641.523L619.22 652.756L619.764 652.19L608.976 640.956Z" fill="black"/>
</g>
<g opacity="0.2">
<path opacity="0.2" d="M516.316 652.828L515.559 652.675C516.318 648.419 518.034 644.409 520.566 640.975L521.158 641.492C518.727 644.832 517.07 648.711 516.316 652.828Z" fill="black"/>
</g>
<path d="M473.089 597.508C473.002 597.509 472.917 597.478 472.849 597.421C472.781 597.365 472.733 597.285 472.714 597.197C467.446 573.684 441.722 571.048 441.461 571.028C441.359 571.018 441.265 570.966 441.2 570.884C441.134 570.803 441.102 570.697 441.111 570.591C441.121 570.485 441.17 570.386 441.249 570.318C441.328 570.25 441.429 570.217 441.531 570.226C441.792 570.226 468.069 572.942 473.465 597.011C473.488 597.115 473.47 597.224 473.417 597.315C473.363 597.405 473.278 597.47 473.178 597.495L473.089 597.508Z" fill="white"/>
<path d="M473.089 597.807C472.941 597.803 472.797 597.748 472.682 597.649C472.566 597.551 472.486 597.415 472.453 597.264C467.223 573.93 441.71 571.353 441.455 571.327C441.285 571.302 441.129 571.211 441.021 571.071C440.912 570.931 440.86 570.754 440.874 570.574C440.888 570.395 440.967 570.229 441.095 570.108C441.224 569.989 441.391 569.924 441.563 569.929C441.843 569.929 468.324 572.658 473.764 596.946C473.804 597.126 473.773 597.317 473.679 597.474C473.585 597.632 473.435 597.745 473.261 597.787L473.089 597.807ZM441.5 570.525C441.475 570.525 441.451 570.534 441.432 570.551C441.413 570.568 441.401 570.592 441.398 570.618C441.396 570.645 441.404 570.672 441.421 570.693C441.437 570.713 441.462 570.727 441.487 570.731C441.748 570.731 467.669 573.381 472.994 597.131C473 597.156 473.016 597.178 473.037 597.192C473.058 597.205 473.084 597.21 473.109 597.204C473.133 597.197 473.155 597.182 473.169 597.16C473.183 597.138 473.189 597.111 473.185 597.085C467.834 573.235 441.767 570.585 441.506 570.532L441.5 570.525Z" fill="white"/>
<path d="M371.372 548.763C371.22 548.763 371.074 548.7 370.967 548.588C370.86 548.476 370.799 548.324 370.799 548.166V474.271V474.198L379.656 438.894C379.673 438.815 379.705 438.741 379.751 438.675C379.796 438.609 379.854 438.555 379.92 438.512C379.986 438.47 380.06 438.443 380.137 438.431C380.214 438.419 380.291 438.424 380.367 438.445C380.442 438.465 380.512 438.501 380.573 438.55C380.635 438.6 380.687 438.661 380.725 438.731C380.762 438.802 380.787 438.879 380.795 438.959C380.804 439.039 380.798 439.121 380.776 439.198L371.932 474.424V548.166C371.932 548.322 371.873 548.472 371.769 548.583C371.664 548.694 371.521 548.759 371.372 548.763Z" fill="#3F4249"/>
<path d="M383.704 548.761C383.628 548.762 383.553 548.747 383.483 548.718C383.412 548.688 383.348 548.645 383.294 548.589C383.241 548.533 383.198 548.468 383.169 548.395C383.14 548.322 383.125 548.244 383.125 548.165V474.257L388.138 438.959C388.16 438.802 388.241 438.66 388.363 438.564C388.485 438.47 388.639 438.429 388.79 438.452C388.942 438.475 389.078 438.559 389.169 438.686C389.26 438.814 389.299 438.974 389.277 439.131L384.295 474.389V548.165C384.295 548.245 384.28 548.324 384.25 548.398C384.22 548.472 384.176 548.538 384.121 548.594C384.066 548.649 384.001 548.693 383.929 548.722C383.857 548.751 383.78 548.764 383.704 548.761Z" fill="#3F4249"/>
<path opacity="0.4" d="M622.131 435.428L626.629 478.424L633.068 475.675L630.523 435.262L622.131 435.428Z" fill="black"/>
<path d="M546.277 623.114L546.246 637.762L564.582 637.291L566.466 620.179L546.277 623.114Z" fill="#FC9D9D"/>
<path opacity="0.15" d="M565.779 625.056L555.752 625.964C554.903 626.272 554.169 626.849 553.649 627.612C553.129 628.375 552.85 629.288 552.85 630.224V637.591L546.278 637.783V623.605L566.002 623.115L565.779 625.056Z" fill="black"/>
<path d="M545.095 635.828L545.222 650.622C545.222 651.188 545.321 651.749 545.515 652.278C545.707 652.792 545.987 653.266 546.342 653.676C546.685 654.068 547.103 654.382 547.57 654.597C548.023 654.81 548.516 654.919 549.014 654.915L592.686 654.504C592.898 654.502 593.107 654.451 593.299 654.358C593.491 654.264 593.662 654.129 593.8 653.961C594.1 653.607 594.261 653.148 594.252 652.676C594.232 650.986 593.748 649.338 592.858 647.926C592.012 646.57 590.769 645.534 589.314 644.971L579.433 641.301L566.855 630.237C566.244 629.677 565.45 629.382 564.637 629.413C563.824 629.444 563.054 629.798 562.484 630.403L556.999 635.888C556.615 636.281 556.135 636.558 555.612 636.69C555.099 636.817 554.561 636.794 554.06 636.623L547.029 634.172C546.806 634.094 546.566 634.078 546.335 634.126C546.101 634.17 545.881 634.277 545.699 634.437C545.505 634.601 545.351 634.813 545.254 635.053C545.148 635.296 545.093 635.561 545.095 635.828Z" fill="#4D61FC"/>
<path d="M545.095 635.828L545.222 650.622C545.222 651.188 545.321 651.749 545.515 652.278C545.707 652.792 545.987 653.266 546.342 653.676C546.685 654.068 547.103 654.382 547.57 654.597C548.023 654.81 548.516 654.919 549.014 654.915L592.686 654.504C592.898 654.502 593.107 654.451 593.299 654.358C593.491 654.264 593.662 654.129 593.8 653.961C594.1 653.607 594.261 653.148 594.252 652.676C594.232 650.986 593.748 649.338 592.858 647.926C592.012 646.57 590.769 645.534 589.314 644.971L579.433 641.301L566.855 630.237C566.244 629.677 565.45 629.382 564.637 629.413C563.824 629.444 563.054 629.798 562.484 630.403L556.999 635.888C556.615 636.281 556.135 636.558 555.612 636.69C555.099 636.817 554.561 636.794 554.06 636.623L547.029 634.172C546.806 634.094 546.566 634.078 546.335 634.126C546.101 634.17 545.881 634.277 545.699 634.437C545.505 634.601 545.351 634.813 545.254 635.053C545.148 635.296 545.093 635.561 545.095 635.828Z" fill="#3F4249"/>
<path d="M549.039 654.908L592.685 654.497C592.897 654.492 593.105 654.442 593.297 654.348C593.489 654.255 593.659 654.12 593.799 653.954C594.098 653.599 594.259 653.14 594.251 652.668C594.255 652.058 594.182 651.45 594.034 650.86L545.304 651.31C545.442 652.296 545.889 653.207 546.576 653.901C547.236 654.547 548.107 654.906 549.013 654.908H549.039Z" fill="#21252B"/>
<path opacity="0.3" d="M549.039 654.908L592.685 654.497C592.897 654.492 593.105 654.442 593.297 654.348C593.489 654.255 593.659 654.12 593.799 653.954C594.098 653.599 594.259 653.14 594.251 652.668C594.255 652.058 594.182 651.45 594.034 650.86L545.304 651.31C545.442 652.296 545.889 653.207 546.576 653.901C547.236 654.547 548.107 654.906 549.013 654.908H549.039Z" fill="black"/>
<path d="M566.626 636.145C566.578 636.144 566.531 636.133 566.487 636.112C566.444 636.092 566.404 636.062 566.372 636.026C566.333 635.984 566.302 635.935 566.283 635.88C566.273 635.823 566.273 635.765 566.283 635.708C566.273 635.649 566.273 635.589 566.283 635.529C566.3 635.475 566.328 635.426 566.365 635.383L568.987 632.071C569.021 632.028 569.064 631.993 569.112 631.969C569.16 631.946 569.213 631.932 569.267 631.932C569.373 631.936 569.473 631.984 569.547 632.064C569.625 632.156 569.668 632.273 569.667 632.395C569.665 632.512 569.625 632.625 569.553 632.713L566.938 636.026C566.846 636.096 566.739 636.14 566.626 636.152V636.145Z" fill="#F4F4F4"/>
<path d="M568.738 637.987C568.69 637.987 568.644 637.978 568.6 637.958C568.556 637.939 568.516 637.911 568.483 637.875C568.445 637.833 568.414 637.784 568.394 637.729C568.375 637.674 568.364 637.616 568.363 637.557C568.361 637.494 568.371 637.43 568.394 637.371C568.413 637.318 568.441 637.269 568.477 637.226L571.098 633.913C571.132 633.872 571.174 633.839 571.221 633.816C571.269 633.793 571.32 633.781 571.372 633.781C571.478 633.783 571.578 633.828 571.652 633.906C571.728 633.996 571.769 634.112 571.766 634.231C571.768 634.349 571.73 634.464 571.658 634.556L569.037 637.868C568.947 637.931 568.845 637.972 568.738 637.987Z" fill="#F4F4F4"/>
<path d="M570.817 639.849C570.721 639.846 570.631 639.806 570.562 639.736C570.487 639.647 570.446 639.531 570.448 639.412C570.447 639.294 570.485 639.179 570.556 639.087L573.177 635.775C573.249 635.703 573.345 635.663 573.444 635.662C573.547 635.671 573.644 635.721 573.712 635.801C573.783 635.886 573.824 635.994 573.826 636.106C573.833 636.218 573.801 636.328 573.737 636.417L571.116 639.73C571.034 639.807 570.928 639.85 570.817 639.849Z" fill="#F4F4F4"/>
<path d="M502.637 494.537L572.37 515.161C575.028 515.948 577.321 517.715 578.82 520.132C580.319 522.549 580.924 525.451 580.52 528.298L566.93 623.605H545.1L548.39 540.25L461.529 530.471C461.529 530.471 451.763 529.504 448.899 522.163L502.637 494.537Z" fill="#21252B"/>
<path opacity="0.3" d="M456.529 518.241L448.894 522.163C451.757 529.503 461.524 530.47 461.524 530.47L548.384 540.249L545.108 623.32L549.822 623.359L555.192 535.114L469.979 516.969L456.529 518.241Z" fill="black"/>
<path d="M467.395 386.987C467.395 386.987 459.888 398.72 457.432 404.066C455.818 407.675 454.572 411.449 453.716 415.329C450.705 428.459 449.777 442.013 450.967 455.456L450.732 466.944C450.732 466.944 445.566 490.383 446.011 522.163C446.011 522.163 475.59 523.137 502.351 494.292C502.351 494.292 497.185 402.867 488.735 396.03L467.395 386.987Z" fill="black"/>
<path d="M473.892 349.734L472.276 368.284L467.758 386.834L488.5 395.513L489.9 381.872L495.034 383.197C495.206 383.257 495.384 383.303 495.556 383.35C498.903 384.131 500.913 384.092 502.434 378.533L503.872 371.743L506.054 371.034L506.175 370.981C506.474 370.844 506.709 370.589 506.829 370.273C506.948 369.956 506.941 369.603 506.811 369.291L504.311 363.422V363.09L504.61 362.315C505.874 359.041 506.253 355.469 505.704 351.987L505.164 348.568L473.892 349.734Z" fill="#FC9D9D"/>
<path d="M505.685 349.137L496.141 352.198C495.697 352.264 495.28 352.462 494.941 352.769C494.603 353.075 494.357 353.477 494.232 353.927L493.749 355.616C493.157 357.855 491.515 358.71 489.295 358.823H487.068L486.292 363.01C486.234 363.294 486.08 363.549 485.859 363.727C485.638 363.905 485.363 363.996 485.083 363.983C484.783 363.96 484.504 363.814 484.307 363.577C484.111 363.339 484.012 363.031 484.033 362.718L484.135 361.135L478.841 361.353L477.823 365.699C475.774 369.204 471.613 369.25 471.613 369.25C469.666 360.837 466.962 352.88 470.01 345.042L470.086 344.85C471.13 342.114 475.418 338.888 479.159 340.133C480.534 340.624 481.45 339.166 481.991 338.736C484.23 335.582 490.943 335.045 494.652 337.821L497.006 339.769C498.915 340.962 501.205 340.524 503.502 340.432C506.855 339.776 509.178 345.314 505.685 349.137Z" fill="#21252B"/>
<path opacity="0.15" d="M489.64 386.581L485.46 381.54C485.382 381.423 485.333 381.288 485.318 381.147C485.303 381.006 485.32 380.863 485.371 380.731C485.455 380.527 485.613 380.366 485.81 380.282C486.008 380.197 486.23 380.197 486.427 380.281L490.155 381.778L489.64 386.581Z" fill="black"/>
<path opacity="0.15" d="M474.548 368.609L479.409 368.284C478.787 367.526 478.263 366.686 477.851 365.787C477.513 366.466 477.046 367.066 476.477 367.551C475.91 368.037 475.253 368.396 474.548 368.609Z" fill="black"/>
<path d="M505.471 363.922C505.525 363.118 505.002 362.423 504.303 362.373C503.604 362.322 502.993 362.933 502.939 363.738C502.885 364.543 503.408 365.237 504.107 365.288C504.806 365.339 505.417 364.727 505.471 363.922Z" fill="#21252B"/>
<path d="M502.147 363.15C502.252 363.15 502.338 363.061 502.338 362.952C502.338 362.841 502.252 362.753 502.147 362.753C502.042 362.753 501.957 362.841 501.957 362.952C501.957 363.061 502.042 363.15 502.147 363.15Z" fill="white"/>
<path d="M483.614 370.159L484.168 361.447C484.213 360.522 483.906 359.615 483.315 358.923C482.723 358.232 481.893 357.81 481.006 357.751C480.115 357.692 479.239 358.003 478.568 358.615C477.897 359.227 477.485 360.09 477.423 361.017L477.309 362.733C477.192 364.589 477.787 366.417 478.965 367.816C480.143 369.215 481.806 370.07 483.589 370.192L483.614 370.159Z" fill="#FC9D9D"/>
<path opacity="0.2" d="M475.914 424.537C479.732 432.209 489.409 449.924 499.392 454.575L498.349 445.201L476.958 423.703C476.852 423.558 476.695 423.464 476.522 423.44C476.349 423.417 476.174 423.465 476.035 423.577C475.897 423.687 475.807 423.85 475.784 424.031C475.761 424.211 475.808 424.393 475.914 424.537Z" fill="black"/>
<path d="M593.843 474.94L590.159 472.031C589.701 471.675 589.173 471.431 588.612 471.316C588.052 471.202 587.474 471.22 586.921 471.369L577.835 473.687L528.653 454.223L506.454 427.597L492.756 442.55L515.177 466.4C516.676 468.101 518.612 469.318 520.757 469.905L575.303 483.817C581.665 485.632 586.953 480.266 586.953 480.266L591.947 484.089L591.311 485.785C591.079 486.432 590.626 486.967 590.039 487.289L584.847 490.25C584.59 490.39 584.394 490.627 584.3 490.912C584.247 491.074 584.229 491.245 584.245 491.415C584.261 491.585 584.311 491.749 584.392 491.898C584.473 492.045 584.583 492.174 584.715 492.275C584.847 492.376 584.998 492.446 585.158 492.483L585.451 492.549C585.664 492.596 585.884 492.577 586.087 492.496L592.863 489.806C593.365 489.609 593.822 489.305 594.203 488.912C594.585 488.519 594.883 488.047 595.078 487.527L597.553 480.942L593.843 474.94Z" fill="#FC9D9D"/>
<path opacity="0.15" d="M575.169 481.915L519.077 464.69L496.236 438.263L492.164 441.927L515.177 466.399C516.676 468.101 518.613 469.318 520.757 469.904L575.303 483.817C580.514 485.307 585.031 481.948 586.469 480.703C579.356 484.134 575.169 481.915 575.169 481.915Z" fill="black"/>
<path opacity="0.2" d="M461.281 467.653L461.752 427.075C461.752 420.383 462.764 407.511 465.188 401.317L469.966 389.107L467.383 386.987C467.383 386.987 459.875 398.72 457.419 404.066C455.801 407.673 454.553 411.448 453.697 415.329C450.693 428.447 449.768 441.987 450.955 455.416L450.719 466.904C450.719 466.904 445.566 490.383 446.011 522.163C448.498 522.16 450.98 521.954 453.436 521.547L466.435 518.493C462.46 501.877 460.726 484.766 461.281 467.653Z" fill="black"/>
<g opacity="0.3">
<path opacity="0.3" d="M482.774 363.208L482.869 361.751C482.903 361.139 482.704 360.538 482.316 360.077C481.928 359.616 481.382 359.333 480.795 359.286C480.474 359.253 480.149 359.296 479.845 359.41C479.541 359.525 479.266 359.709 479.039 359.949L478.989 359.995C478.906 360.103 478.867 360.24 478.88 360.378C478.893 360.515 478.957 360.642 479.058 360.731C479.161 360.816 479.291 360.856 479.423 360.843C479.554 360.829 479.674 360.763 479.758 360.658C479.879 360.515 480.031 360.404 480.202 360.335C480.372 360.266 480.556 360.24 480.738 360.26C481.074 360.284 481.386 360.445 481.608 360.709C481.829 360.972 481.942 361.316 481.921 361.665L481.832 363.122C481.833 363.259 481.88 363.392 481.967 363.495C482.053 363.599 482.172 363.666 482.303 363.685C482.366 363.698 482.432 363.695 482.494 363.675C482.555 363.656 482.611 363.622 482.658 363.575C482.704 363.528 482.739 363.47 482.759 363.407C482.779 363.343 482.785 363.275 482.774 363.208Z" fill="#21252B"/>
</g>
<path d="M503.357 374.379C502.282 374.214 501.237 373.879 500.259 373.385C500.207 373.358 500.148 373.35 500.092 373.362C500.034 373.373 499.983 373.404 499.945 373.45C499.908 373.496 499.885 373.553 499.882 373.613C499.879 373.673 499.895 373.733 499.928 373.783C500.677 374.922 501.717 375.822 502.931 376.379L503.357 374.379Z" fill="white"/>
<path d="M499.158 358.678C502.937 357.75 504.331 359.38 504.331 359.38V359.797C504.331 359.797 501.264 358.598 499.393 358.996L499.158 358.678Z" fill="#21252B"/>
<path opacity="0.4" d="M511.672 349.409C511.672 349.409 513.39 366.972 501.842 381.991C498.247 384.27 484.893 380.056 485.802 365.952C486.439 355.961 484.53 348.879 487.228 347.137C489.925 345.394 503.42 350.317 511.672 349.409Z" fill="white"/>
<path d="M492.572 351.403C492.572 351.403 507.136 352.125 511.659 353.523C513.288 341.949 505.011 332.986 492.795 330.448C480.579 327.911 468.433 334.847 465.156 346.825C461.879 358.803 464.946 363.832 467.962 367.986C470.405 371.351 474 373.657 483.626 372.292C489.989 371.398 489.308 361.864 489.931 358.26C490.555 354.656 490.6 351.072 492.572 351.403Z" fill="black"/>
<g opacity="0.2">
<path opacity="0.2" d="M492.571 330.448C488.987 329.675 485.283 329.741 481.727 330.642C478.171 331.542 474.851 333.255 472.008 335.656C476.708 333.544 481.917 332.979 486.934 334.038C497.483 336.225 505.099 343.188 505.945 352.503C507.806 352.69 509.65 353.022 511.462 353.497C513.078 341.916 504.794 332.986 492.571 330.448Z" fill="white"/>
</g>
<path d="M491.001 349.919C489.028 349.587 488.984 353.085 488.341 356.775C487.699 360.466 488.379 369.913 482.036 370.807C475.037 371.801 471.22 370.807 468.713 368.946C471.162 371.761 474.929 373.517 483.608 372.291C489.97 371.397 489.289 361.863 489.913 358.259C490.536 354.655 490.6 351.071 492.572 351.403C492.572 351.403 507.136 352.125 511.66 353.523C511.755 352.824 511.816 352.121 511.844 351.416C507.168 350.044 491.001 349.919 491.001 349.919Z" fill="#21252B"/>
<path d="M467.547 385.866C467.547 385.866 491.903 398.506 488.543 392.988C488.543 392.988 490.611 394.564 488.734 396.029C488.734 396.029 483.803 396.274 467.197 387.714C467.222 387.714 466.529 386.952 467.547 385.866Z" fill="white"/>
<path d="M489.696 404.344L509.35 427.876L491.274 444.253L474.203 420.959L489.696 404.344Z" fill="#4D61FC"/>
<path d="M567.535 624.075H544.63V617.45H568.171L567.535 624.075Z" fill="#21252B"/>
<path opacity="0.3" d="M567.535 624.075H544.63V617.45H568.171L567.535 624.075Z" fill="black"/>
<path opacity="0.3" d="M551.629 617.45H544.63V624.075H551.629V617.45Z" fill="black"/>
<path d="M490.238 442.835L508.289 426.604L509.638 427.975L491.536 444.253L490.238 442.835Z" fill="#F4F4F4"/>
<path d="M263.573 663.162C264.547 663.606 265.425 664.256 266.153 665.057C266.881 665.865 267.445 666.819 267.811 667.86C268.534 669.946 268.789 672.179 268.555 674.385C268.218 678.652 266.01 682.998 263.63 686.489C260.106 683.475 259.177 678.055 258.833 675.28C258.33 670.881 259.991 662.619 263.573 663.162Z" fill="#06D81B"/>
<path d="M268.287 694.015C267.895 692.843 267.806 691.59 268.029 690.371C268.252 689.152 268.78 688.02 269.56 687.085C270.356 686.165 271.32 685.423 272.394 684.899C273.469 684.369 274.634 684.071 275.82 684.018C276.915 683.952 278.13 684.111 278.874 684.952C279.199 685.37 279.411 685.866 279.49 686.39C279.568 686.92 279.509 687.463 279.32 687.96C278.925 688.954 278.283 689.815 277.462 690.464C274.771 692.816 271.736 694.578 268.274 694.015" fill="#06D81B"/>
<path d="M260.029 694.147C259.539 691.584 258.468 689.179 256.907 687.132C255.346 685.085 253.339 683.455 251.052 682.375C249.888 681.838 248.38 681.514 247.464 682.435C246.547 683.355 246.827 684.945 247.298 686.171C248.386 688.702 250.166 690.842 252.418 692.319C254.67 693.803 257.292 694.552 259.953 694.485" fill="#06D81B"/>
<path d="M263.224 669.787C263.448 672.881 263.631 675.995 263.771 679.129C263.924 682.249 264.019 685.369 264.127 688.483C264.235 691.597 264.267 694.724 264.286 697.844C264.305 700.965 264.286 704.085 264.197 707.206L263.644 688.496L263.402 679.142C263.319 676.002 263.268 672.881 263.224 669.787Z" fill="#21252B"/>
<path d="M264.68 706.676C264.746 704.768 264.991 702.873 265.412 701.018C265.827 699.156 266.435 697.348 267.225 695.625C268.016 693.883 269.115 692.306 270.464 690.988C271.155 690.345 271.922 689.795 272.748 689.351C273.579 688.947 274.462 688.662 275.369 688.51C273.611 688.987 272.007 689.941 270.718 691.272C269.448 692.604 268.412 694.154 267.658 695.857C266.869 697.553 266.24 699.328 265.781 701.157C265.301 702.972 264.933 704.814 264.68 706.676Z" fill="#21252B"/>
<path d="M263.713 706.676C263.461 704.801 263.095 702.939 262.619 701.111C262.159 699.282 261.531 697.507 260.742 695.811C259.985 694.108 258.947 692.558 257.675 691.226C256.386 689.894 254.781 688.94 253.024 688.463C253.933 688.616 254.818 688.901 255.652 689.305C256.475 689.749 257.241 690.299 257.929 690.941C259.28 692.26 260.381 693.836 261.174 695.579C261.964 697.308 262.568 699.13 262.975 700.998C263.399 702.86 263.646 704.761 263.713 706.676Z" fill="#21252B"/>
<path d="M784.025 663.162C784.999 663.606 785.877 664.256 786.602 665.057C787.334 665.865 787.9 666.819 788.263 667.86C788.988 669.946 789.243 672.179 789.007 674.385C788.67 678.652 786.462 682.998 784.083 686.489C780.558 683.475 779.629 678.055 779.285 675.28C778.783 670.881 780.443 662.619 784.025 663.162Z" fill="#06D81B"/>
<path d="M788.74 694.015C788.345 692.843 788.256 691.59 788.479 690.371C788.702 689.152 789.23 688.02 790.012 687.085C790.808 686.165 791.775 685.423 792.844 684.899C793.919 684.369 795.083 684.071 796.273 684.018C797.367 683.952 798.583 684.111 799.327 684.952C799.652 685.37 799.862 685.866 799.944 686.39C800.021 686.92 799.963 687.463 799.773 687.96C799.378 688.954 798.735 689.815 797.915 690.464C795.223 692.816 792.188 694.578 788.727 694.015" fill="#06D81B"/>
<path d="M780.481 694.148C779.991 691.59 778.916 689.185 777.357 687.145C775.792 685.098 773.788 683.475 771.504 682.395C770.339 681.858 768.831 681.534 767.915 682.455C766.999 683.375 767.279 684.965 767.75 686.191C768.838 688.722 770.619 690.862 772.872 692.339C775.124 693.823 777.745 694.572 780.405 694.505" fill="#06D81B"/>
<path d="M783.675 669.787C783.898 672.881 784.076 675.995 784.222 679.129C784.375 682.249 784.47 685.369 784.578 688.483C784.686 691.597 784.718 694.724 784.737 697.844C784.756 700.965 784.737 704.085 784.648 707.206L784.095 688.496L783.853 679.142C783.771 676.002 783.72 672.881 783.675 669.787Z" fill="#21252B"/>
<path d="M785.133 706.676C785.196 704.768 785.445 702.873 785.865 701.018C786.278 699.156 786.889 697.348 787.678 695.625C788.467 693.883 789.567 692.306 790.916 690.988C791.61 690.345 792.373 689.795 793.201 689.351C794.034 688.947 794.912 688.662 795.822 688.51C794.066 688.987 792.456 689.941 791.171 691.272C789.898 692.604 788.868 694.154 788.111 695.857C787.309 697.553 786.673 699.328 786.202 701.157C785.731 702.972 785.375 704.814 785.133 706.676Z" fill="#21252B"/>
<path d="M784.165 706.676C783.911 704.801 783.548 702.939 783.071 701.111C782.6 699.282 781.964 697.507 781.162 695.811C780.405 694.108 779.368 692.558 778.095 691.226C776.804 689.894 775.2 688.94 773.444 688.463C774.354 688.616 775.239 688.901 776.072 689.305C776.893 689.749 777.663 690.299 778.35 690.941C779.699 692.26 780.799 693.836 781.595 695.579C782.384 697.308 782.988 699.13 783.395 700.998C783.828 702.86 784.089 704.761 784.165 706.676Z" fill="#21252B"/>
<path d="M622.889 243.8C641.162 243.8 655.974 228.376 655.974 209.35C655.974 190.324 641.162 174.9 622.889 174.9C604.616 174.9 589.804 190.324 589.804 209.35C589.804 228.376 604.616 243.8 622.889 243.8Z" fill="white"/>
<path d="M415.528 285.346C415.44 285.74 415.327 286.127 415.191 286.506C415.541 289.527 385.503 287.91 385.503 287.91C385.503 287.91 377.474 293.747 373.465 288.228C365.442 290.825 320.504 292.124 301.645 289.209C285.593 291.15 259.112 287.884 246.292 287.579C233.471 287.274 233.051 284.339 240.279 283.047C240.196 282.385 240.858 281.398 242.188 280.344C247.278 276.27 262.007 271.129 280.821 279.019C277.608 270.44 290.855 261.331 305.692 265.875C305.298 261.006 311.316 261.662 311.316 261.662C311.316 261.662 308.905 240.25 330.569 240.25C352.234 240.25 354.645 270.062 354.645 270.062C354.645 270.062 356.248 258.084 374.706 257.11C393.164 256.137 393.157 270.731 393.157 270.731C393.157 270.731 418.486 272.553 415.528 285.346Z" fill="white"/>
<path opacity="0.08" d="M415.528 285.345C415.44 285.739 415.327 286.126 415.191 286.505C415.541 289.526 385.503 287.909 385.503 287.909C385.503 287.909 377.474 293.746 373.465 288.227C365.442 290.824 320.504 292.123 301.645 289.208C285.593 291.149 259.112 287.883 246.292 287.578C233.471 287.273 233.051 284.338 240.279 283.046C240.196 282.384 240.858 281.397 242.188 280.344C244.23 281.006 245.91 282.477 246.005 284.272C249.912 283.04 254.639 283.736 257.757 286.001C260.97 283.206 266.601 284.782 271.118 285.948C275.639 287.102 280.285 287.633 284.937 287.525C285.961 287.558 286.98 287.385 287.941 287.015C289.996 286.061 290.257 283.822 290.645 281.927C291.089 279.405 292.441 277.154 294.424 275.633C296.6 274.037 299.998 273.381 302.574 274.52C303.847 275.09 304.827 276.024 306.15 276.508C307.092 276.846 308.167 276.938 309.064 277.362C311.342 278.422 311.52 280.986 311.418 283.119C313.927 282.39 316.611 282.719 318.888 284.034C316.056 278.641 320.084 272.572 324.519 267.942C326.523 265.861 328.75 263.774 331.74 262.714C336.283 261.105 341.812 262.257 345.661 264.788C349.51 267.319 351.916 271.009 353.614 274.779C355.898 273.884 358.889 274.361 360.569 275.898C368.789 273.546 378.746 276.017 383.919 281.695C394.58 279.989 405.485 281.248 415.528 285.345Z" fill="#21252B"/>
<path d="M475.602 353.775H396.427C396.166 353.775 395.956 353.477 395.956 353.112C395.956 352.748 396.166 352.45 396.427 352.45H475.602C475.863 352.45 476.072 352.748 476.072 353.112C476.072 353.477 475.863 353.775 475.602 353.775Z" fill="white"/>
<path d="M475.602 424H396.427C396.166 424 395.956 423.702 395.956 423.337C395.956 422.973 396.166 422.675 396.427 422.675H475.602C475.863 422.675 476.072 422.973 476.072 423.337C476.072 423.702 475.863 424 475.602 424Z" fill="white"/>
<path d="M473.848 369.013H433.128C432.937 369.013 432.784 368.714 432.784 368.35C432.784 367.986 432.937 367.688 433.128 367.688H473.848C474.039 367.688 474.191 367.986 474.191 368.35C474.191 368.714 474.039 369.013 473.848 369.013Z" fill="white"/>
<path d="M353.117 469.05H314.452C314.191 469.05 313.981 468.752 313.981 468.388C313.981 468.023 314.191 467.725 314.452 467.725H353.117C353.378 467.725 353.588 468.023 353.588 468.388C353.588 468.752 353.346 469.05 353.117 469.05Z" fill="white"/>
<path d="M380.313 492.238H301.113C300.944 492.238 300.782 492.168 300.663 492.043C300.543 491.92 300.477 491.751 300.477 491.575C300.477 491.4 300.543 491.231 300.663 491.107C300.782 490.982 300.944 490.913 301.113 490.913H380.313C380.482 490.913 380.643 490.982 380.763 491.107C380.882 491.231 380.949 491.4 380.949 491.575C380.949 491.751 380.882 491.92 380.763 492.043C380.643 492.168 380.482 492.238 380.313 492.238Z" fill="white"/>
<path d="M345.902 513.438H314.191C314.077 513.438 313.981 513.139 313.981 512.775C313.981 512.411 314.077 512.113 314.191 512.113H345.902C346.023 512.113 346.118 512.411 346.118 512.775C346.118 513.139 346.023 513.438 345.902 513.438Z" fill="white"/>
<path d="M465.48 402.8H436.079C435.939 402.8 435.831 402.502 435.831 402.137C435.831 401.773 435.939 401.475 436.079 401.475H465.48C465.62 401.475 465.729 401.773 465.729 402.137C465.729 402.502 465.62 402.8 465.48 402.8Z" fill="white"/>
<path d="M343.11 584.325H282.438C282.269 584.325 282.107 584.255 281.988 584.131C281.868 584.007 281.801 583.838 281.801 583.662C281.801 583.487 281.868 583.318 281.988 583.194C282.107 583.069 282.269 583 282.438 583H343.11C343.279 583 343.441 583.069 343.56 583.194C343.68 583.318 343.747 583.487 343.747 583.662C343.747 583.838 343.68 584.007 343.56 584.131C343.441 584.255 343.279 584.325 343.11 584.325Z" fill="white"/>
<path d="M351.936 607.513H261.143C260.634 607.513 260.227 607.214 260.227 606.85C260.227 606.486 260.634 606.188 261.143 606.188H351.936C352.438 606.188 352.852 606.486 352.852 606.85C352.852 607.214 352.438 607.513 351.936 607.513Z" fill="white"/>
<path d="M857.792 707.808H124.579C124.435 707.822 124.29 707.802 124.153 707.749C124.016 707.702 123.891 707.623 123.784 707.523C123.678 707.417 123.594 707.298 123.536 707.159C123.477 707.02 123.447 706.868 123.447 706.722C123.447 706.57 123.477 706.417 123.536 706.278C123.594 706.145 123.678 706.02 123.784 705.914C123.891 705.814 124.016 705.735 124.153 705.688C124.29 705.635 124.435 705.615 124.579 705.629H857.792C857.939 705.615 858.085 705.635 858.219 705.688C858.359 705.735 858.48 705.814 858.588 705.914C858.696 706.02 858.779 706.145 858.836 706.278C858.893 706.417 858.925 706.57 858.925 706.722C858.925 706.868 858.893 707.02 858.836 707.159C858.779 707.298 858.696 707.417 858.588 707.523C858.48 707.623 858.359 707.702 858.219 707.749C858.085 707.802 857.939 707.822 857.792 707.808Z" fill="#B2B6BB"/>
<path d="M391.968 628.712H282.438C282.269 628.712 282.107 628.643 281.988 628.518C281.868 628.394 281.801 628.226 281.801 628.05C281.801 627.874 281.868 627.705 281.988 627.582C282.107 627.457 282.269 627.387 282.438 627.387H391.968C392.137 627.387 392.299 627.457 392.418 627.582C392.538 627.705 392.604 627.874 392.604 628.05C392.604 628.226 392.538 628.394 392.418 628.518C392.299 628.643 392.137 628.712 391.968 628.712Z" fill="white"/>
<path d="M370.635 593.109C369.884 593.021 369.166 592.829 368.482 592.533C367.807 592.238 367.283 591.89 366.908 591.49L367.668 590.155C368.037 590.518 368.499 590.835 369.054 591.106C369.619 591.37 370.194 591.536 370.778 591.604C371.501 591.689 372.05 591.636 372.424 591.445C372.808 591.255 373.018 590.969 373.054 590.588C373.081 590.309 373 590.07 372.813 589.869C372.636 589.661 372.4 589.488 372.104 589.35C371.808 589.212 371.401 589.047 370.885 588.855C370.161 588.591 369.575 588.344 369.128 588.114C368.691 587.884 368.323 587.564 368.025 587.153C367.737 586.734 367.623 586.204 367.684 585.563C367.736 585.024 367.926 584.553 368.255 584.15C368.594 583.739 369.068 583.437 369.677 583.245C370.295 583.055 371.03 583.009 371.883 583.109C372.476 583.178 373.053 583.321 373.614 583.537C374.174 583.753 374.65 584.025 375.041 584.352L374.336 585.693C373.934 585.392 373.507 585.15 373.056 584.966C372.605 584.781 372.161 584.664 371.726 584.613C371.012 584.529 370.467 584.587 370.092 584.788C369.726 584.989 369.524 585.29 369.486 585.689C369.459 585.968 369.535 586.207 369.713 586.406C369.9 586.607 370.142 586.776 370.438 586.914C370.734 587.052 371.14 587.217 371.656 587.409C372.363 587.661 372.94 587.907 373.385 588.147C373.832 588.377 374.2 588.698 374.489 589.107C374.787 589.518 374.906 590.039 374.846 590.671C374.795 591.21 374.6 591.68 374.262 592.082C373.933 592.485 373.459 592.782 372.841 592.973C372.223 593.164 371.487 593.209 370.635 593.109ZM386.298 587.192C387.234 587.301 387.95 587.662 388.444 588.274C388.94 588.877 389.136 589.722 389.032 590.809L388.626 595.074L386.888 594.87L387.273 590.829C387.335 590.178 387.238 589.674 386.981 589.315C386.726 588.947 386.329 588.731 385.792 588.668C385.208 588.6 384.721 588.74 384.331 589.089C383.943 589.429 383.714 589.957 383.646 590.672L383.286 594.449L381.548 594.246L381.933 590.204C381.995 589.554 381.898 589.049 381.642 588.69C381.386 588.322 380.99 588.107 380.452 588.044C379.859 587.974 379.368 588.109 378.979 588.449C378.6 588.79 378.376 589.323 378.307 590.047L377.947 593.824L376.209 593.621L376.918 586.178L378.573 586.372L378.482 587.32C378.792 587.018 379.164 586.803 379.598 586.675C380.032 586.548 380.504 586.514 381.014 586.573C381.57 586.638 382.051 586.803 382.457 587.066C382.874 587.322 383.187 587.668 383.399 588.107C383.742 587.752 384.165 587.496 384.667 587.339C385.17 587.172 385.714 587.123 386.298 587.192ZM395.68 588.29C396.403 588.374 397.033 588.608 397.568 588.99C398.113 589.373 398.52 589.871 398.789 590.485C399.059 591.099 399.158 591.783 399.086 592.535C399.014 593.288 398.788 593.938 398.408 594.485C398.028 595.023 397.536 595.417 396.932 595.665C396.336 595.915 395.677 595.998 394.954 595.913C393.952 595.796 393.192 595.369 392.671 594.631L392.327 598.241L390.589 598.038L391.556 587.892L393.211 588.085L393.118 589.061C393.439 588.741 393.817 588.518 394.251 588.39C394.694 588.263 395.17 588.23 395.68 588.29ZM394.901 594.399C395.541 594.474 396.085 594.321 396.533 593.942C396.991 593.563 397.253 593.026 397.32 592.329C397.386 591.632 397.231 591.045 396.855 590.569C396.488 590.094 395.984 589.819 395.345 589.744C394.928 589.695 394.543 589.749 394.191 589.905C393.839 590.052 393.549 590.29 393.321 590.621C393.093 590.951 392.956 591.348 392.912 591.813C392.868 592.277 392.926 592.698 393.087 593.073C393.248 593.449 393.486 593.754 393.801 593.989C394.117 594.213 394.484 594.35 394.901 594.399ZM401.365 586.108L403.103 586.312L402.118 596.653L400.38 596.449L401.365 586.108ZM412.061 590.291L407.818 597.926C407.417 598.696 406.969 599.217 406.474 599.488C405.979 599.768 405.402 599.87 404.744 599.793C404.373 599.749 404.013 599.646 403.663 599.483C403.313 599.32 403.032 599.118 402.82 598.877L403.638 597.676C403.79 597.854 403.972 598.002 404.186 598.121C404.409 598.241 404.636 598.315 404.868 598.342C405.174 598.377 405.432 598.328 405.641 598.193C405.86 598.058 406.071 597.815 406.273 597.463L406.426 597.185L403.899 589.336L405.706 589.547L407.518 595.326L410.392 590.096L412.061 590.291ZM420.209 588.314L419.224 598.655L418.542 598.575L418.706 596.861C418.364 597.394 417.919 597.783 417.371 598.029C416.823 598.275 416.219 598.359 415.561 598.282C414.884 598.203 414.288 597.974 413.771 597.594C413.254 597.214 412.865 596.727 412.603 596.132C412.35 595.539 412.258 594.885 412.326 594.169C412.394 593.454 412.608 592.835 412.967 592.314C413.336 591.784 413.809 591.398 414.385 591.155C414.962 590.903 415.589 590.817 416.265 590.896C416.914 590.972 417.479 591.193 417.96 591.559C418.45 591.927 418.817 592.402 419.061 592.985L419.514 588.232L420.209 588.314ZM415.663 597.66C416.219 597.725 416.727 597.653 417.188 597.444C417.658 597.236 418.04 596.914 418.334 596.479C418.638 596.045 418.818 595.53 418.875 594.936C418.932 594.341 418.852 593.796 418.637 593.301C418.431 592.808 418.118 592.405 417.698 592.092C417.287 591.781 416.803 591.593 416.247 591.528C415.691 591.463 415.178 591.534 414.708 591.742C414.248 591.952 413.866 592.273 413.562 592.707C413.267 593.143 413.092 593.658 413.035 594.252C412.978 594.847 413.053 595.391 413.259 595.885C413.474 596.38 413.787 596.783 414.198 597.094C414.618 597.406 415.106 597.595 415.663 597.66ZM428.618 596.245L422.374 595.514C422.339 596.083 422.434 596.607 422.661 597.084C422.888 597.552 423.217 597.934 423.648 598.228C424.089 598.524 424.596 598.706 425.171 598.773C425.644 598.828 426.088 598.796 426.502 598.675C426.927 598.546 427.289 598.33 427.59 598.027L427.95 598.534C427.598 598.878 427.172 599.124 426.67 599.272C426.178 599.422 425.654 599.464 425.097 599.398C424.374 599.314 423.745 599.08 423.21 598.698C422.674 598.316 422.271 597.828 422 597.232C421.738 596.638 421.641 595.983 421.709 595.267C421.776 594.561 421.985 593.947 422.335 593.424C422.695 592.893 423.154 592.501 423.712 592.247C424.271 591.992 424.879 591.904 425.537 591.981C426.195 592.058 426.769 592.285 427.258 592.662C427.757 593.03 428.129 593.51 428.372 594.102C428.625 594.696 428.718 595.345 428.65 596.052L428.618 596.245ZM425.479 592.594C424.969 592.535 424.499 592.597 424.069 592.782C423.64 592.957 423.28 593.239 422.99 593.628C422.71 594.008 422.527 594.457 422.44 594.973L428.002 595.623C428.024 595.1 427.929 594.619 427.718 594.181C427.507 593.743 427.208 593.384 426.822 593.104C426.437 592.824 425.989 592.654 425.479 592.594ZM431.437 589.628L432.133 589.709L431.147 600.05L430.452 599.969L431.437 589.628ZM434.771 593.118L435.466 593.199L434.773 600.474L434.077 600.393L434.771 593.118ZM435.287 591.389C435.13 591.37 435 591.303 434.899 591.188C434.798 591.064 434.755 590.922 434.77 590.764C434.785 590.606 434.854 590.478 434.976 590.38C435.097 590.281 435.237 590.241 435.395 590.26C435.552 590.278 435.682 590.35 435.782 590.474C435.884 590.589 435.927 590.726 435.912 590.884C435.897 591.042 435.828 591.17 435.706 591.269C435.585 591.367 435.445 591.407 435.287 591.389ZM444.223 594.224L440.248 601.115L439.538 601.032L436.964 593.375L437.701 593.461L439.973 600.308L443.514 594.141L444.223 594.224ZM451.309 598.9L445.065 598.17C445.03 598.739 445.125 599.262 445.351 599.739C445.579 600.208 445.908 600.589 446.339 600.884C446.78 601.18 447.287 601.361 447.862 601.428C448.335 601.484 448.778 601.451 449.193 601.33C449.618 601.202 449.98 600.986 450.281 600.683L450.64 601.19C450.289 601.534 449.862 601.78 449.361 601.928C448.869 602.077 448.344 602.119 447.788 602.054C447.065 601.969 446.436 601.736 445.901 601.354C445.365 600.972 444.962 600.483 444.691 599.888C444.429 599.293 444.332 598.638 444.4 597.923C444.467 597.217 444.676 596.602 445.025 596.08C445.385 595.549 445.845 595.156 446.403 594.902C446.962 594.648 447.57 594.559 448.228 594.636C448.886 594.713 449.46 594.94 449.949 595.317C450.448 595.685 450.819 596.166 451.063 596.758C451.316 597.351 451.408 598.001 451.341 598.707L451.309 598.9ZM448.17 595.25C447.66 595.19 447.19 595.252 446.76 595.437C446.331 595.612 445.971 595.894 445.681 596.283C445.401 596.664 445.218 597.112 445.131 597.628L450.693 598.279C450.715 597.755 450.62 597.274 450.409 596.836C450.197 596.398 449.899 596.039 449.513 595.759C449.127 595.479 448.68 595.309 448.17 595.25ZM454.352 597.016C454.625 596.512 455.011 596.149 455.511 595.926C456.011 595.693 456.599 595.616 457.276 595.695L457.211 596.378L457.045 596.345C456.239 596.25 455.584 596.432 455.081 596.89C454.579 597.338 454.285 598.013 454.199 598.915L453.838 602.705L453.143 602.624L453.836 595.349L454.504 595.427L454.352 597.016Z" fill="black"/>
</svg>
