<svg width="90" height="90" viewBox="0 0 90 90" fill="none" xmlns="http://www.w3.org/2000/svg">
<circle cx="45" cy="45" r="45" fill="#FFBB00"/>
<path d="M22.7184 37.864H18.1785V40.0574H22.7184V37.864Z" fill="#868A91"/>
<g opacity="0.2">
<g opacity="0.2">
<path opacity="0.2" d="M22.4166 37.864H18.1785V40.0574H22.4166V37.864Z" fill="white"/>
</g>
</g>
<path d="M22.7184 41.9924H18.1785V44.1858H22.7184V41.9924Z" fill="#868A91"/>
<g opacity="0.2">
<g opacity="0.2">
<path opacity="0.2" d="M22.4166 41.9924H18.1785V44.1858H22.4166V41.9924Z" fill="white"/>
</g>
</g>
<path d="M22.7184 47.2683H18.1785V49.4617H22.7184V47.2683Z" fill="#868A91"/>
<g opacity="0.2">
<g opacity="0.2">
<path opacity="0.2" d="M22.4166 47.2683H18.1785V49.4617H22.4166V47.2683Z" fill="white"/>
</g>
</g>
<path d="M22.7184 50.3003H18.1785V52.4937H22.7184V50.3003Z" fill="#868A91"/>
<g opacity="0.2">
<g opacity="0.2">
<path opacity="0.2" d="M22.4166 50.3003H18.1785V52.4937H22.4166V50.3003Z" fill="white"/>
</g>
</g>
<path d="M22.7184 55.2798H18.1785V57.4732H22.7184V55.2798Z" fill="#868A91"/>
<g opacity="0.2">
<g opacity="0.2">
<path opacity="0.2" d="M22.4166 55.2798H18.1785V57.4732H22.4166V55.2798Z" fill="white"/>
</g>
</g>
<path d="M17.4672 55.2798H12.9272V57.4732H17.4672V55.2798Z" fill="#868A91"/>
<g opacity="0.2">
<g opacity="0.2">
<path opacity="0.2" d="M17.1654 55.2798H12.9272V57.4732H17.1654V55.2798Z" fill="white"/>
</g>
</g>
<path d="M22.7184 58.312H18.1785V60.5054H22.7184V58.312Z" fill="#868A91"/>
<g opacity="0.2">
<g opacity="0.2">
<path opacity="0.2" d="M22.4166 58.312H18.1785V60.5054H22.4166V58.312Z" fill="white"/>
</g>
</g>
<path d="M17.4672 58.312H12.9272V60.5054H17.4672V58.312Z" fill="#868A91"/>
<g opacity="0.2">
<g opacity="0.2">
<path opacity="0.2" d="M17.1654 58.312H12.9272V60.5054H17.1654V58.312Z" fill="white"/>
</g>
</g>
<path d="M22.7184 63.7319H18.1785V65.9253H22.7184V63.7319Z" fill="#868A91"/>
<g opacity="0.2">
<g opacity="0.2">
<path opacity="0.2" d="M22.4166 63.7319H18.1785V65.9253H22.4166V63.7319Z" fill="white"/>
</g>
</g>
<path d="M22.7184 67.7358H18.1785V69.9292H22.7184V67.7358Z" fill="#868A91"/>
<g opacity="0.2">
<g opacity="0.2">
<path opacity="0.2" d="M22.4166 67.7358H18.1785V69.9292H22.4166V67.7358Z" fill="white"/>
</g>
</g>
<path d="M73.3645 56.0623H68.8206V58.1274H73.3645V56.0623Z" fill="#B2B6BB"/>
<path d="M73.3645 60.043H68.8206V62.1081H73.3645V60.043Z" fill="#B2B6BB"/>
<path d="M69.9028 66.0893H73.3646V64.0232H69.3135" fill="#B2B6BB"/>
<g opacity="0.3">
<g opacity="0.3">
<path opacity="0.3" d="M73.3645 56.0623H68.8206V58.1274H73.3645V56.0623Z" fill="white"/>
</g>
</g>
<g opacity="0.3">
<g opacity="0.3">
<path opacity="0.3" d="M73.3645 60.0427H68.8206V62.1078H73.3645V60.0427Z" fill="white"/>
</g>
</g>
<g opacity="0.3">
<g opacity="0.3">
<path opacity="0.3" d="M73.3647 66.0893H68.84L68.8176 64.0232H73.3647V66.0893Z" fill="white"/>
</g>
</g>
<g opacity="0.3">
<g opacity="0.3">
<path opacity="0.3" d="M68.8198 68.0049H73.3648V70.07H68.8422L68.8198 68.0049Z" fill="white"/>
</g>
</g>
<path d="M55.2792 37.7806L54.6878 37.3588C54.6146 37.3065 54.53 37.2706 54.4403 37.2537C54.3506 37.2369 54.2581 37.2397 54.1696 37.2616L52.7217 37.6202L44.8439 34.8253L41.2673 30.938L39.0948 33.1479L42.704 36.6202C42.9455 36.8677 43.2562 37.0437 43.5992 37.1275L52.3274 39.1042C53.3435 39.3627 54.1828 38.5697 54.1828 38.5697L54.9856 39.1246L54.8911 39.3743C54.8555 39.4686 54.7855 39.5473 54.6939 39.5959L53.8587 40.04C53.8183 40.0612 53.7872 40.0958 53.7713 40.1372C53.7632 40.1611 53.7605 40.1864 53.7633 40.2115C53.766 40.2365 53.7744 40.2607 53.7876 40.2823C53.8008 40.3041 53.8187 40.3229 53.8401 40.3376C53.8614 40.3523 53.8857 40.3625 53.9115 40.3676L53.9573 40.3763C53.9913 40.3824 54.0265 40.3794 54.0589 40.3676L55.1491 39.9672C55.2292 39.9375 55.3018 39.8921 55.3621 39.8338C55.4226 39.7756 55.4694 39.7057 55.4997 39.629L55.8878 38.6571L55.2792 37.7806Z" fill="#FC9D9D"/>
<path opacity="0.15" d="M52.3039 38.8262L43.3216 36.3723L39.6423 32.5229L38.993 33.0661L42.7028 36.6201C42.9443 36.8676 43.255 37.0437 43.598 37.1274L52.3262 39.1041C53.1605 39.3169 53.8768 38.8183 54.1054 38.6346C52.9765 39.1477 52.3039 38.8262 52.3039 38.8262Z" fill="black"/>
<path d="M38.5626 27.5508L41.7297 30.9794L38.8623 33.404L36.1077 30.0075L38.5626 27.5508Z" fill="black"/>
<path d="M38.6813 33.1604L41.5334 30.7678L41.7367 30.9904L38.8916 33.4199L38.6813 33.1604Z" fill="#F4F4F4"/>
<path opacity="0.1" d="M55.2794 37.7802L54.688 37.3584C54.6147 37.3061 54.5301 37.2702 54.4404 37.2534C54.3507 37.2365 54.2582 37.2392 54.1698 37.2612L52.7218 37.6198L44.8441 34.8248L41.4909 31.1825L41.7318 30.9794L38.5646 27.5508L36.1077 30.0085L38.8623 33.404L39.1214 33.1854L42.7062 36.6198C42.9476 36.8673 43.2583 37.0434 43.6014 37.1271L52.3296 39.1038C52.3764 39.1164 52.4231 39.1251 52.4688 39.1329H52.4953C52.54 39.1397 52.5837 39.1446 52.6273 39.1475H52.6517C52.6934 39.1475 52.7351 39.1475 52.7757 39.1475H52.7869C52.8295 39.1475 52.8712 39.1475 52.9129 39.1397H52.9403C52.9799 39.1397 53.0196 39.129 53.0582 39.1222H53.0805C53.1171 39.1154 53.1517 39.1077 53.1821 39.0989H53.1994C53.237 39.0892 53.2726 39.0785 53.3081 39.0678L53.3356 39.0591C53.3701 39.0474 53.4036 39.0357 53.4372 39.0221L53.4555 39.0153L53.5428 38.9784L53.5611 38.9706L53.6516 38.9269L53.6729 38.9162C53.7014 38.9016 53.7298 38.8871 53.7562 38.8715H53.7664L53.8385 38.8278L53.8528 38.82L53.93 38.7646L53.9422 38.7559C53.9879 38.7257 54.0285 38.6966 54.0621 38.6713C54.1413 38.6111 54.185 38.5741 54.185 38.5741L54.2104 38.5916L54.9877 39.129L54.8932 39.3788C54.8577 39.4731 54.7877 39.5518 54.6961 39.6004L53.8609 40.0445C53.8204 40.0658 53.7893 40.1003 53.7735 40.1417C53.7654 40.1657 53.7626 40.1909 53.7654 40.2159C53.7682 40.241 53.7765 40.2651 53.7898 40.2869C53.803 40.3086 53.8209 40.3274 53.8422 40.3421C53.8635 40.3567 53.8879 40.3669 53.9137 40.372L53.9594 40.3807C53.9935 40.387 54.0286 40.3839 54.0611 40.372L55.1493 39.9667C55.2293 39.9372 55.3019 39.8917 55.3623 39.8335C55.4227 39.7752 55.4696 39.7054 55.4998 39.6286L55.888 38.6567L55.2794 37.7802Z" fill="black"/>
<path d="M48.4349 59.8094L48.4298 61.9581L51.3592 61.8891L51.6589 59.3789L48.4349 59.8094Z" fill="#FC9D9D"/>
<path opacity="0.15" d="M51.5493 60.0946L49.9479 60.2277C49.8126 60.2732 49.6953 60.3577 49.6123 60.4696C49.5293 60.5815 49.4847 60.7154 49.4846 60.8526V61.9332L48.4349 61.9614V59.8817L51.5848 59.8098L51.5493 60.0946Z" fill="black"/>
<path d="M48.2456 61.6747L48.2659 63.8448C48.2658 63.9279 48.282 64.0103 48.3137 64.0878C48.3437 64.1633 48.3881 64.2329 48.4448 64.2928C48.4996 64.3504 48.5664 64.3963 48.6409 64.4279C48.7133 64.4591 48.792 64.4751 48.8715 64.4746L55.847 64.4143C55.8806 64.4137 55.9139 64.4063 55.9444 64.3926C55.9748 64.3789 56.0019 64.3591 56.0238 64.3346C56.0717 64.2826 56.0974 64.2154 56.0959 64.1461C56.0936 63.8969 56.0164 63.6537 55.8734 63.4454C55.7383 63.2466 55.5398 63.0946 55.3075 63.012L53.7264 62.4775L51.7206 60.8545C51.6231 60.7724 51.4964 60.7292 51.3665 60.7337C51.2367 60.7382 51.1136 60.7902 51.0226 60.8788L50.1467 61.6835C50.0853 61.7411 50.0087 61.7817 49.9252 61.8011C49.8435 61.8197 49.7581 61.8163 49.6783 61.7914L48.5545 61.4318C48.5188 61.4203 48.4806 61.418 48.4437 61.425C48.4064 61.4317 48.3713 61.4473 48.3421 61.4707C48.311 61.4948 48.2866 61.5258 48.271 61.561C48.254 61.5967 48.2454 61.6355 48.2456 61.6747Z" fill="black"/>
<path d="M48.2456 61.6747L48.2659 63.8448C48.2658 63.9279 48.282 64.0103 48.3137 64.0878C48.3437 64.1633 48.3881 64.2329 48.4448 64.2928C48.4996 64.3504 48.5664 64.3963 48.6409 64.4279C48.7133 64.4591 48.792 64.4751 48.8715 64.4746L55.847 64.4143C55.8806 64.4137 55.9139 64.4063 55.9444 64.3926C55.9748 64.3789 56.0019 64.3591 56.0238 64.3346C56.0717 64.2826 56.0974 64.2154 56.0959 64.1461C56.0936 63.8969 56.0164 63.6537 55.8734 63.4454C55.7383 63.2466 55.5398 63.0946 55.3075 63.012L53.7264 62.4775L51.7206 60.8545C51.6231 60.7724 51.4964 60.7292 51.3665 60.7337C51.2367 60.7382 51.1136 60.7902 51.0226 60.8788L50.1467 61.6835C50.0853 61.7411 50.0087 61.7817 49.9252 61.8011C49.8435 61.8197 49.7581 61.8163 49.6783 61.7914L48.5545 61.4318C48.5188 61.4203 48.4806 61.418 48.4437 61.425C48.4064 61.4317 48.3713 61.4473 48.3421 61.4707C48.311 61.4948 48.2866 61.5258 48.271 61.561C48.254 61.5967 48.2454 61.6355 48.2456 61.6747Z" fill="#3F4249"/>
<path d="M48.8759 64.4734L55.8473 64.4132C55.8809 64.4124 55.9141 64.4048 55.9444 64.3911C55.9749 64.3774 56.0021 64.3578 56.0241 64.3335C56.072 64.2815 56.0977 64.2141 56.0963 64.1449C56.0976 64.0553 56.0859 63.9661 56.0617 63.8796L48.2794 63.9457C48.3019 64.0902 48.3733 64.2237 48.4826 64.3257C48.5881 64.4203 48.7272 64.473 48.8718 64.4734H48.8759Z" fill="#21252B"/>
<path opacity="0.3" d="M48.8759 64.4734L55.8473 64.4132C55.8809 64.4124 55.9141 64.4048 55.9444 64.3911C55.9749 64.3774 56.0021 64.3578 56.0241 64.3335C56.072 64.2815 56.0977 64.2141 56.0963 64.1449C56.0976 64.0553 56.0859 63.9661 56.0617 63.8796L48.2794 63.9457C48.3019 64.0902 48.3733 64.2237 48.4826 64.3257C48.5881 64.4203 48.7272 64.473 48.8718 64.4734H48.8759Z" fill="black"/>
<path d="M51.6845 61.7211C51.6767 61.7209 51.6692 61.7193 51.6623 61.7162C51.6553 61.7133 51.649 61.709 51.6438 61.7036C51.6375 61.6975 51.6327 61.6903 51.6296 61.6822C51.6263 61.6742 51.6246 61.6656 51.6245 61.657C51.6246 61.648 51.6263 61.6392 51.6296 61.6307C51.6327 61.623 51.6372 61.6158 51.6428 61.6093L52.0614 61.1234C52.0668 61.1172 52.0736 61.1121 52.0813 61.1086C52.0891 61.1051 52.0975 61.1031 52.1061 61.103C52.1231 61.1037 52.1392 61.1107 52.1508 61.1225C52.1633 61.1359 52.1702 61.1532 52.1701 61.1711C52.1702 61.1883 52.1636 61.2049 52.1519 61.2177L51.7342 61.7036C51.7196 61.7139 51.7024 61.7203 51.6845 61.7221V61.7211Z" fill="#F4F4F4"/>
<path d="M52.0216 61.9914C52.014 61.9914 52.0064 61.9899 51.9994 61.9871C51.9925 61.9843 51.9862 61.9801 51.9809 61.9749C51.9746 61.9687 51.9699 61.9615 51.9667 61.9535C51.9653 61.9451 51.9653 61.9366 51.9667 61.9282C51.9652 61.9193 51.9652 61.91 51.9667 61.901C51.9697 61.8932 51.9741 61.8859 51.9799 61.8796L52.3986 61.3937C52.404 61.3877 52.4107 61.3828 52.4182 61.3795C52.4257 61.3761 52.4339 61.3744 52.4423 61.3743C52.4591 61.3746 52.4752 61.3813 52.487 61.3927C52.4991 61.4059 52.5056 61.4229 52.5053 61.4404C52.5059 61.4577 52.4997 61.4748 52.488 61.488L52.0704 61.9739C52.0555 61.983 52.039 61.9889 52.0216 61.9914Z" fill="#F4F4F4"/>
<path d="M52.3539 62.2645C52.3386 62.2641 52.3242 62.2582 52.3132 62.248C52.3016 62.2347 52.2951 62.2177 52.2949 62.2003C52.2947 62.183 52.3009 62.1662 52.3122 62.1527L52.7308 61.6668C52.7362 61.6611 52.7427 61.6564 52.7501 61.6532C52.7575 61.6501 52.7655 61.6484 52.7735 61.6484C52.7816 61.6484 52.7896 61.6501 52.797 61.6532C52.8043 61.6564 52.8109 61.6611 52.8162 61.6668C52.8276 61.6792 52.834 61.6951 52.8345 61.7115C52.8356 61.7279 52.8305 61.7441 52.8202 61.7572L52.4016 62.2431C52.3886 62.2545 52.3715 62.2608 52.3539 62.2606V62.2645Z" fill="#F4F4F4"/>
<path opacity="0.15" d="M56.0959 64.1447C56.0967 64.0868 56.092 64.0288 56.0817 63.9717C56.0555 63.7839 55.9861 63.6041 55.8785 63.445C55.7433 63.2461 55.5449 63.0941 55.3125 63.0115L53.7264 62.477L52.8241 61.7491C52.8294 61.7396 52.8319 61.7288 52.8312 61.718C52.8307 61.7015 52.8243 61.6858 52.8129 61.6733C52.8075 61.6675 52.801 61.6629 52.7936 61.6597C52.7863 61.6565 52.7783 61.6549 52.7702 61.6549C52.7622 61.6549 52.7542 61.6565 52.7469 61.6597C52.7395 61.6629 52.7328 61.6675 52.7276 61.6733L52.4928 61.479C52.4998 61.4682 52.5032 61.4556 52.503 61.443C52.5033 61.4255 52.4968 61.4085 52.4847 61.3954C52.4729 61.3838 52.4569 61.3772 52.44 61.3769C52.4317 61.377 52.4234 61.3788 52.4159 61.3821C52.4084 61.3855 52.4017 61.3903 52.3963 61.3964L52.1596 61.202C52.1662 61.1914 52.17 61.1794 52.1707 61.167C52.1708 61.1491 52.1639 61.1317 52.1514 61.1184C52.1398 61.1066 52.1237 61.0997 52.1067 61.099C52.0982 61.0991 52.0898 61.1009 52.082 61.1045C52.0743 61.108 52.0675 61.1131 52.062 61.1194L51.7237 60.8463C51.6584 60.7937 51.5811 60.7568 51.4981 60.7384L51.6617 59.3711L48.4376 59.8016V61.4207C48.4054 61.4284 48.3752 61.4426 48.3492 61.4625C48.3181 61.4866 48.2937 61.5177 48.2781 61.5528C48.2611 61.5886 48.2525 61.6274 48.2527 61.6665L48.273 63.8366C48.2729 63.9197 48.2892 64.0021 48.3208 64.0796C48.3507 64.1551 48.3952 64.2247 48.4518 64.2846C48.5067 64.3421 48.5736 64.3881 48.6479 64.4197C48.7204 64.4509 48.7991 64.4668 48.8786 64.4663L55.8541 64.4061C55.8878 64.4055 55.9209 64.3982 55.9514 64.3844C55.9819 64.3707 56.009 64.3509 56.0309 64.3264C56.0787 64.2744 56.1044 64.2072 56.103 64.1379L56.0959 64.1447Z" fill="black"/>
<path d="M40.3466 40.4985L50.6458 43.3508C50.6458 43.3508 53.0671 43.8562 52.869 45.5044L51.7706 59.9427H50.6458L49.0719 45.9329L39.1771 41.5316L40.3466 40.4985Z" fill="#21252B"/>
<path opacity="0.3" d="M40.3466 40.4985L50.6458 43.3508C50.6458 43.3508 53.0671 43.8562 52.869 45.5044L51.7706 59.9427H50.6458L49.0719 45.9329L39.1771 41.5316L40.3466 40.4985Z" fill="black"/>
<path d="M51.8977 59.9506H48.2397V58.9788H51.9993L51.8977 59.9506Z" fill="#21252B"/>
<path opacity="0.4" d="M51.8977 59.9506H48.2397V58.9788H51.9993L51.8977 59.9506Z" fill="black"/>
<path opacity="0.3" d="M49.3574 58.9788H48.2397V59.9506H49.3574V58.9788Z" fill="black"/>
<path d="M13.8243 55.8989L13.0266 55.7201C12.7936 55.6675 12.5919 55.5284 12.4659 55.3337C12.34 55.1388 12.3001 54.9042 12.355 54.6812L13.1882 52.7307C13.2758 52.5238 13.4426 52.3568 13.6548 52.2637C13.8669 52.1707 14.1083 52.1587 14.3293 52.2302L14.821 52.3478L13.8243 55.8989Z" fill="#B2B6BB"/>
<path d="M70.6639 71.9914C74.9142 71.796 78.1952 68.3422 77.991 64.2761C77.7867 60.2103 74.1755 57.0727 69.9242 57.2679C65.6729 57.4633 62.3929 60.9176 62.5961 64.9834C62.8003 69.0487 66.4126 72.1867 70.6639 71.9914Z" fill="#21252B"/>
<path d="M64.8836 64.5567C64.8684 65.5799 65.1701 66.585 65.7524 67.4431C66.3336 68.3022 67.1688 68.9766 68.1503 69.3819C69.1329 69.7871 70.2191 69.9047 71.2718 69.7191C72.3234 69.5345 73.2948 69.0554 74.062 68.342C74.8301 67.6287 75.3585 66.7142 75.5831 65.7133C75.8066 64.7126 75.7152 63.6709 75.3199 62.72C74.9246 61.769 74.2428 60.9515 73.3619 60.3708C72.4809 59.7901 71.4405 59.4723 70.3705 59.4576C69.6603 59.4478 68.9551 59.5719 68.2946 59.823C67.6342 60.0739 67.0326 60.4468 66.5226 60.9202C66.0135 61.3938 65.606 61.9586 65.3246 62.5825C65.0441 63.2066 64.8938 63.8773 64.8836 64.5567Z" fill="#FAFAFA"/>
<path d="M66.9979 64.586C66.9887 65.2091 67.1737 65.8211 67.5283 66.343C67.8839 66.8658 68.392 67.2769 68.9904 67.5227C69.5889 67.7686 70.2504 67.8396 70.8916 67.7268C71.5327 67.6131 72.1231 67.3206 72.5905 66.8862C73.0579 66.4518 73.3789 65.8949 73.5151 65.285C73.6513 64.6756 73.5954 64.0413 73.3546 63.4622C73.1137 62.8832 72.6982 62.3855 72.1617 62.0319C71.6252 61.6785 70.9911 61.485 70.3398 61.4762C69.907 61.4701 69.4761 61.5457 69.0738 61.6989C68.6714 61.852 68.3046 62.0794 67.9947 62.3683C67.6838 62.6571 67.4358 63.0016 67.2651 63.3822C67.0944 63.7628 67.003 64.1718 66.9979 64.586Z" fill="#868A91"/>
<path d="M67.9904 60.1206L67.6602 60.286C67.2284 60.5023 67.0607 61.0126 67.2873 61.4259L69.2646 65.0386C69.4902 65.4518 70.0246 65.6112 70.4565 65.3952L70.7867 65.2298C71.2185 65.0135 71.3852 64.5031 71.1596 64.0899L69.1823 60.4772C68.9557 60.064 68.4223 59.9044 67.9904 60.1206Z" fill="#3F4249"/>
<path d="M66.6311 53.828C66.6311 53.828 74.5211 51.5461 77.7837 59.7434L61.2783 64.6307L66.6311 53.828Z" fill="black"/>
<path d="M23.1183 71.9914C27.3693 71.796 30.65 68.3422 30.4457 64.2761C30.2416 60.2103 26.6299 57.0727 22.3789 57.2679C18.1278 57.4633 14.8472 60.9176 15.0514 64.9834C15.2556 69.0487 18.8672 72.1867 23.1183 71.9914Z" fill="#21252B"/>
<path d="M17.3391 64.5568C17.3237 65.5799 17.6259 66.585 18.2075 67.4431C18.7891 68.3022 19.6239 68.9767 20.6064 69.3819C21.589 69.7872 22.675 69.9047 23.7272 69.7191C24.7795 69.5345 25.7507 69.0554 26.518 68.342C27.2854 67.6287 27.8145 66.7142 28.0382 65.7133C28.2621 64.7126 28.1705 63.6709 27.7754 62.72C27.3802 61.769 26.699 60.9515 25.8181 60.3708C24.937 59.7901 23.8958 59.4723 22.826 59.4576C22.1156 59.4478 21.4101 59.5718 20.7499 59.8227C20.0896 60.0736 19.4876 60.4465 18.978 60.9201C18.4685 61.3935 18.0615 61.9585 17.7803 62.5825C17.4991 63.2065 17.3491 63.8773 17.3391 64.5568Z" fill="#FAFAFA"/>
<path d="M19.4535 64.586C19.445 65.2091 19.6297 65.8211 19.9845 66.343C20.3393 66.8658 20.8481 67.2769 21.4466 67.5227C22.0452 67.7686 22.7067 67.8396 23.3474 67.7268C23.9881 67.6131 24.5793 67.3206 25.0463 66.8862C25.5133 66.4518 25.8351 65.8949 25.9711 65.285C26.1071 64.6756 26.051 64.0413 25.8101 63.4622C25.5693 62.8832 25.1543 62.3855 24.6177 62.0319C24.0811 61.6785 23.447 61.485 22.7955 61.4762C22.3624 61.4701 21.9324 61.5457 21.53 61.6989C21.1275 61.852 20.7606 62.0794 20.4503 62.3683C20.1399 62.6571 19.8921 63.0016 19.7211 63.3822C19.55 63.7628 19.4591 64.1718 19.4535 64.586Z" fill="#868A91"/>
<path d="M29.1748 62.5851C29.1748 62.5851 30.0365 62.7348 30.5282 61.1731L35.754 61.9651L35.945 63.762C35.945 63.762 35.6991 67.2936 29.1768 66.7047L29.1748 62.5851Z" fill="#3F4249"/>
<path d="M12.7443 58.4113C12.7443 58.4113 12.3775 51.2296 19.4343 49.733V48.8117H44.1579V50.665C44.1584 50.8805 44.0853 51.0904 43.9496 51.2626C43.1957 52.2199 40.7032 55.6961 41.7142 58.6572C42.899 62.1276 43.2688 62.4823 43.2688 62.4823H57.3397C57.3397 62.4823 59.0437 60.4279 59.1179 57.3822C59.1921 54.3365 57.8681 49.1285 56.8825 45.7991C55.9843 42.7728 55.4163 40.2412 55.4163 40.2412L59.6381 38.8953C59.6381 38.8953 67.449 48.663 67.767 49.2131C68.085 49.7631 69.1702 51.044 68.9152 53.8506C68.6601 56.6572 61.6409 65.3249 59.7906 66.3006C57.9402 67.2763 56.281 67.3385 54.6217 67.5824C53.1819 67.7943 42.5301 67.6543 39.743 67.6135C38.7745 67.6077 37.825 67.356 36.9924 66.8827C36.1592 66.3968 35.5323 65.5999 34.8403 64.287L33.3731 61.5406L12.7443 58.4113Z" fill="black"/>
<path d="M37.0566 58.9875C38.784 48.7989 25.3654 50.8465 25.3654 50.8465C17.6177 51.8184 15.3925 56.5803 15.3925 56.5803L37.0566 58.9875Z" fill="#DADDDF"/>
<path d="M14.6364 57.9097L11.5221 62.5744C11.1238 63.1721 11.7691 63.9233 12.4488 63.6434C12.8348 63.4771 13.1871 63.2468 13.4893 62.9631C14.9118 61.6667 17.4521 58.2537 17.4521 58.2537L14.6364 57.9097Z" fill="#61656D"/>
<path d="M30.701 50.8464C32.0829 51.0991 33.4556 51.5044 34.5896 52.2284C35.7235 52.9524 36.4185 53.8426 36.9266 55.0525C37.4184 56.2293 37.2954 57.9951 37.0495 58.9397L38.5635 59.2313C39.1518 57.3557 38.5117 55.0525 37.0983 53.585C35.44 51.862 33.1599 50.8503 30.6969 50.8503" fill="#DADDDF"/>
<g opacity="0.1">
<path opacity="0.1" d="M30.701 50.8464C32.0829 51.0991 33.4556 51.5044 34.5896 52.2284C35.7235 52.9524 36.4185 53.8426 36.9266 55.0525C37.4184 56.2293 37.2954 57.9951 37.0495 58.9397L38.5635 59.2313C39.1518 57.3557 38.5117 55.0525 37.0983 53.585C35.44 51.862 33.1599 50.8503 30.6969 50.8503" fill="black"/>
</g>
<path d="M44.1578 48.8113C44.4088 48.5059 44.5638 48.1385 44.6049 47.752C44.6435 47.1582 44.36 46.4158 43.6904 46.4158H35.1552C34.491 46.4158 33.8539 46.6683 33.3841 47.1174C32.9144 47.5667 32.6505 48.176 32.6505 48.8113H44.1578Z" fill="#3F4249"/>
<path d="M55.4145 40.2412L53.93 37.28C53.734 36.8735 53.7023 36.412 53.8409 35.9844C53.9796 35.5568 54.2787 35.1933 54.6809 34.9642L59.1202 32.4307C59.3521 32.2984 59.6172 32.2285 59.8873 32.2285H60.8475L61.2316 38.214L59.7512 38.7562L60.688 40.214L55.4145 40.2412Z" fill="black"/>
<path d="M60.8606 32.4482C60.8606 32.4482 62.3795 32.7806 62.5705 35.0206C62.7616 37.2607 61.2315 37.9575 61.2315 37.9575L60.8606 32.4482Z" fill="#B2B6BB"/>
<path d="M55.9323 37.414C55.9323 37.414 52.8616 38.8066 52.4867 39.0349C52.2266 39.1933 52.003 39.4703 52.2073 39.9582C52.5548 40.79 53.9905 40.0077 53.9905 40.0077L56.8488 38.6414C56.8488 38.6414 57.9472 38.1448 57.5418 37.5247C57.0876 36.8299 55.9323 37.414 55.9323 37.414Z" fill="#21252B"/>
<path d="M56.0789 31.7677C56.0789 32.8843 55.5424 33.7891 54.8799 33.7891C54.2174 33.7891 53.6809 32.8843 53.6809 31.7677C53.6809 30.6511 54.2174 29.7454 54.8799 29.7454C55.5424 29.7454 56.0789 30.653 56.0789 31.7677Z" fill="#21252B"/>
<path d="M55.0771 33.1603L55.8606 36.1671C55.9805 36.109 56.0761 36.0134 56.1316 35.8962C56.1869 35.779 56.1989 35.6474 56.1654 35.5228C55.9998 34.7745 55.7833 33.4188 55.6025 32.7638C55.5801 32.6977 55.0771 33.1603 55.0771 33.1603Z" fill="#21252B"/>
<g opacity="0.3">
<path opacity="0.3" d="M42.0413 59.5899C41.9763 59.4102 41.9093 59.2255 41.8463 59.037C41.7833 58.8484 41.7193 58.6784 41.6685 58.5025C41.5927 58.2326 41.5377 57.9579 41.5039 57.6803C40.3923 62.0088 42.0891 65.0574 45.0042 65.2722C49.2617 65.5851 54.4539 65.8125 56.5532 65.2858C60.3808 64.3246 61.7853 61.2722 62.1206 60.7697C62.4559 60.2673 65.5001 54.9437 63.6346 49.8193C61.769 44.6949 58.5143 39.2507 58.5143 39.2507L55.4141 40.2391C55.4141 40.2391 55.9822 42.7658 56.8804 45.7969C57.868 49.1264 59.191 54.3343 59.1158 57.38C59.0406 60.4257 57.3376 62.4801 57.3376 62.4801H43.2688C43.2688 62.4801 42.9639 62.1886 42.0393 59.588" fill="black"/>
</g>
<path d="M12.1823 57.2848L12.2839 56.2576L37.9667 59.0875C38.3098 59.1264 38.6411 59.2318 38.9401 59.3974C39.2392 59.5629 39.4998 59.7851 39.706 60.0503C39.9122 60.3154 40.0597 60.618 40.1394 60.9396C40.2191 61.2612 40.2294 61.5949 40.1696 61.9204L40.0538 62.5433L13.4727 58.8504C13.0886 58.7978 12.7403 58.606 12.5001 58.3145C12.2598 58.023 12.146 57.6543 12.1823 57.2848Z" fill="#EBC325"/>
<g opacity="0.3">
<path opacity="0.3" d="M12.1823 57.2848L12.2839 56.2576L37.9667 59.0875C38.3098 59.1264 38.6411 59.2318 38.9401 59.3974C39.2392 59.5629 39.4998 59.7851 39.706 60.0503C39.9122 60.3154 40.0597 60.618 40.1394 60.9396C40.2191 61.2612 40.2294 61.5949 40.1696 61.9204L40.0538 62.5433L13.4727 58.8504C13.0886 58.7978 12.7403 58.606 12.5001 58.3145C12.2598 58.023 12.146 57.6543 12.1823 57.2848Z" fill="black"/>
</g>
<path d="M29.0519 32.8088H18.4692V43.0479H29.0519V32.8088Z" fill="black"/>
<path opacity="0.2" d="M26.4954 32.8088H18.4692V43.0479H26.4954V32.8088Z" fill="white"/>
<path opacity="0.15" d="M29.0518 32.8088H26.4679V43.0479H29.0518V32.8088Z" fill="black"/>
<path opacity="0.3" d="M23.3912 32.8088H21.5449V34.2209H23.3912V32.8088Z" fill="black"/>
<path d="M25.976 33.4995H24.1298V34.5588H25.976V33.4995Z" fill="white"/>
<path d="M24.0067 35.28H15.1464V45.5191H24.0067V35.28Z" fill="black"/>
<path opacity="0.3" d="M22.3291 35.28H15.1464V45.5191H22.3291V35.28Z" fill="white"/>
<path opacity="0.15" d="M24.007 35.28H22.2837V45.5191H24.007V35.28Z" fill="black"/>
<path opacity="0.3" d="M19.4526 35.28H17.8533V36.8097H19.4526V35.28Z" fill="black"/>
<path d="M21.7907 35.9915H19.9922V36.8155H21.7907V35.9915Z" fill="white"/>
<g opacity="0.2">
<path opacity="0.2" d="M62.1184 64.1564C62.1184 64.1564 67.772 58.2089 68.9374 53.5334C69.3296 53.5334 70.2421 53.5675 70.6892 53.6569C70.6892 53.6569 67.3422 62.3488 62.1184 64.1564Z" fill="black"/>
</g>
<path opacity="0.2" d="M44.1877 48.8154H19.4529V49.7571H44.1877V48.8154Z" fill="black"/>
<path d="M14.4037 38.1052V48.8157H29.7904V38.1052H14.4037ZM22.8982 40.2228H19.0198C18.9519 40.228 18.8836 40.2195 18.8192 40.1982C18.7549 40.1769 18.6959 40.143 18.6459 40.0988C18.5958 40.0546 18.5559 40.001 18.5286 39.9413C18.5013 39.8815 18.4872 39.8171 18.4872 39.752C18.4872 39.6869 18.5013 39.6223 18.5286 39.5627C18.5559 39.503 18.5958 39.4493 18.6459 39.4051C18.6959 39.3609 18.7549 39.3271 18.8192 39.3057C18.8836 39.2843 18.9519 39.276 19.0198 39.2811H22.8982C22.9661 39.276 23.0344 39.2843 23.0988 39.3057C23.1631 39.3271 23.2222 39.3609 23.2722 39.4051C23.3223 39.4493 23.3622 39.503 23.3894 39.5627C23.4168 39.6223 23.4309 39.6869 23.4309 39.752C23.4309 39.8171 23.4168 39.8815 23.3894 39.9413C23.3622 40.001 23.3223 40.0546 23.2722 40.0988C23.2222 40.143 23.1631 40.1769 23.0988 40.1982C23.0344 40.2195 22.9661 40.228 22.8982 40.2228Z" fill="#61656D"/>
<path opacity="0.3" d="M29.7345 62.585H23.2C22.218 62.585 21.4219 63.3464 21.4219 64.2856V65.0038C21.4219 65.9427 22.218 66.7046 23.2 66.7046H29.7345C30.7166 66.7046 31.5127 65.9427 31.5127 65.0038V64.2856C31.5127 63.3464 30.7166 62.585 29.7345 62.585Z" fill="black"/>
<path opacity="0.2" d="M29.7905 38.1052H27.6984V48.8157H29.7905V38.1052Z" fill="black"/>
<path d="M29.4886 62.585H22.9541C21.972 62.585 21.1759 63.3464 21.1759 64.2856V65.0038C21.1759 65.9427 21.972 66.7046 22.9541 66.7046H29.4886C30.4706 66.7046 31.2668 65.9427 31.2668 65.0038V64.2856C31.2668 63.3464 30.4706 62.585 29.4886 62.585Z" fill="#3F4249"/>
<g opacity="0.3">
<path opacity="0.3" d="M22.775 65.4988C22.763 65.4988 22.751 65.4965 22.7399 65.4921C22.7287 65.4876 22.7186 65.4811 22.71 65.4729C22.7016 65.4646 22.6949 65.4549 22.6903 65.4441C22.6857 65.4334 22.6835 65.4219 22.6836 65.4104V63.8797C22.686 63.858 22.6967 63.8379 22.7137 63.8233C22.7307 63.8086 22.7528 63.8005 22.7756 63.8005C22.7984 63.8005 22.8205 63.8086 22.8374 63.8233C22.8544 63.8379 22.8652 63.858 22.8675 63.8797V65.4104C22.8675 65.4338 22.8578 65.4563 22.8405 65.4729C22.8231 65.4895 22.7996 65.4988 22.775 65.4988Z" fill="black"/>
</g>
<g opacity="0.3">
<path opacity="0.3" d="M23.2061 65.4987C23.1815 65.4987 23.1581 65.4894 23.1407 65.4728C23.1234 65.4562 23.1136 65.4337 23.1136 65.4103V63.8797C23.1136 63.8562 23.1234 63.8337 23.1407 63.8171C23.1581 63.8005 23.1815 63.7913 23.2061 63.7913C23.2306 63.7913 23.2542 63.8005 23.2715 63.8171C23.2888 63.8337 23.2986 63.8562 23.2986 63.8797V65.4103C23.2986 65.4337 23.2888 65.4562 23.2715 65.4728C23.2542 65.4894 23.2306 65.4987 23.2061 65.4987Z" fill="black"/>
</g>
<g opacity="0.3">
<path opacity="0.3" d="M70.0918 65.0867C69.9506 65.0867 69.8134 65.0467 69.6966 64.972C69.5797 64.8972 69.4883 64.791 69.4344 64.6666C69.3805 64.5423 69.3663 64.4056 69.3938 64.2736C69.4212 64.1417 69.4893 64.0205 69.5888 63.9253C69.6884 63.8302 69.8154 63.7654 69.9526 63.7391C70.0908 63.7129 70.2341 63.7264 70.3641 63.7778C70.4942 63.8293 70.605 63.9165 70.6832 64.0284C70.7615 64.1403 70.8031 64.2718 70.8031 64.4064C70.8031 64.5867 70.7279 64.7598 70.5948 64.8873C70.4617 65.0149 70.2808 65.0867 70.0918 65.0867ZM70.0918 63.9098C69.9882 63.9096 69.8866 63.9387 69.8002 63.9937C69.7148 64.0486 69.6468 64.1268 69.6071 64.2182C69.5675 64.3098 69.5574 64.4105 69.5777 64.5076C69.598 64.6048 69.6478 64.694 69.7209 64.7641C69.7941 64.8342 69.8876 64.8819 69.9892 64.9011C70.0908 64.9205 70.1955 64.9105 70.291 64.8725C70.3875 64.8345 70.4688 64.7701 70.5257 64.6877C70.5836 64.6052 70.6141 64.5083 70.6141 64.4093C70.6141 64.2768 70.5582 64.1499 70.4607 64.0563C70.3631 63.9627 70.23 63.91 70.0918 63.9098Z" fill="black"/>
</g>
<g opacity="0.2">
<path opacity="0.2" d="M57.398 62.4268L57.311 62.5099L59.0341 64.1578L59.1209 64.0747L57.398 62.4268Z" fill="black"/>
</g>
<g opacity="0.2">
<path opacity="0.2" d="M42.6004 64.1683L42.4795 64.1459C42.6007 63.5215 42.8748 62.9334 43.2792 62.4297L43.3737 62.5055C42.9854 62.9954 42.7208 63.5645 42.6004 64.1683Z" fill="black"/>
</g>
<path d="M35.697 56.0532C35.6831 56.0533 35.6694 56.0488 35.6586 56.0405C35.6477 56.0322 35.6401 56.0206 35.637 56.0075C34.7957 52.5585 30.6876 52.1718 30.646 52.1688C30.6297 52.1674 30.6147 52.1598 30.6042 52.1478C30.5937 52.1358 30.5887 52.1202 30.5901 52.1047C30.5916 52.0891 30.5995 52.0748 30.6121 52.0648C30.6247 52.0547 30.6409 52.0499 30.6571 52.0513C30.6988 52.0513 34.8953 52.4497 35.7569 55.9803C35.7606 55.9956 35.7578 56.0115 35.7493 56.0248C35.7408 56.038 35.727 56.0476 35.7112 56.0513L35.697 56.0532Z" fill="white"/>
<path d="M35.6968 56.0972C35.6731 56.0967 35.6501 56.0886 35.6317 56.0741C35.6133 56.0597 35.6004 56.0398 35.5952 56.0176C34.76 52.5948 30.6855 52.2168 30.6448 52.2129C30.6176 52.2093 30.5927 52.1959 30.5754 52.1754C30.5582 52.1549 30.5498 52.1288 30.552 52.1025C30.5542 52.0763 30.5669 52.0519 30.5873 52.0342C30.6079 52.0166 30.6346 52.0072 30.6621 52.0078C30.7068 52.0078 34.9358 52.4082 35.8046 55.9709C35.811 55.9974 35.8061 56.0253 35.791 56.0485C35.776 56.0716 35.752 56.0881 35.7243 56.0943L35.6968 56.0972ZM30.6519 52.0953C30.648 52.0953 30.6441 52.0967 30.6412 52.0991C30.6381 52.1016 30.6362 52.1051 30.6357 52.1089C30.6354 52.1129 30.6367 52.1168 30.6393 52.1199C30.642 52.1229 30.6458 52.1249 30.6499 52.1254C30.6916 52.1254 34.8311 52.5142 35.6816 55.9981C35.6826 56.0018 35.6851 56.005 35.6885 56.0071C35.6919 56.009 35.696 56.0097 35.6999 56.0088C35.7039 56.0078 35.7073 56.0056 35.7096 56.0023C35.7118 55.9991 35.7127 55.9951 35.7121 55.9913C34.8576 52.4928 30.6946 52.1041 30.653 52.0963L30.6519 52.0953Z" fill="white"/>
<path d="M19.4525 48.903C19.4282 48.903 19.405 48.8937 19.3879 48.8773C19.3707 48.8609 19.3611 48.8386 19.3611 48.8155V37.9758V37.9651L20.7755 32.7863C20.7782 32.7747 20.7834 32.7639 20.7906 32.7542C20.7979 32.7446 20.8071 32.7366 20.8176 32.7303C20.8282 32.7242 20.84 32.7202 20.8523 32.7185C20.8646 32.7167 20.877 32.7174 20.889 32.7204C20.901 32.7234 20.9122 32.7287 20.922 32.7359C20.9319 32.7432 20.9401 32.7522 20.9462 32.7625C20.9522 32.7728 20.9561 32.7842 20.9575 32.7959C20.9589 32.8077 20.9579 32.8196 20.9543 32.831L19.5419 37.9982V48.8155C19.5419 48.8383 19.5326 48.8603 19.5159 48.8766C19.4992 48.893 19.4764 48.9025 19.4525 48.903Z" fill="#3F4249"/>
<path d="M21.4221 48.9026C21.41 48.9027 21.398 48.9006 21.3868 48.8962C21.3755 48.8919 21.3654 48.8855 21.3567 48.8774C21.3482 48.8692 21.3413 48.8596 21.3367 48.8489C21.332 48.8382 21.3296 48.8267 21.3296 48.8152V37.9736L22.1303 32.7957C22.1338 32.7727 22.1467 32.7519 22.1662 32.7379C22.1857 32.724 22.2103 32.718 22.2344 32.7214C22.2586 32.7248 22.2803 32.7371 22.2949 32.7558C22.3094 32.7744 22.3157 32.7979 22.3121 32.821L21.5166 37.993V48.8152C21.5166 48.8269 21.5141 48.8385 21.5093 48.8494C21.5046 48.8602 21.4976 48.8699 21.4887 48.878C21.4799 48.8862 21.4695 48.8926 21.458 48.8968C21.4465 48.9011 21.4344 48.903 21.4221 48.9026Z" fill="#3F4249"/>
<path opacity="0.4" d="M59.499 32.278L60.2174 38.5851L61.2457 38.1818L60.8393 32.2537L59.499 32.278Z" fill="black"/>
<path d="M47.385 59.8094L47.3799 61.9581L50.3083 61.8891L50.609 59.3789L47.385 59.8094Z" fill="#FC9D9D"/>
<path opacity="0.15" d="M50.4996 60.0946L48.8982 60.2277C48.7628 60.273 48.6454 60.3575 48.5624 60.4695C48.4794 60.5814 48.4348 60.7154 48.4349 60.8526V61.9332L47.3853 61.9614V59.8817L50.5352 59.8098L50.4996 60.0946Z" fill="black"/>
<path d="M47.1962 61.6747L47.2165 63.8448C47.2165 63.9278 47.2323 64.0101 47.2632 64.0878C47.2939 64.1632 47.3387 64.2327 47.3953 64.2928C47.4502 64.3504 47.5169 64.3963 47.5914 64.4279C47.6639 64.4592 47.7425 64.4751 47.8221 64.4746L54.7966 64.4143C54.8304 64.4139 54.8637 64.4065 54.8944 64.3928C54.9251 64.3791 54.9523 64.3592 54.9744 64.3346C55.0223 64.2826 55.048 64.2154 55.0465 64.1461C55.0434 63.8983 54.9662 63.6565 54.824 63.4493C54.6889 63.2505 54.4904 63.0985 54.2579 63.0159L52.68 62.4775L50.6712 60.8545C50.5737 60.7724 50.447 60.7292 50.3171 60.7337C50.1873 60.7382 50.0642 60.7902 49.9732 60.8788L49.0973 61.6835C49.0359 61.7411 48.9593 61.7817 48.8758 61.8011C48.7938 61.8197 48.7079 61.8164 48.6278 61.7914L47.5051 61.4318C47.4694 61.4203 47.4312 61.418 47.3943 61.425C47.3568 61.4315 47.3218 61.4472 47.2927 61.4707C47.2616 61.4948 47.2371 61.5258 47.2216 61.561C47.2046 61.5967 47.196 61.6355 47.1962 61.6747Z" fill="black"/>
<path d="M47.1962 61.6747L47.2165 63.8448C47.2165 63.9278 47.2323 64.0101 47.2632 64.0878C47.2939 64.1632 47.3387 64.2327 47.3953 64.2928C47.4502 64.3504 47.5169 64.3963 47.5914 64.4279C47.6639 64.4592 47.7425 64.4751 47.8221 64.4746L54.7966 64.4143C54.8304 64.4139 54.8637 64.4065 54.8944 64.3928C54.9251 64.3791 54.9523 64.3592 54.9744 64.3346C55.0223 64.2826 55.048 64.2154 55.0465 64.1461C55.0434 63.8983 54.9662 63.6565 54.824 63.4493C54.6889 63.2505 54.4904 63.0985 54.2579 63.0159L52.68 62.4775L50.6712 60.8545C50.5737 60.7724 50.447 60.7292 50.3171 60.7337C50.1873 60.7382 50.0642 60.7902 49.9732 60.8788L49.0973 61.6835C49.0359 61.7411 48.9593 61.7817 48.8758 61.8011C48.7938 61.8197 48.7079 61.8164 48.6278 61.7914L47.5051 61.4318C47.4694 61.4203 47.4312 61.418 47.3943 61.425C47.3568 61.4315 47.3218 61.4472 47.2927 61.4707C47.2616 61.4948 47.2371 61.5258 47.2216 61.561C47.2046 61.5967 47.196 61.6355 47.1962 61.6747Z" fill="#3F4249"/>
<path d="M47.8261 64.4734L54.7965 64.4132C54.8302 64.4125 54.8635 64.4051 54.8942 64.3913C54.9248 64.3776 54.952 64.3579 54.9743 64.3335C55.0221 64.2815 55.0479 64.2141 55.0464 64.1449C55.0471 64.0554 55.0356 63.9662 55.0119 63.8796L47.2296 63.9457C47.2517 64.0903 47.3231 64.224 47.4328 64.3257C47.5382 64.4205 47.6773 64.4732 47.822 64.4734H47.8261Z" fill="#21252B"/>
<path opacity="0.3" d="M47.8261 64.4734L54.7965 64.4132C54.8302 64.4125 54.8635 64.4051 54.8942 64.3913C54.9248 64.3776 54.952 64.3579 54.9743 64.3335C55.0221 64.2815 55.0479 64.2141 55.0464 64.1449C55.0471 64.0554 55.0356 63.9662 55.0119 63.8796L47.2296 63.9457C47.2517 64.0903 47.3231 64.224 47.4328 64.3257C47.5382 64.4205 47.6773 64.4732 47.822 64.4734H47.8261Z" fill="black"/>
<path d="M50.6349 61.7211C50.6272 61.7209 50.6196 61.7193 50.6127 61.7162C50.6057 61.7133 50.5994 61.709 50.5942 61.7036C50.588 61.6975 50.5832 61.6903 50.58 61.6822C50.5785 61.6739 50.5785 61.6653 50.58 61.657C50.5785 61.6483 50.5785 61.6395 50.58 61.6307C50.5827 61.6229 50.5872 61.6156 50.5932 61.6093L51.0118 61.1234C51.0173 61.1172 51.0241 61.1121 51.0319 61.1086C51.0396 61.1051 51.048 61.1031 51.0565 61.103C51.0735 61.1037 51.0896 61.1107 51.1013 61.1225C51.1138 61.1359 51.1207 61.1532 51.1206 61.1711C51.1202 61.1882 51.1138 61.2047 51.1023 61.2177L50.6847 61.7036C50.67 61.7139 50.6529 61.7203 50.6349 61.7221V61.7211Z" fill="#F4F4F4"/>
<path d="M50.9721 61.9914C50.9645 61.9914 50.9571 61.9899 50.95 61.9871C50.943 61.9843 50.9367 61.9801 50.9314 61.9749C50.9253 61.9687 50.9204 61.9615 50.9172 61.9535C50.9141 61.9454 50.9123 61.9369 50.9121 61.9282C50.9118 61.919 50.9136 61.9096 50.9172 61.901C50.9203 61.8932 50.9247 61.8859 50.9304 61.8796L51.3491 61.3937C51.3544 61.3877 51.3612 61.3828 51.3687 61.3795C51.3763 61.3761 51.3844 61.3744 51.3928 61.3743C51.4096 61.3746 51.4257 61.3813 51.4375 61.3927C51.4496 61.4059 51.4562 61.4229 51.4558 61.4404C51.456 61.4577 51.4499 61.4746 51.4385 61.488L51.0198 61.9739C51.0055 61.9831 50.9892 61.9891 50.9721 61.9914Z" fill="#F4F4F4"/>
<path d="M51.3038 62.2643C51.2886 62.2639 51.2741 62.258 51.2632 62.2478C51.2511 62.2347 51.2446 62.2177 51.2449 62.2002C51.2448 62.1829 51.2509 62.1661 51.2622 62.1526L51.6808 61.6667C51.6922 61.6562 51.7076 61.6502 51.7234 61.6501C51.7399 61.6514 51.7552 61.6588 51.7661 61.6706C51.7775 61.683 51.784 61.6988 51.7844 61.7153C51.7855 61.7317 51.7804 61.7478 51.7702 61.7609L51.3516 62.2468C51.3386 62.2582 51.3215 62.2645 51.3038 62.2643Z" fill="#F4F4F4"/>
<path d="M40.4158 40.9487L51.5522 43.974C51.9767 44.0895 52.3428 44.3486 52.5823 44.7033C52.8217 45.0578 52.9182 45.4835 52.8538 45.9011L50.6834 59.8817H47.1972L47.7225 47.6543L33.8508 46.2199C33.8508 46.2199 32.2911 46.078 31.8339 45.0012L40.4158 40.9487Z" fill="#21252B"/>
<path opacity="0.3" d="M33.0522 44.4256L31.8329 45.0009C32.2901 46.0777 33.8498 46.2196 33.8498 46.2196L47.7216 47.654L47.1983 59.8396L47.9512 59.8455L48.8088 46.9008L35.2002 44.239L33.0522 44.4256Z" fill="black"/>
<path d="M34.7876 25.1721C34.7876 25.1721 33.5886 26.8932 33.1964 27.6775C32.9387 28.2068 32.7398 28.7605 32.603 29.3296C32.1222 31.2556 31.9739 33.244 32.164 35.2159L32.1265 36.901C32.1265 36.901 31.3014 40.3393 31.3725 45.0011C31.3725 45.0011 36.0963 45.144 40.37 40.9127C40.37 40.9127 39.545 27.5016 38.1956 26.4987L34.7876 25.1721Z" fill="black"/>
<path d="M35.8251 19.7077L35.567 22.4288L34.8456 25.1499L38.1581 26.4229L38.3816 24.422L39.2016 24.6163C39.229 24.6251 39.2575 24.6319 39.2849 24.6387C39.8194 24.7533 40.1405 24.7475 40.3833 23.9322L40.6129 22.936L40.9615 22.8321L40.9808 22.8243C41.0285 22.8042 41.066 22.7669 41.0851 22.7204C41.1041 22.6739 41.1031 22.6222 41.0824 22.5765L40.6831 21.7154V21.6668L40.7308 21.5531C40.9327 21.0729 40.9932 20.5489 40.9056 20.0381L40.8192 19.5366L35.8251 19.7077Z" fill="#FC9D9D"/>
<path d="M40.9024 19.6199L39.3782 20.0689C39.3073 20.0786 39.2408 20.1076 39.1867 20.1526C39.1326 20.1976 39.0933 20.2566 39.0734 20.3225L38.9962 20.5703C38.9017 20.8988 38.6395 21.0242 38.2849 21.0407H37.9293L37.8053 21.6549C37.7961 21.6967 37.7715 21.734 37.7362 21.7601C37.7009 21.7863 37.657 21.7996 37.6123 21.7977C37.5644 21.7943 37.5199 21.7729 37.4884 21.7381C37.457 21.7033 37.4412 21.658 37.4446 21.6121L37.4609 21.3799L36.6155 21.4119L36.4529 22.0494C36.1257 22.5635 35.4612 22.5703 35.4612 22.5703C35.1503 21.3361 34.7184 20.169 35.2051 19.0193L35.2173 18.9911C35.384 18.5898 36.0688 18.1165 36.6663 18.2992C36.8857 18.3711 37.0321 18.1573 37.1184 18.0941C37.4761 17.6315 38.5481 17.5528 39.1405 17.96L39.5164 18.2457C39.8212 18.4207 40.187 18.3565 40.5539 18.3429C41.0893 18.2467 41.4602 19.0591 40.9024 19.6199Z" fill="#21252B"/>
<path opacity="0.15" d="M38.3401 25.1126L37.6725 24.3731C37.6602 24.356 37.6523 24.3362 37.6499 24.3156C37.6475 24.2949 37.6503 24.2739 37.6583 24.2545C37.6718 24.2246 37.697 24.2009 37.7285 24.1885C37.7601 24.1761 37.7955 24.1761 37.827 24.1884L38.4224 24.4081L38.3401 25.1126Z" fill="black"/>
<path opacity="0.15" d="M35.9299 22.4763L36.7062 22.4286C36.6069 22.3174 36.5232 22.1942 36.4573 22.0623C36.4033 22.1619 36.3288 22.2499 36.238 22.3211C36.1474 22.3923 36.0425 22.4451 35.9299 22.4763Z" fill="black"/>
<path d="M40.8684 21.7888C40.877 21.6707 40.7935 21.5689 40.6818 21.5615C40.5702 21.554 40.4726 21.6436 40.464 21.7617C40.4554 21.8797 40.5389 21.9816 40.6505 21.9891C40.7622 21.9965 40.8598 21.9069 40.8684 21.7888Z" fill="#21252B"/>
<path d="M40.3378 21.6761C40.3547 21.6761 40.3685 21.6628 40.3685 21.6465C40.3685 21.6302 40.3547 21.6169 40.3378 21.6169C40.3207 21.6169 40.307 21.6302 40.307 21.6465C40.307 21.6628 40.3207 21.6761 40.3378 21.6761Z" fill="white"/>
<path d="M37.3777 22.7036L37.4661 21.4256C37.4733 21.2899 37.4243 21.1568 37.3298 21.0554C37.2353 20.9539 37.1028 20.8921 36.9611 20.8833C36.8189 20.8748 36.6789 20.9204 36.5718 21.0101C36.4646 21.0999 36.3989 21.2265 36.389 21.3625L36.3707 21.6142C36.352 21.8865 36.4471 22.1547 36.6352 22.3598C36.8233 22.5651 37.0889 22.6904 37.3736 22.7084L37.3777 22.7036Z" fill="#FC9D9D"/>
<path opacity="0.2" d="M36.148 30.6803C36.7576 31.8057 38.3031 34.4043 39.8974 35.0866L39.7307 33.7114L36.3146 30.5579C36.2976 30.5367 36.2726 30.5229 36.245 30.5194C36.2174 30.516 36.1894 30.5231 36.1673 30.5394C36.1452 30.5556 36.1308 30.5795 36.1271 30.606C36.1235 30.6324 36.131 30.6591 36.148 30.6803Z" fill="black"/>
<path d="M54.9814 38.074L54.393 37.6474C54.3199 37.5952 54.2354 37.5593 54.1459 37.5425C54.0565 37.5257 53.9641 37.5283 53.8758 37.5502L52.4249 37.8903L44.5705 35.0351L41.0253 31.1294L38.8376 33.3228L42.4184 36.8213C42.6577 37.0709 42.967 37.2493 43.3095 37.3354L52.0205 39.3763C53.0366 39.6425 53.8809 38.8554 53.8809 38.8554L54.6786 39.4161L54.577 39.6649C54.5399 39.7598 54.4675 39.8384 54.3737 39.8855L53.5446 40.3199C53.5035 40.3404 53.4724 40.3752 53.4572 40.4171C53.4489 40.4408 53.4459 40.4659 53.4485 40.4908C53.451 40.5157 53.459 40.5398 53.472 40.5616C53.4849 40.5833 53.5025 40.6021 53.5236 40.617C53.5447 40.6318 53.5688 40.6421 53.5944 40.6474L53.6411 40.6571C53.6751 40.664 53.7103 40.6613 53.7427 40.6493L54.8249 40.2548C54.9051 40.2259 54.978 40.1812 55.0389 40.1237C55.0998 40.0661 55.1474 39.9968 55.1785 39.9205L55.5737 38.9545L54.9814 38.074Z" fill="#FC9D9D"/>
<path opacity="0.15" d="M51.9992 39.0972L43.0414 36.5704L39.3936 32.6938L38.7433 33.2313L42.4185 36.8212C42.6578 37.0708 42.9672 37.2493 43.3096 37.3353L52.0206 39.3761C52.8528 39.5948 53.5742 39.102 53.8038 38.9193C52.6678 39.4227 51.9992 39.0972 51.9992 39.0972Z" fill="black"/>
<path opacity="0.2" d="M33.8111 37.005L33.8863 31.0526C33.8863 30.0711 34.0479 28.1828 34.435 27.2742L35.1981 25.4831L34.7856 25.1721C34.7856 25.1721 33.5866 26.8932 33.1944 27.6775C32.936 28.2066 32.7367 28.7604 32.6 29.3296C32.1203 31.2539 31.9724 33.2402 32.162 35.21L32.1244 36.8952C32.1244 36.8952 31.3014 40.3393 31.3725 45.0011C31.7696 45.0007 32.1661 44.9705 32.5583 44.9107L34.6342 44.4627C33.9994 42.0253 33.7224 39.5154 33.8111 37.005Z" fill="black"/>
<g opacity="0.3">
<path opacity="0.3" d="M37.2437 21.6841L37.2588 21.4703C37.2642 21.3806 37.2325 21.2925 37.1705 21.2248C37.1085 21.1572 37.0213 21.1156 36.9276 21.1088C36.8762 21.1039 36.8244 21.1101 36.7759 21.127C36.7273 21.1438 36.6834 21.1708 36.6471 21.206L36.6391 21.2128C36.6259 21.2286 36.6197 21.2487 36.6217 21.2689C36.6239 21.2891 36.634 21.3076 36.6502 21.3206C36.6666 21.3332 36.6875 21.3391 36.7084 21.3372C36.7293 21.3351 36.7485 21.3254 36.7619 21.3099C36.7813 21.2891 36.8056 21.2727 36.8329 21.2626C36.86 21.2525 36.8895 21.2487 36.9185 21.2516C36.9721 21.2551 37.022 21.2788 37.0574 21.3174C37.0928 21.356 37.1108 21.4065 37.1074 21.4577L37.0932 21.6715C37.0933 21.6916 37.1009 21.711 37.1147 21.7262C37.1285 21.7414 37.1475 21.7513 37.1684 21.7541C37.1785 21.7559 37.189 21.7554 37.1989 21.7526C37.2087 21.7498 37.2177 21.7447 37.2251 21.7378C37.2325 21.7309 37.238 21.7225 37.2412 21.7132C37.2445 21.7038 37.2453 21.6938 37.2437 21.6841Z" fill="#21252B"/>
</g>
<path d="M40.5306 23.3226C40.3588 23.2984 40.192 23.2493 40.0358 23.1768C40.0275 23.1728 40.0181 23.1716 40.0091 23.1734C39.9999 23.175 39.9918 23.1796 39.9857 23.1863C39.9797 23.193 39.9762 23.2014 39.9756 23.2102C39.9751 23.2191 39.9777 23.2278 39.983 23.2351C40.1026 23.4023 40.2687 23.5342 40.4626 23.6161L40.5306 23.3226Z" fill="white"/>
<path d="M39.86 21.0194C40.4635 20.8834 40.6861 21.1224 40.6861 21.1224V21.1836C40.6861 21.1836 40.1963 21.0077 39.8976 21.0661L39.86 21.0194Z" fill="#21252B"/>
<path opacity="0.4" d="M41.8585 19.6598C41.8585 19.6598 42.1329 22.2361 40.2887 24.4392C39.7146 24.7735 37.5818 24.1554 37.7271 22.0864C37.8287 20.6209 37.5239 19.5821 37.9547 19.3265C38.3855 19.0709 40.5407 19.7929 41.8585 19.6598Z" fill="white"/>
<path d="M38.8084 19.9525C38.8084 19.9525 41.1342 20.0584 41.8567 20.2635C42.1168 18.5657 40.7949 17.2509 38.8439 16.8787C36.893 16.5064 34.9533 17.5239 34.43 19.281C33.9067 21.038 34.3965 21.7756 34.8781 22.385C35.2683 22.8787 35.8424 23.2169 37.3797 23.0167C38.3958 22.8855 38.2871 21.487 38.3867 20.9583C38.4863 20.4297 38.4934 19.9039 38.8084 19.9525Z" fill="black"/>
<g opacity="0.2">
<path opacity="0.2" d="M38.8083 16.8785C38.2359 16.765 37.6444 16.7748 37.0765 16.9069C36.5085 17.039 35.9783 17.2902 35.5243 17.6424C36.275 17.3326 37.1069 17.2498 37.9081 17.4052C39.5927 17.7259 40.809 18.7474 40.9441 20.1137C41.2413 20.1412 41.5357 20.1899 41.8251 20.2595C42.0832 18.5608 40.7602 17.2507 38.8083 16.8785Z" fill="white"/>
</g>
<path d="M38.5574 19.7344C38.2424 19.6858 38.2353 20.1989 38.1327 20.7402C38.0301 21.2815 38.1388 22.6673 37.1258 22.7985C36.008 22.9443 35.3984 22.7985 34.998 22.5255C35.3892 22.9385 35.9908 23.196 37.3767 23.0162C38.3928 22.885 38.2841 21.4866 38.3837 20.9579C38.4833 20.4292 38.4934 19.9035 38.8084 19.9521C38.8084 19.9521 41.1343 20.058 41.8567 20.2631C41.8718 20.1606 41.8817 20.0575 41.8862 19.954C41.1393 19.7529 38.5574 19.7344 38.5574 19.7344Z" fill="#21252B"/>
<path d="M34.8118 25.0078C34.8118 25.0078 38.7014 26.862 38.1649 26.0525C38.1649 26.0525 38.4951 26.2838 38.1954 26.4986C38.1954 26.4986 37.4079 26.5345 34.7559 25.2789C34.7599 25.2789 34.6492 25.1672 34.8118 25.0078Z" fill="white"/>
<path d="M38.3489 27.7183L41.4877 31.1702L38.6009 33.5725L35.8748 30.1556L38.3489 27.7183Z" fill="black"/>
<path d="M50.78 59.9506H47.1221V58.9788H50.8816L50.78 59.9506Z" fill="#21252B"/>
<path opacity="0.3" d="M50.78 59.9506H47.1221V58.9788H50.8816L50.78 59.9506Z" fill="black"/>
<path opacity="0.3" d="M48.2398 58.9788H47.1221V59.9506H48.2398V58.9788Z" fill="black"/>
<path d="M38.4357 33.3646L41.3183 30.9836L41.5337 31.1848L38.6429 33.5726L38.4357 33.3646Z" fill="#F4F4F4"/>
<path d="M36.0981 20.3003H23.4539C23.4122 20.3003 23.3787 20.2566 23.3787 20.2031C23.3787 20.1497 23.4122 20.106 23.4539 20.106H36.0981C36.1398 20.106 36.1733 20.1497 36.1733 20.2031C36.1733 20.2566 36.1398 20.3003 36.0981 20.3003Z" fill="white"/>
<path d="M36.0981 30.6014H23.4539C23.4122 30.6014 23.3787 30.5576 23.3787 30.5042C23.3787 30.4507 23.4122 30.407 23.4539 30.407H36.0981C36.1398 30.407 36.1733 30.4507 36.1733 30.5042C36.1733 30.5576 36.1398 30.6014 36.0981 30.6014Z" fill="white"/>
<path d="M35.818 22.5354H29.315C29.2845 22.5354 29.2601 22.4917 29.2601 22.4382C29.2601 22.3848 29.2845 22.3411 29.315 22.3411H35.818C35.8485 22.3411 35.8729 22.3848 35.8729 22.4382C35.8729 22.4917 35.8485 22.5354 35.818 22.5354Z" fill="white"/>
<path d="M34.4817 27.4917H29.7863C29.764 27.4917 29.7467 27.448 29.7467 27.3945C29.7467 27.3411 29.764 27.2974 29.7863 27.2974H34.4817C34.5041 27.2974 34.5213 27.3411 34.5213 27.3945C34.5213 27.448 34.5041 27.4917 34.4817 27.4917Z" fill="white"/>
</svg>
